<mxfile host="app.diagrams.net" modified="2024-03-22T17:24:08.858Z" agent="Mozilla/5.0 (Windows NT 10.0; Win64; x64) AppleWebKit/537.36 (KHTML, like Gecko) Chrome/122.0.0.0 Safari/537.36" etag="8IdMZf4GJnKTpsaJ3KXi" version="24.0.7" type="device">
  <diagram name="Page-1" id="7e0a89b8-554c-2b80-1dc8-d5c74ca68de4">
    <mxGraphModel dx="3502" dy="708" grid="1" gridSize="10" guides="0" tooltips="1" connect="1" arrows="1" fold="1" page="1" pageScale="1" pageWidth="1100" pageHeight="850" background="none" math="0" shadow="0">
      <root>
        <mxCell id="0" />
        <mxCell id="1" parent="0" />
        <mxCell id="OmlpcQI9IJZ9FruPpQCv-11" style="edgeStyle=orthogonalEdgeStyle;rounded=0;orthogonalLoop=1;jettySize=auto;html=1;exitX=1;exitY=0.5;exitDx=0;exitDy=0;entryX=0;entryY=0.5;entryDx=0;entryDy=0;" edge="1" parent="1" source="OmlpcQI9IJZ9FruPpQCv-1" target="OmlpcQI9IJZ9FruPpQCv-4">
          <mxGeometry relative="1" as="geometry" />
        </mxCell>
        <mxCell id="OmlpcQI9IJZ9FruPpQCv-17" style="edgeStyle=orthogonalEdgeStyle;rounded=0;orthogonalLoop=1;jettySize=auto;html=1;exitX=0.5;exitY=1;exitDx=0;exitDy=0;entryX=0.5;entryY=0;entryDx=0;entryDy=0;" edge="1" parent="1" source="OmlpcQI9IJZ9FruPpQCv-1" target="OmlpcQI9IJZ9FruPpQCv-16">
          <mxGeometry relative="1" as="geometry" />
        </mxCell>
        <mxCell id="OmlpcQI9IJZ9FruPpQCv-1" value="NO_ACCESS" style="rounded=1;whiteSpace=wrap;html=1;arcSize=50;" vertex="1" parent="1">
          <mxGeometry x="360" y="200" width="120" height="40" as="geometry" />
        </mxCell>
        <mxCell id="OmlpcQI9IJZ9FruPpQCv-12" style="edgeStyle=orthogonalEdgeStyle;rounded=0;orthogonalLoop=1;jettySize=auto;html=1;exitX=1;exitY=0.5;exitDx=0;exitDy=0;entryX=0;entryY=0.5;entryDx=0;entryDy=0;" edge="1" parent="1" source="OmlpcQI9IJZ9FruPpQCv-4" target="OmlpcQI9IJZ9FruPpQCv-6">
          <mxGeometry relative="1" as="geometry" />
        </mxCell>
        <mxCell id="OmlpcQI9IJZ9FruPpQCv-4" value="HRESP" style="rhombus;whiteSpace=wrap;html=1;" vertex="1" parent="1">
          <mxGeometry x="520" y="200" width="120" height="40" as="geometry" />
        </mxCell>
        <mxCell id="OmlpcQI9IJZ9FruPpQCv-14" style="edgeStyle=orthogonalEdgeStyle;rounded=0;orthogonalLoop=1;jettySize=auto;html=1;exitX=1;exitY=0.5;exitDx=0;exitDy=0;entryX=0;entryY=0.5;entryDx=0;entryDy=0;" edge="1" parent="1" source="OmlpcQI9IJZ9FruPpQCv-6" target="OmlpcQI9IJZ9FruPpQCv-13">
          <mxGeometry relative="1" as="geometry" />
        </mxCell>
        <mxCell id="OmlpcQI9IJZ9FruPpQCv-6" value="ERROR1ST" style="rounded=1;whiteSpace=wrap;html=1;arcSize=50;" vertex="1" parent="1">
          <mxGeometry x="680" y="200" width="120" height="40" as="geometry" />
        </mxCell>
        <mxCell id="OmlpcQI9IJZ9FruPpQCv-15" style="edgeStyle=orthogonalEdgeStyle;rounded=0;orthogonalLoop=1;jettySize=auto;html=1;exitX=0.5;exitY=0;exitDx=0;exitDy=0;entryX=0.5;entryY=0;entryDx=0;entryDy=0;" edge="1" parent="1" source="OmlpcQI9IJZ9FruPpQCv-13" target="OmlpcQI9IJZ9FruPpQCv-1">
          <mxGeometry relative="1" as="geometry">
            <Array as="points">
              <mxPoint x="900" y="160" />
              <mxPoint x="420" y="160" />
            </Array>
          </mxGeometry>
        </mxCell>
        <mxCell id="OmlpcQI9IJZ9FruPpQCv-13" value="ERROR2ND" style="rounded=1;whiteSpace=wrap;html=1;arcSize=50;" vertex="1" parent="1">
          <mxGeometry x="840" y="200" width="120" height="40" as="geometry" />
        </mxCell>
        <mxCell id="OmlpcQI9IJZ9FruPpQCv-19" style="edgeStyle=orthogonalEdgeStyle;rounded=0;orthogonalLoop=1;jettySize=auto;html=1;exitX=0.5;exitY=1;exitDx=0;exitDy=0;entryX=0.5;entryY=0;entryDx=0;entryDy=0;" edge="1" parent="1" source="OmlpcQI9IJZ9FruPpQCv-16" target="OmlpcQI9IJZ9FruPpQCv-18">
          <mxGeometry relative="1" as="geometry" />
        </mxCell>
        <mxCell id="OmlpcQI9IJZ9FruPpQCv-16" value="HREADY" style="rhombus;whiteSpace=wrap;html=1;" vertex="1" parent="1">
          <mxGeometry x="360" y="280" width="120" height="40" as="geometry" />
        </mxCell>
        <mxCell id="OmlpcQI9IJZ9FruPpQCv-18" value="IDLE" style="rounded=1;whiteSpace=wrap;html=1;arcSize=50;" vertex="1" parent="1">
          <mxGeometry x="360" y="360" width="120" height="40" as="geometry" />
        </mxCell>
        <mxCell id="OmlpcQI9IJZ9FruPpQCv-20" value="&lt;div&gt;- 1 request has two phase: address phase and data phase.&lt;/div&gt;- current_HSEL: master send the address which is matched with slave&#39;s address&lt;div&gt;- pending_HSEL: data phase of previous request.&lt;/div&gt;&lt;div&gt;- master_granted: output of arbiter inside slave port&lt;/div&gt;" style="text;html=1;align=left;verticalAlign=top;whiteSpace=wrap;rounded=0;fillColor=#dae8fc;strokeColor=#6c8ebf;" vertex="1" parent="1">
          <mxGeometry x="-280" y="40" width="400" height="160" as="geometry" />
        </mxCell>
        <mxCell id="OmlpcQI9IJZ9FruPpQCv-22" value="&lt;div&gt;NO_ACCESS (S0):&lt;/div&gt;&lt;div&gt;- reset state&lt;/div&gt;&lt;div&gt;- no access requested -&amp;gt; stay in this state&lt;/div&gt;&lt;div&gt;- if there&#39;s an requested:&lt;/div&gt;&lt;div&gt;&lt;span style=&quot;white-space: pre;&quot;&gt;&#x9;&lt;/span&gt;- get an access granted -&amp;gt; go to ACCESS_GRANTED&lt;br&gt;&lt;/div&gt;&lt;div&gt;&lt;span style=&quot;white-space: pre;&quot;&gt;&#x9;&lt;/span&gt;- else -&amp;gt; go to ACCESS_PENDING&lt;br&gt;&lt;/div&gt;&lt;div&gt;&lt;br&gt;&lt;/div&gt;&lt;div&gt;ACCESS_GRANTED (S1):&lt;/div&gt;&lt;div&gt;- Transfer state&lt;/div&gt;&lt;div&gt;- response error -&amp;gt; ERROR&lt;/div&gt;&lt;div&gt;- if access requested and granted -&amp;gt; stay in this state&lt;/div&gt;&lt;div&gt;- else if access requested but not granted -&amp;gt; go to ACESS_PENDING&lt;/div&gt;&lt;div&gt;- else -&amp;gt; go to NO_ACCESS&lt;/div&gt;&lt;div&gt;&lt;br&gt;&lt;/div&gt;&lt;div&gt;ACCESS_PENDING (S2):&lt;/div&gt;&lt;div&gt;-&amp;nbsp;Intermediate state to hold bus-command&lt;/div&gt;&lt;div&gt;-&amp;nbsp;&lt;span style=&quot;background-color: initial;&quot;&gt;response error -&amp;gt; ERROR&lt;/span&gt;&lt;/div&gt;&lt;div&gt;&lt;span style=&quot;background-color: initial;&quot;&gt;- if&amp;nbsp;&lt;/span&gt;&lt;span style=&quot;background-color: initial;&quot;&gt;access requested and granted -&amp;gt; ACCESS_GRANTED&lt;/span&gt;&lt;/div&gt;&lt;div&gt;&lt;span style=&quot;background-color: initial;&quot;&gt;- else -&amp;gt; stay in this state&lt;/span&gt;&lt;/div&gt;&lt;div&gt;&lt;br&gt;&lt;/div&gt;&lt;div&gt;ERROR (S3):&lt;/div&gt;&lt;div&gt;- Error transfer&lt;/div&gt;" style="text;html=1;align=left;verticalAlign=top;whiteSpace=wrap;rounded=0;fillColor=#dae8fc;strokeColor=#6c8ebf;" vertex="1" parent="1">
          <mxGeometry x="-1560" y="120" width="520" height="360" as="geometry" />
        </mxCell>
        <mxCell id="OmlpcQI9IJZ9FruPpQCv-23" value="" style="endArrow=none;html=1;rounded=0;" edge="1" parent="1">
          <mxGeometry width="50" height="50" relative="1" as="geometry">
            <mxPoint x="-920" y="440" as="sourcePoint" />
            <mxPoint x="-880" y="440" as="targetPoint" />
          </mxGeometry>
        </mxCell>
        <mxCell id="OmlpcQI9IJZ9FruPpQCv-24" value="" style="endArrow=classic;html=1;rounded=0;" edge="1" parent="1">
          <mxGeometry width="50" height="50" relative="1" as="geometry">
            <mxPoint x="-880" y="440" as="sourcePoint" />
            <mxPoint x="-880" y="420" as="targetPoint" />
          </mxGeometry>
        </mxCell>
        <mxCell id="OmlpcQI9IJZ9FruPpQCv-27" value="" style="endArrow=none;html=1;rounded=0;" edge="1" parent="1">
          <mxGeometry width="50" height="50" relative="1" as="geometry">
            <mxPoint x="-840" y="420" as="sourcePoint" />
            <mxPoint x="-840" y="440" as="targetPoint" />
          </mxGeometry>
        </mxCell>
        <mxCell id="OmlpcQI9IJZ9FruPpQCv-28" value="" style="endArrow=none;html=1;rounded=0;" edge="1" parent="1">
          <mxGeometry width="50" height="50" relative="1" as="geometry">
            <mxPoint x="-880" y="420" as="sourcePoint" />
            <mxPoint x="-840" y="420" as="targetPoint" />
          </mxGeometry>
        </mxCell>
        <mxCell id="OmlpcQI9IJZ9FruPpQCv-31" value="" style="endArrow=none;html=1;rounded=0;" edge="1" parent="1">
          <mxGeometry width="50" height="50" relative="1" as="geometry">
            <mxPoint x="-840" y="440" as="sourcePoint" />
            <mxPoint x="-800" y="440" as="targetPoint" />
          </mxGeometry>
        </mxCell>
        <mxCell id="OmlpcQI9IJZ9FruPpQCv-32" value="" style="endArrow=classic;html=1;rounded=0;" edge="1" parent="1">
          <mxGeometry width="50" height="50" relative="1" as="geometry">
            <mxPoint x="-800" y="440" as="sourcePoint" />
            <mxPoint x="-800" y="420" as="targetPoint" />
          </mxGeometry>
        </mxCell>
        <mxCell id="OmlpcQI9IJZ9FruPpQCv-33" value="" style="endArrow=none;html=1;rounded=0;" edge="1" parent="1">
          <mxGeometry width="50" height="50" relative="1" as="geometry">
            <mxPoint x="-760" y="420" as="sourcePoint" />
            <mxPoint x="-760" y="440" as="targetPoint" />
          </mxGeometry>
        </mxCell>
        <mxCell id="OmlpcQI9IJZ9FruPpQCv-34" value="" style="endArrow=none;html=1;rounded=0;" edge="1" parent="1">
          <mxGeometry width="50" height="50" relative="1" as="geometry">
            <mxPoint x="-800" y="420" as="sourcePoint" />
            <mxPoint x="-760" y="420" as="targetPoint" />
          </mxGeometry>
        </mxCell>
        <mxCell id="OmlpcQI9IJZ9FruPpQCv-43" value="" style="endArrow=none;html=1;rounded=0;" edge="1" parent="1">
          <mxGeometry width="50" height="50" relative="1" as="geometry">
            <mxPoint x="-760" y="440" as="sourcePoint" />
            <mxPoint x="-720" y="440" as="targetPoint" />
          </mxGeometry>
        </mxCell>
        <mxCell id="OmlpcQI9IJZ9FruPpQCv-44" value="" style="endArrow=classic;html=1;rounded=0;" edge="1" parent="1">
          <mxGeometry width="50" height="50" relative="1" as="geometry">
            <mxPoint x="-720" y="440" as="sourcePoint" />
            <mxPoint x="-720" y="420" as="targetPoint" />
          </mxGeometry>
        </mxCell>
        <mxCell id="OmlpcQI9IJZ9FruPpQCv-45" value="" style="endArrow=none;html=1;rounded=0;" edge="1" parent="1">
          <mxGeometry width="50" height="50" relative="1" as="geometry">
            <mxPoint x="-680" y="420" as="sourcePoint" />
            <mxPoint x="-680" y="440" as="targetPoint" />
          </mxGeometry>
        </mxCell>
        <mxCell id="OmlpcQI9IJZ9FruPpQCv-46" value="" style="endArrow=none;html=1;rounded=0;" edge="1" parent="1">
          <mxGeometry width="50" height="50" relative="1" as="geometry">
            <mxPoint x="-720" y="420" as="sourcePoint" />
            <mxPoint x="-680" y="420" as="targetPoint" />
          </mxGeometry>
        </mxCell>
        <mxCell id="OmlpcQI9IJZ9FruPpQCv-47" value="" style="endArrow=none;html=1;rounded=0;" edge="1" parent="1">
          <mxGeometry width="50" height="50" relative="1" as="geometry">
            <mxPoint x="-680" y="440" as="sourcePoint" />
            <mxPoint x="-640" y="440" as="targetPoint" />
          </mxGeometry>
        </mxCell>
        <mxCell id="OmlpcQI9IJZ9FruPpQCv-48" value="" style="endArrow=classic;html=1;rounded=0;" edge="1" parent="1">
          <mxGeometry width="50" height="50" relative="1" as="geometry">
            <mxPoint x="-640" y="440" as="sourcePoint" />
            <mxPoint x="-640" y="420" as="targetPoint" />
          </mxGeometry>
        </mxCell>
        <mxCell id="OmlpcQI9IJZ9FruPpQCv-49" value="" style="endArrow=none;html=1;rounded=0;" edge="1" parent="1">
          <mxGeometry width="50" height="50" relative="1" as="geometry">
            <mxPoint x="-600" y="420" as="sourcePoint" />
            <mxPoint x="-600" y="440" as="targetPoint" />
          </mxGeometry>
        </mxCell>
        <mxCell id="OmlpcQI9IJZ9FruPpQCv-50" value="" style="endArrow=none;html=1;rounded=0;" edge="1" parent="1">
          <mxGeometry width="50" height="50" relative="1" as="geometry">
            <mxPoint x="-640" y="420" as="sourcePoint" />
            <mxPoint x="-600" y="420" as="targetPoint" />
          </mxGeometry>
        </mxCell>
        <mxCell id="OmlpcQI9IJZ9FruPpQCv-67" value="HCLK" style="text;html=1;align=right;verticalAlign=bottom;whiteSpace=wrap;rounded=0;" vertex="1" parent="1">
          <mxGeometry x="-1080" y="420" width="160" height="20" as="geometry" />
        </mxCell>
        <mxCell id="OmlpcQI9IJZ9FruPpQCv-69" value="bus_cmd" style="text;html=1;align=right;verticalAlign=bottom;whiteSpace=wrap;rounded=0;" vertex="1" parent="1">
          <mxGeometry x="-1080" y="460" width="160" height="20" as="geometry" />
        </mxCell>
        <mxCell id="OmlpcQI9IJZ9FruPpQCv-84" value="" style="group" vertex="1" connectable="0" parent="1">
          <mxGeometry x="-920" y="460" width="120" height="20" as="geometry" />
        </mxCell>
        <mxCell id="OmlpcQI9IJZ9FruPpQCv-68" value="" style="rounded=0;whiteSpace=wrap;html=1;" vertex="1" parent="OmlpcQI9IJZ9FruPpQCv-84">
          <mxGeometry width="120" height="20" as="geometry" />
        </mxCell>
        <mxCell id="OmlpcQI9IJZ9FruPpQCv-70" value="" style="endArrow=none;html=1;rounded=0;entryX=0.168;entryY=1.015;entryDx=0;entryDy=0;entryPerimeter=0;exitX=0;exitY=0;exitDx=0;exitDy=0;" edge="1" parent="OmlpcQI9IJZ9FruPpQCv-84" source="OmlpcQI9IJZ9FruPpQCv-68" target="OmlpcQI9IJZ9FruPpQCv-68">
          <mxGeometry width="50" height="50" relative="1" as="geometry">
            <mxPoint y="20" as="sourcePoint" />
            <mxPoint x="50" y="-30" as="targetPoint" />
          </mxGeometry>
        </mxCell>
        <mxCell id="OmlpcQI9IJZ9FruPpQCv-71" value="" style="endArrow=none;html=1;rounded=0;entryX=0.168;entryY=1.015;entryDx=0;entryDy=0;entryPerimeter=0;exitX=0;exitY=0;exitDx=0;exitDy=0;" edge="1" parent="OmlpcQI9IJZ9FruPpQCv-84">
          <mxGeometry width="50" height="50" relative="1" as="geometry">
            <mxPoint x="20" as="sourcePoint" />
            <mxPoint x="40" y="20" as="targetPoint" />
          </mxGeometry>
        </mxCell>
        <mxCell id="OmlpcQI9IJZ9FruPpQCv-72" value="" style="endArrow=none;html=1;rounded=0;entryX=0.168;entryY=1.015;entryDx=0;entryDy=0;entryPerimeter=0;exitX=0;exitY=0;exitDx=0;exitDy=0;" edge="1" parent="OmlpcQI9IJZ9FruPpQCv-84">
          <mxGeometry width="50" height="50" relative="1" as="geometry">
            <mxPoint x="40" as="sourcePoint" />
            <mxPoint x="60" y="20" as="targetPoint" />
          </mxGeometry>
        </mxCell>
        <mxCell id="OmlpcQI9IJZ9FruPpQCv-73" value="" style="endArrow=none;html=1;rounded=0;entryX=0.168;entryY=1.015;entryDx=0;entryDy=0;entryPerimeter=0;exitX=0;exitY=0;exitDx=0;exitDy=0;" edge="1" parent="OmlpcQI9IJZ9FruPpQCv-84">
          <mxGeometry width="50" height="50" relative="1" as="geometry">
            <mxPoint x="60" as="sourcePoint" />
            <mxPoint x="80" y="20" as="targetPoint" />
          </mxGeometry>
        </mxCell>
        <mxCell id="OmlpcQI9IJZ9FruPpQCv-74" value="" style="endArrow=none;html=1;rounded=0;entryX=0.168;entryY=1.015;entryDx=0;entryDy=0;entryPerimeter=0;exitX=0;exitY=0;exitDx=0;exitDy=0;" edge="1" parent="OmlpcQI9IJZ9FruPpQCv-84">
          <mxGeometry width="50" height="50" relative="1" as="geometry">
            <mxPoint x="80" as="sourcePoint" />
            <mxPoint x="100" y="20" as="targetPoint" />
          </mxGeometry>
        </mxCell>
        <mxCell id="OmlpcQI9IJZ9FruPpQCv-75" value="" style="endArrow=none;html=1;rounded=0;entryX=0.168;entryY=1.015;entryDx=0;entryDy=0;entryPerimeter=0;exitX=0;exitY=0;exitDx=0;exitDy=0;" edge="1" parent="OmlpcQI9IJZ9FruPpQCv-84">
          <mxGeometry width="50" height="50" relative="1" as="geometry">
            <mxPoint x="100" as="sourcePoint" />
            <mxPoint x="120" y="20" as="targetPoint" />
          </mxGeometry>
        </mxCell>
        <mxCell id="OmlpcQI9IJZ9FruPpQCv-76" value="" style="endArrow=none;html=1;rounded=0;entryX=0.168;entryY=1.015;entryDx=0;entryDy=0;entryPerimeter=0;exitX=0;exitY=0;exitDx=0;exitDy=0;" edge="1" parent="OmlpcQI9IJZ9FruPpQCv-84">
          <mxGeometry width="50" height="50" relative="1" as="geometry">
            <mxPoint x="10" as="sourcePoint" />
            <mxPoint x="30" y="20" as="targetPoint" />
          </mxGeometry>
        </mxCell>
        <mxCell id="OmlpcQI9IJZ9FruPpQCv-77" value="" style="endArrow=none;html=1;rounded=0;entryX=0.168;entryY=1.015;entryDx=0;entryDy=0;entryPerimeter=0;exitX=0;exitY=0;exitDx=0;exitDy=0;" edge="1" parent="OmlpcQI9IJZ9FruPpQCv-84">
          <mxGeometry width="50" height="50" relative="1" as="geometry">
            <mxPoint x="30" as="sourcePoint" />
            <mxPoint x="50" y="20" as="targetPoint" />
          </mxGeometry>
        </mxCell>
        <mxCell id="OmlpcQI9IJZ9FruPpQCv-78" value="" style="endArrow=none;html=1;rounded=0;entryX=0.168;entryY=1.015;entryDx=0;entryDy=0;entryPerimeter=0;exitX=0;exitY=0;exitDx=0;exitDy=0;" edge="1" parent="OmlpcQI9IJZ9FruPpQCv-84">
          <mxGeometry width="50" height="50" relative="1" as="geometry">
            <mxPoint x="50" as="sourcePoint" />
            <mxPoint x="70" y="20" as="targetPoint" />
          </mxGeometry>
        </mxCell>
        <mxCell id="OmlpcQI9IJZ9FruPpQCv-79" value="" style="endArrow=none;html=1;rounded=0;entryX=0.168;entryY=1.015;entryDx=0;entryDy=0;entryPerimeter=0;exitX=0;exitY=0;exitDx=0;exitDy=0;" edge="1" parent="OmlpcQI9IJZ9FruPpQCv-84">
          <mxGeometry width="50" height="50" relative="1" as="geometry">
            <mxPoint x="70" as="sourcePoint" />
            <mxPoint x="90" y="20" as="targetPoint" />
          </mxGeometry>
        </mxCell>
        <mxCell id="OmlpcQI9IJZ9FruPpQCv-81" value="" style="endArrow=none;html=1;rounded=0;entryX=0.168;entryY=1.015;entryDx=0;entryDy=0;entryPerimeter=0;exitX=0;exitY=0;exitDx=0;exitDy=0;" edge="1" parent="OmlpcQI9IJZ9FruPpQCv-84">
          <mxGeometry width="50" height="50" relative="1" as="geometry">
            <mxPoint x="90" as="sourcePoint" />
            <mxPoint x="110" y="20" as="targetPoint" />
          </mxGeometry>
        </mxCell>
        <mxCell id="OmlpcQI9IJZ9FruPpQCv-82" value="" style="endArrow=none;html=1;rounded=0;entryX=0.168;entryY=1.015;entryDx=0;entryDy=0;entryPerimeter=0;" edge="1" parent="OmlpcQI9IJZ9FruPpQCv-84">
          <mxGeometry width="50" height="50" relative="1" as="geometry">
            <mxPoint y="10" as="sourcePoint" />
            <mxPoint x="10" y="20" as="targetPoint" />
          </mxGeometry>
        </mxCell>
        <mxCell id="OmlpcQI9IJZ9FruPpQCv-83" value="" style="endArrow=none;html=1;rounded=0;entryX=1;entryY=0.5;entryDx=0;entryDy=0;exitX=0;exitY=0;exitDx=0;exitDy=0;" edge="1" parent="OmlpcQI9IJZ9FruPpQCv-84" target="OmlpcQI9IJZ9FruPpQCv-68">
          <mxGeometry width="50" height="50" relative="1" as="geometry">
            <mxPoint x="110" as="sourcePoint" />
            <mxPoint x="130" y="20" as="targetPoint" />
          </mxGeometry>
        </mxCell>
        <mxCell id="OmlpcQI9IJZ9FruPpQCv-86" value="SINGLE" style="rounded=0;whiteSpace=wrap;html=1;" vertex="1" parent="1">
          <mxGeometry x="-800" y="460" width="80" height="20" as="geometry" />
        </mxCell>
        <mxCell id="OmlpcQI9IJZ9FruPpQCv-87" value="cr_state" style="text;html=1;align=right;verticalAlign=bottom;whiteSpace=wrap;rounded=0;" vertex="1" parent="1">
          <mxGeometry x="-1080" y="620" width="160" height="20" as="geometry" />
        </mxCell>
        <mxCell id="OmlpcQI9IJZ9FruPpQCv-88" value="S0" style="rounded=0;whiteSpace=wrap;html=1;" vertex="1" parent="1">
          <mxGeometry x="-920" y="620" width="200" height="20" as="geometry" />
        </mxCell>
        <mxCell id="OmlpcQI9IJZ9FruPpQCv-89" value="S1" style="rounded=0;whiteSpace=wrap;html=1;" vertex="1" parent="1">
          <mxGeometry x="-720" y="620" width="80" height="20" as="geometry" />
        </mxCell>
        <mxCell id="OmlpcQI9IJZ9FruPpQCv-90" value="" style="endArrow=none;html=1;rounded=0;" edge="1" parent="1">
          <mxGeometry width="50" height="50" relative="1" as="geometry">
            <mxPoint x="-920" y="520" as="sourcePoint" />
            <mxPoint x="-800" y="520" as="targetPoint" />
          </mxGeometry>
        </mxCell>
        <mxCell id="OmlpcQI9IJZ9FruPpQCv-91" value="HSEL" style="text;html=1;align=right;verticalAlign=bottom;whiteSpace=wrap;rounded=0;" vertex="1" parent="1">
          <mxGeometry x="-1080" y="500" width="160" height="20" as="geometry" />
        </mxCell>
        <mxCell id="OmlpcQI9IJZ9FruPpQCv-92" value="" style="endArrow=none;html=1;rounded=0;" edge="1" parent="1">
          <mxGeometry width="50" height="50" relative="1" as="geometry">
            <mxPoint x="-800" y="520" as="sourcePoint" />
            <mxPoint x="-800" y="500" as="targetPoint" />
          </mxGeometry>
        </mxCell>
        <mxCell id="OmlpcQI9IJZ9FruPpQCv-93" value="" style="endArrow=none;html=1;rounded=0;" edge="1" parent="1">
          <mxGeometry width="50" height="50" relative="1" as="geometry">
            <mxPoint x="-800" y="500" as="sourcePoint" />
            <mxPoint x="-720" y="500" as="targetPoint" />
          </mxGeometry>
        </mxCell>
        <mxCell id="OmlpcQI9IJZ9FruPpQCv-94" value="" style="endArrow=none;html=1;rounded=0;" edge="1" parent="1">
          <mxGeometry width="50" height="50" relative="1" as="geometry">
            <mxPoint x="-720" y="520" as="sourcePoint" />
            <mxPoint x="-720" y="500" as="targetPoint" />
          </mxGeometry>
        </mxCell>
        <mxCell id="OmlpcQI9IJZ9FruPpQCv-96" value="" style="group" vertex="1" connectable="0" parent="1">
          <mxGeometry x="-720" y="460" width="120" height="20" as="geometry" />
        </mxCell>
        <mxCell id="OmlpcQI9IJZ9FruPpQCv-97" value="" style="rounded=0;whiteSpace=wrap;html=1;" vertex="1" parent="OmlpcQI9IJZ9FruPpQCv-96">
          <mxGeometry width="120" height="20" as="geometry" />
        </mxCell>
        <mxCell id="OmlpcQI9IJZ9FruPpQCv-98" value="" style="endArrow=none;html=1;rounded=0;entryX=0.168;entryY=1.015;entryDx=0;entryDy=0;entryPerimeter=0;exitX=0;exitY=0;exitDx=0;exitDy=0;" edge="1" parent="OmlpcQI9IJZ9FruPpQCv-96" source="OmlpcQI9IJZ9FruPpQCv-97" target="OmlpcQI9IJZ9FruPpQCv-97">
          <mxGeometry width="50" height="50" relative="1" as="geometry">
            <mxPoint y="20" as="sourcePoint" />
            <mxPoint x="50" y="-30" as="targetPoint" />
          </mxGeometry>
        </mxCell>
        <mxCell id="OmlpcQI9IJZ9FruPpQCv-99" value="" style="endArrow=none;html=1;rounded=0;entryX=0.168;entryY=1.015;entryDx=0;entryDy=0;entryPerimeter=0;exitX=0;exitY=0;exitDx=0;exitDy=0;" edge="1" parent="OmlpcQI9IJZ9FruPpQCv-96">
          <mxGeometry width="50" height="50" relative="1" as="geometry">
            <mxPoint x="20" as="sourcePoint" />
            <mxPoint x="40" y="20" as="targetPoint" />
          </mxGeometry>
        </mxCell>
        <mxCell id="OmlpcQI9IJZ9FruPpQCv-100" value="" style="endArrow=none;html=1;rounded=0;entryX=0.168;entryY=1.015;entryDx=0;entryDy=0;entryPerimeter=0;exitX=0;exitY=0;exitDx=0;exitDy=0;" edge="1" parent="OmlpcQI9IJZ9FruPpQCv-96">
          <mxGeometry width="50" height="50" relative="1" as="geometry">
            <mxPoint x="40" as="sourcePoint" />
            <mxPoint x="60" y="20" as="targetPoint" />
          </mxGeometry>
        </mxCell>
        <mxCell id="OmlpcQI9IJZ9FruPpQCv-101" value="" style="endArrow=none;html=1;rounded=0;entryX=0.168;entryY=1.015;entryDx=0;entryDy=0;entryPerimeter=0;exitX=0;exitY=0;exitDx=0;exitDy=0;" edge="1" parent="OmlpcQI9IJZ9FruPpQCv-96">
          <mxGeometry width="50" height="50" relative="1" as="geometry">
            <mxPoint x="60" as="sourcePoint" />
            <mxPoint x="80" y="20" as="targetPoint" />
          </mxGeometry>
        </mxCell>
        <mxCell id="OmlpcQI9IJZ9FruPpQCv-102" value="" style="endArrow=none;html=1;rounded=0;entryX=0.168;entryY=1.015;entryDx=0;entryDy=0;entryPerimeter=0;exitX=0;exitY=0;exitDx=0;exitDy=0;" edge="1" parent="OmlpcQI9IJZ9FruPpQCv-96">
          <mxGeometry width="50" height="50" relative="1" as="geometry">
            <mxPoint x="80" as="sourcePoint" />
            <mxPoint x="100" y="20" as="targetPoint" />
          </mxGeometry>
        </mxCell>
        <mxCell id="OmlpcQI9IJZ9FruPpQCv-103" value="" style="endArrow=none;html=1;rounded=0;entryX=0.168;entryY=1.015;entryDx=0;entryDy=0;entryPerimeter=0;exitX=0;exitY=0;exitDx=0;exitDy=0;" edge="1" parent="OmlpcQI9IJZ9FruPpQCv-96">
          <mxGeometry width="50" height="50" relative="1" as="geometry">
            <mxPoint x="100" as="sourcePoint" />
            <mxPoint x="120" y="20" as="targetPoint" />
          </mxGeometry>
        </mxCell>
        <mxCell id="OmlpcQI9IJZ9FruPpQCv-104" value="" style="endArrow=none;html=1;rounded=0;entryX=0.168;entryY=1.015;entryDx=0;entryDy=0;entryPerimeter=0;exitX=0;exitY=0;exitDx=0;exitDy=0;" edge="1" parent="OmlpcQI9IJZ9FruPpQCv-96">
          <mxGeometry width="50" height="50" relative="1" as="geometry">
            <mxPoint x="10" as="sourcePoint" />
            <mxPoint x="30" y="20" as="targetPoint" />
          </mxGeometry>
        </mxCell>
        <mxCell id="OmlpcQI9IJZ9FruPpQCv-105" value="" style="endArrow=none;html=1;rounded=0;entryX=0.168;entryY=1.015;entryDx=0;entryDy=0;entryPerimeter=0;exitX=0;exitY=0;exitDx=0;exitDy=0;" edge="1" parent="OmlpcQI9IJZ9FruPpQCv-96">
          <mxGeometry width="50" height="50" relative="1" as="geometry">
            <mxPoint x="30" as="sourcePoint" />
            <mxPoint x="50" y="20" as="targetPoint" />
          </mxGeometry>
        </mxCell>
        <mxCell id="OmlpcQI9IJZ9FruPpQCv-106" value="" style="endArrow=none;html=1;rounded=0;entryX=0.168;entryY=1.015;entryDx=0;entryDy=0;entryPerimeter=0;exitX=0;exitY=0;exitDx=0;exitDy=0;" edge="1" parent="OmlpcQI9IJZ9FruPpQCv-96">
          <mxGeometry width="50" height="50" relative="1" as="geometry">
            <mxPoint x="50" as="sourcePoint" />
            <mxPoint x="70" y="20" as="targetPoint" />
          </mxGeometry>
        </mxCell>
        <mxCell id="OmlpcQI9IJZ9FruPpQCv-107" value="" style="endArrow=none;html=1;rounded=0;entryX=0.168;entryY=1.015;entryDx=0;entryDy=0;entryPerimeter=0;exitX=0;exitY=0;exitDx=0;exitDy=0;" edge="1" parent="OmlpcQI9IJZ9FruPpQCv-96">
          <mxGeometry width="50" height="50" relative="1" as="geometry">
            <mxPoint x="70" as="sourcePoint" />
            <mxPoint x="90" y="20" as="targetPoint" />
          </mxGeometry>
        </mxCell>
        <mxCell id="OmlpcQI9IJZ9FruPpQCv-108" value="" style="endArrow=none;html=1;rounded=0;entryX=0.168;entryY=1.015;entryDx=0;entryDy=0;entryPerimeter=0;exitX=0;exitY=0;exitDx=0;exitDy=0;" edge="1" parent="OmlpcQI9IJZ9FruPpQCv-96">
          <mxGeometry width="50" height="50" relative="1" as="geometry">
            <mxPoint x="90" as="sourcePoint" />
            <mxPoint x="110" y="20" as="targetPoint" />
          </mxGeometry>
        </mxCell>
        <mxCell id="OmlpcQI9IJZ9FruPpQCv-109" value="" style="endArrow=none;html=1;rounded=0;entryX=0.168;entryY=1.015;entryDx=0;entryDy=0;entryPerimeter=0;" edge="1" parent="OmlpcQI9IJZ9FruPpQCv-96">
          <mxGeometry width="50" height="50" relative="1" as="geometry">
            <mxPoint y="10" as="sourcePoint" />
            <mxPoint x="10" y="20" as="targetPoint" />
          </mxGeometry>
        </mxCell>
        <mxCell id="OmlpcQI9IJZ9FruPpQCv-110" value="" style="endArrow=none;html=1;rounded=0;entryX=1;entryY=0.5;entryDx=0;entryDy=0;exitX=0;exitY=0;exitDx=0;exitDy=0;" edge="1" parent="OmlpcQI9IJZ9FruPpQCv-96" target="OmlpcQI9IJZ9FruPpQCv-97">
          <mxGeometry width="50" height="50" relative="1" as="geometry">
            <mxPoint x="110" as="sourcePoint" />
            <mxPoint x="130" y="20" as="targetPoint" />
          </mxGeometry>
        </mxCell>
        <mxCell id="OmlpcQI9IJZ9FruPpQCv-111" value="" style="endArrow=none;html=1;rounded=0;" edge="1" parent="1">
          <mxGeometry width="50" height="50" relative="1" as="geometry">
            <mxPoint x="-720" y="520" as="sourcePoint" />
            <mxPoint x="-600" y="520" as="targetPoint" />
          </mxGeometry>
        </mxCell>
        <mxCell id="OmlpcQI9IJZ9FruPpQCv-112" value="HREADY" style="text;html=1;align=right;verticalAlign=bottom;whiteSpace=wrap;rounded=0;" vertex="1" parent="1">
          <mxGeometry x="-1080" y="540" width="160" height="20" as="geometry" />
        </mxCell>
        <mxCell id="OmlpcQI9IJZ9FruPpQCv-114" value="" style="group" vertex="1" connectable="0" parent="1">
          <mxGeometry x="-920" y="540" width="120" height="20" as="geometry" />
        </mxCell>
        <mxCell id="OmlpcQI9IJZ9FruPpQCv-115" value="" style="rounded=0;whiteSpace=wrap;html=1;" vertex="1" parent="OmlpcQI9IJZ9FruPpQCv-114">
          <mxGeometry width="120" height="20" as="geometry" />
        </mxCell>
        <mxCell id="OmlpcQI9IJZ9FruPpQCv-116" value="" style="endArrow=none;html=1;rounded=0;entryX=0.168;entryY=1.015;entryDx=0;entryDy=0;entryPerimeter=0;exitX=0;exitY=0;exitDx=0;exitDy=0;" edge="1" parent="OmlpcQI9IJZ9FruPpQCv-114" source="OmlpcQI9IJZ9FruPpQCv-115" target="OmlpcQI9IJZ9FruPpQCv-115">
          <mxGeometry width="50" height="50" relative="1" as="geometry">
            <mxPoint y="20" as="sourcePoint" />
            <mxPoint x="50" y="-30" as="targetPoint" />
          </mxGeometry>
        </mxCell>
        <mxCell id="OmlpcQI9IJZ9FruPpQCv-117" value="" style="endArrow=none;html=1;rounded=0;entryX=0.168;entryY=1.015;entryDx=0;entryDy=0;entryPerimeter=0;exitX=0;exitY=0;exitDx=0;exitDy=0;" edge="1" parent="OmlpcQI9IJZ9FruPpQCv-114">
          <mxGeometry width="50" height="50" relative="1" as="geometry">
            <mxPoint x="20" as="sourcePoint" />
            <mxPoint x="40" y="20" as="targetPoint" />
          </mxGeometry>
        </mxCell>
        <mxCell id="OmlpcQI9IJZ9FruPpQCv-118" value="" style="endArrow=none;html=1;rounded=0;entryX=0.168;entryY=1.015;entryDx=0;entryDy=0;entryPerimeter=0;exitX=0;exitY=0;exitDx=0;exitDy=0;" edge="1" parent="OmlpcQI9IJZ9FruPpQCv-114">
          <mxGeometry width="50" height="50" relative="1" as="geometry">
            <mxPoint x="40" as="sourcePoint" />
            <mxPoint x="60" y="20" as="targetPoint" />
          </mxGeometry>
        </mxCell>
        <mxCell id="OmlpcQI9IJZ9FruPpQCv-119" value="" style="endArrow=none;html=1;rounded=0;entryX=0.168;entryY=1.015;entryDx=0;entryDy=0;entryPerimeter=0;exitX=0;exitY=0;exitDx=0;exitDy=0;" edge="1" parent="OmlpcQI9IJZ9FruPpQCv-114">
          <mxGeometry width="50" height="50" relative="1" as="geometry">
            <mxPoint x="60" as="sourcePoint" />
            <mxPoint x="80" y="20" as="targetPoint" />
          </mxGeometry>
        </mxCell>
        <mxCell id="OmlpcQI9IJZ9FruPpQCv-120" value="" style="endArrow=none;html=1;rounded=0;entryX=0.168;entryY=1.015;entryDx=0;entryDy=0;entryPerimeter=0;exitX=0;exitY=0;exitDx=0;exitDy=0;" edge="1" parent="OmlpcQI9IJZ9FruPpQCv-114">
          <mxGeometry width="50" height="50" relative="1" as="geometry">
            <mxPoint x="80" as="sourcePoint" />
            <mxPoint x="100" y="20" as="targetPoint" />
          </mxGeometry>
        </mxCell>
        <mxCell id="OmlpcQI9IJZ9FruPpQCv-121" value="" style="endArrow=none;html=1;rounded=0;entryX=0.168;entryY=1.015;entryDx=0;entryDy=0;entryPerimeter=0;exitX=0;exitY=0;exitDx=0;exitDy=0;" edge="1" parent="OmlpcQI9IJZ9FruPpQCv-114">
          <mxGeometry width="50" height="50" relative="1" as="geometry">
            <mxPoint x="100" as="sourcePoint" />
            <mxPoint x="120" y="20" as="targetPoint" />
          </mxGeometry>
        </mxCell>
        <mxCell id="OmlpcQI9IJZ9FruPpQCv-122" value="" style="endArrow=none;html=1;rounded=0;entryX=0.168;entryY=1.015;entryDx=0;entryDy=0;entryPerimeter=0;exitX=0;exitY=0;exitDx=0;exitDy=0;" edge="1" parent="OmlpcQI9IJZ9FruPpQCv-114">
          <mxGeometry width="50" height="50" relative="1" as="geometry">
            <mxPoint x="10" as="sourcePoint" />
            <mxPoint x="30" y="20" as="targetPoint" />
          </mxGeometry>
        </mxCell>
        <mxCell id="OmlpcQI9IJZ9FruPpQCv-123" value="" style="endArrow=none;html=1;rounded=0;entryX=0.168;entryY=1.015;entryDx=0;entryDy=0;entryPerimeter=0;exitX=0;exitY=0;exitDx=0;exitDy=0;" edge="1" parent="OmlpcQI9IJZ9FruPpQCv-114">
          <mxGeometry width="50" height="50" relative="1" as="geometry">
            <mxPoint x="30" as="sourcePoint" />
            <mxPoint x="50" y="20" as="targetPoint" />
          </mxGeometry>
        </mxCell>
        <mxCell id="OmlpcQI9IJZ9FruPpQCv-124" value="" style="endArrow=none;html=1;rounded=0;entryX=0.168;entryY=1.015;entryDx=0;entryDy=0;entryPerimeter=0;exitX=0;exitY=0;exitDx=0;exitDy=0;" edge="1" parent="OmlpcQI9IJZ9FruPpQCv-114">
          <mxGeometry width="50" height="50" relative="1" as="geometry">
            <mxPoint x="50" as="sourcePoint" />
            <mxPoint x="70" y="20" as="targetPoint" />
          </mxGeometry>
        </mxCell>
        <mxCell id="OmlpcQI9IJZ9FruPpQCv-125" value="" style="endArrow=none;html=1;rounded=0;entryX=0.168;entryY=1.015;entryDx=0;entryDy=0;entryPerimeter=0;exitX=0;exitY=0;exitDx=0;exitDy=0;" edge="1" parent="OmlpcQI9IJZ9FruPpQCv-114">
          <mxGeometry width="50" height="50" relative="1" as="geometry">
            <mxPoint x="70" as="sourcePoint" />
            <mxPoint x="90" y="20" as="targetPoint" />
          </mxGeometry>
        </mxCell>
        <mxCell id="OmlpcQI9IJZ9FruPpQCv-126" value="" style="endArrow=none;html=1;rounded=0;entryX=0.168;entryY=1.015;entryDx=0;entryDy=0;entryPerimeter=0;exitX=0;exitY=0;exitDx=0;exitDy=0;" edge="1" parent="OmlpcQI9IJZ9FruPpQCv-114">
          <mxGeometry width="50" height="50" relative="1" as="geometry">
            <mxPoint x="90" as="sourcePoint" />
            <mxPoint x="110" y="20" as="targetPoint" />
          </mxGeometry>
        </mxCell>
        <mxCell id="OmlpcQI9IJZ9FruPpQCv-127" value="" style="endArrow=none;html=1;rounded=0;entryX=0.168;entryY=1.015;entryDx=0;entryDy=0;entryPerimeter=0;" edge="1" parent="OmlpcQI9IJZ9FruPpQCv-114">
          <mxGeometry width="50" height="50" relative="1" as="geometry">
            <mxPoint y="10" as="sourcePoint" />
            <mxPoint x="10" y="20" as="targetPoint" />
          </mxGeometry>
        </mxCell>
        <mxCell id="OmlpcQI9IJZ9FruPpQCv-128" value="" style="endArrow=none;html=1;rounded=0;entryX=1;entryY=0.5;entryDx=0;entryDy=0;exitX=0;exitY=0;exitDx=0;exitDy=0;" edge="1" parent="OmlpcQI9IJZ9FruPpQCv-114" target="OmlpcQI9IJZ9FruPpQCv-115">
          <mxGeometry width="50" height="50" relative="1" as="geometry">
            <mxPoint x="110" as="sourcePoint" />
            <mxPoint x="130" y="20" as="targetPoint" />
          </mxGeometry>
        </mxCell>
        <mxCell id="OmlpcQI9IJZ9FruPpQCv-130" value="" style="group" vertex="1" connectable="0" parent="1">
          <mxGeometry x="-920" y="380" width="120" height="20" as="geometry" />
        </mxCell>
        <mxCell id="OmlpcQI9IJZ9FruPpQCv-131" value="" style="rounded=0;whiteSpace=wrap;html=1;" vertex="1" parent="OmlpcQI9IJZ9FruPpQCv-130">
          <mxGeometry width="120" height="20" as="geometry" />
        </mxCell>
        <mxCell id="OmlpcQI9IJZ9FruPpQCv-132" value="" style="endArrow=none;html=1;rounded=0;entryX=0.168;entryY=1.015;entryDx=0;entryDy=0;entryPerimeter=0;exitX=0;exitY=0;exitDx=0;exitDy=0;" edge="1" parent="OmlpcQI9IJZ9FruPpQCv-130" source="OmlpcQI9IJZ9FruPpQCv-131" target="OmlpcQI9IJZ9FruPpQCv-131">
          <mxGeometry width="50" height="50" relative="1" as="geometry">
            <mxPoint y="20" as="sourcePoint" />
            <mxPoint x="50" y="-30" as="targetPoint" />
          </mxGeometry>
        </mxCell>
        <mxCell id="OmlpcQI9IJZ9FruPpQCv-133" value="" style="endArrow=none;html=1;rounded=0;entryX=0.168;entryY=1.015;entryDx=0;entryDy=0;entryPerimeter=0;exitX=0;exitY=0;exitDx=0;exitDy=0;" edge="1" parent="OmlpcQI9IJZ9FruPpQCv-130">
          <mxGeometry width="50" height="50" relative="1" as="geometry">
            <mxPoint x="20" as="sourcePoint" />
            <mxPoint x="40" y="20" as="targetPoint" />
          </mxGeometry>
        </mxCell>
        <mxCell id="OmlpcQI9IJZ9FruPpQCv-134" value="" style="endArrow=none;html=1;rounded=0;entryX=0.168;entryY=1.015;entryDx=0;entryDy=0;entryPerimeter=0;exitX=0;exitY=0;exitDx=0;exitDy=0;" edge="1" parent="OmlpcQI9IJZ9FruPpQCv-130">
          <mxGeometry width="50" height="50" relative="1" as="geometry">
            <mxPoint x="40" as="sourcePoint" />
            <mxPoint x="60" y="20" as="targetPoint" />
          </mxGeometry>
        </mxCell>
        <mxCell id="OmlpcQI9IJZ9FruPpQCv-135" value="" style="endArrow=none;html=1;rounded=0;entryX=0.168;entryY=1.015;entryDx=0;entryDy=0;entryPerimeter=0;exitX=0;exitY=0;exitDx=0;exitDy=0;" edge="1" parent="OmlpcQI9IJZ9FruPpQCv-130">
          <mxGeometry width="50" height="50" relative="1" as="geometry">
            <mxPoint x="60" as="sourcePoint" />
            <mxPoint x="80" y="20" as="targetPoint" />
          </mxGeometry>
        </mxCell>
        <mxCell id="OmlpcQI9IJZ9FruPpQCv-136" value="" style="endArrow=none;html=1;rounded=0;entryX=0.168;entryY=1.015;entryDx=0;entryDy=0;entryPerimeter=0;exitX=0;exitY=0;exitDx=0;exitDy=0;" edge="1" parent="OmlpcQI9IJZ9FruPpQCv-130">
          <mxGeometry width="50" height="50" relative="1" as="geometry">
            <mxPoint x="80" as="sourcePoint" />
            <mxPoint x="100" y="20" as="targetPoint" />
          </mxGeometry>
        </mxCell>
        <mxCell id="OmlpcQI9IJZ9FruPpQCv-137" value="" style="endArrow=none;html=1;rounded=0;entryX=0.168;entryY=1.015;entryDx=0;entryDy=0;entryPerimeter=0;exitX=0;exitY=0;exitDx=0;exitDy=0;" edge="1" parent="OmlpcQI9IJZ9FruPpQCv-130">
          <mxGeometry width="50" height="50" relative="1" as="geometry">
            <mxPoint x="100" as="sourcePoint" />
            <mxPoint x="120" y="20" as="targetPoint" />
          </mxGeometry>
        </mxCell>
        <mxCell id="OmlpcQI9IJZ9FruPpQCv-138" value="" style="endArrow=none;html=1;rounded=0;entryX=0.168;entryY=1.015;entryDx=0;entryDy=0;entryPerimeter=0;exitX=0;exitY=0;exitDx=0;exitDy=0;" edge="1" parent="OmlpcQI9IJZ9FruPpQCv-130">
          <mxGeometry width="50" height="50" relative="1" as="geometry">
            <mxPoint x="10" as="sourcePoint" />
            <mxPoint x="30" y="20" as="targetPoint" />
          </mxGeometry>
        </mxCell>
        <mxCell id="OmlpcQI9IJZ9FruPpQCv-139" value="" style="endArrow=none;html=1;rounded=0;entryX=0.168;entryY=1.015;entryDx=0;entryDy=0;entryPerimeter=0;exitX=0;exitY=0;exitDx=0;exitDy=0;" edge="1" parent="OmlpcQI9IJZ9FruPpQCv-130">
          <mxGeometry width="50" height="50" relative="1" as="geometry">
            <mxPoint x="30" as="sourcePoint" />
            <mxPoint x="50" y="20" as="targetPoint" />
          </mxGeometry>
        </mxCell>
        <mxCell id="OmlpcQI9IJZ9FruPpQCv-140" value="" style="endArrow=none;html=1;rounded=0;entryX=0.168;entryY=1.015;entryDx=0;entryDy=0;entryPerimeter=0;exitX=0;exitY=0;exitDx=0;exitDy=0;" edge="1" parent="OmlpcQI9IJZ9FruPpQCv-130">
          <mxGeometry width="50" height="50" relative="1" as="geometry">
            <mxPoint x="50" as="sourcePoint" />
            <mxPoint x="70" y="20" as="targetPoint" />
          </mxGeometry>
        </mxCell>
        <mxCell id="OmlpcQI9IJZ9FruPpQCv-141" value="" style="endArrow=none;html=1;rounded=0;entryX=0.168;entryY=1.015;entryDx=0;entryDy=0;entryPerimeter=0;exitX=0;exitY=0;exitDx=0;exitDy=0;" edge="1" parent="OmlpcQI9IJZ9FruPpQCv-130">
          <mxGeometry width="50" height="50" relative="1" as="geometry">
            <mxPoint x="70" as="sourcePoint" />
            <mxPoint x="90" y="20" as="targetPoint" />
          </mxGeometry>
        </mxCell>
        <mxCell id="OmlpcQI9IJZ9FruPpQCv-142" value="" style="endArrow=none;html=1;rounded=0;entryX=0.168;entryY=1.015;entryDx=0;entryDy=0;entryPerimeter=0;exitX=0;exitY=0;exitDx=0;exitDy=0;" edge="1" parent="OmlpcQI9IJZ9FruPpQCv-130">
          <mxGeometry width="50" height="50" relative="1" as="geometry">
            <mxPoint x="90" as="sourcePoint" />
            <mxPoint x="110" y="20" as="targetPoint" />
          </mxGeometry>
        </mxCell>
        <mxCell id="OmlpcQI9IJZ9FruPpQCv-143" value="" style="endArrow=none;html=1;rounded=0;entryX=0.168;entryY=1.015;entryDx=0;entryDy=0;entryPerimeter=0;" edge="1" parent="OmlpcQI9IJZ9FruPpQCv-130">
          <mxGeometry width="50" height="50" relative="1" as="geometry">
            <mxPoint y="10" as="sourcePoint" />
            <mxPoint x="10" y="20" as="targetPoint" />
          </mxGeometry>
        </mxCell>
        <mxCell id="OmlpcQI9IJZ9FruPpQCv-144" value="" style="endArrow=none;html=1;rounded=0;entryX=1;entryY=0.5;entryDx=0;entryDy=0;exitX=0;exitY=0;exitDx=0;exitDy=0;" edge="1" parent="OmlpcQI9IJZ9FruPpQCv-130" target="OmlpcQI9IJZ9FruPpQCv-131">
          <mxGeometry width="50" height="50" relative="1" as="geometry">
            <mxPoint x="110" as="sourcePoint" />
            <mxPoint x="130" y="20" as="targetPoint" />
          </mxGeometry>
        </mxCell>
        <mxCell id="OmlpcQI9IJZ9FruPpQCv-145" value="ADDR" style="rounded=0;whiteSpace=wrap;html=1;fillColor=#dae8fc;strokeColor=#6c8ebf;" vertex="1" parent="1">
          <mxGeometry x="-800" y="380" width="80" height="20" as="geometry" />
        </mxCell>
        <mxCell id="OmlpcQI9IJZ9FruPpQCv-146" value="DATA" style="rounded=0;whiteSpace=wrap;html=1;fillColor=#d5e8d4;strokeColor=#82b366;" vertex="1" parent="1">
          <mxGeometry x="-720" y="380" width="80" height="20" as="geometry" />
        </mxCell>
        <mxCell id="OmlpcQI9IJZ9FruPpQCv-168" value="" style="group" vertex="1" connectable="0" parent="1">
          <mxGeometry x="-640" y="380" width="40" height="20" as="geometry" />
        </mxCell>
        <mxCell id="OmlpcQI9IJZ9FruPpQCv-162" value="" style="rounded=0;whiteSpace=wrap;html=1;" vertex="1" parent="OmlpcQI9IJZ9FruPpQCv-168">
          <mxGeometry width="40" height="20" as="geometry" />
        </mxCell>
        <mxCell id="OmlpcQI9IJZ9FruPpQCv-163" value="" style="endArrow=none;html=1;rounded=0;entryX=0.5;entryY=1;entryDx=0;entryDy=0;" edge="1" parent="OmlpcQI9IJZ9FruPpQCv-168" target="OmlpcQI9IJZ9FruPpQCv-162">
          <mxGeometry width="50" height="50" relative="1" as="geometry">
            <mxPoint as="sourcePoint" />
            <mxPoint x="50" y="-50" as="targetPoint" />
          </mxGeometry>
        </mxCell>
        <mxCell id="OmlpcQI9IJZ9FruPpQCv-164" value="" style="endArrow=none;html=1;rounded=0;entryX=0.5;entryY=1;entryDx=0;entryDy=0;" edge="1" parent="OmlpcQI9IJZ9FruPpQCv-168">
          <mxGeometry width="50" height="50" relative="1" as="geometry">
            <mxPoint x="10" as="sourcePoint" />
            <mxPoint x="30" y="20" as="targetPoint" />
          </mxGeometry>
        </mxCell>
        <mxCell id="OmlpcQI9IJZ9FruPpQCv-165" value="" style="endArrow=none;html=1;rounded=0;entryX=0.5;entryY=1;entryDx=0;entryDy=0;" edge="1" parent="OmlpcQI9IJZ9FruPpQCv-168">
          <mxGeometry width="50" height="50" relative="1" as="geometry">
            <mxPoint x="20" as="sourcePoint" />
            <mxPoint x="40" y="20" as="targetPoint" />
          </mxGeometry>
        </mxCell>
        <mxCell id="OmlpcQI9IJZ9FruPpQCv-166" value="" style="endArrow=none;html=1;rounded=0;" edge="1" parent="OmlpcQI9IJZ9FruPpQCv-168">
          <mxGeometry width="50" height="50" relative="1" as="geometry">
            <mxPoint x="30" as="sourcePoint" />
            <mxPoint x="40" y="10" as="targetPoint" />
          </mxGeometry>
        </mxCell>
        <mxCell id="OmlpcQI9IJZ9FruPpQCv-167" value="" style="endArrow=none;html=1;rounded=0;" edge="1" parent="OmlpcQI9IJZ9FruPpQCv-168">
          <mxGeometry width="50" height="50" relative="1" as="geometry">
            <mxPoint y="10" as="sourcePoint" />
            <mxPoint x="10" y="20" as="targetPoint" />
          </mxGeometry>
        </mxCell>
        <mxCell id="OmlpcQI9IJZ9FruPpQCv-170" value="" style="endArrow=none;html=1;rounded=0;" edge="1" parent="1">
          <mxGeometry width="50" height="50" relative="1" as="geometry">
            <mxPoint x="-800" y="540" as="sourcePoint" />
            <mxPoint x="-600" y="540" as="targetPoint" />
          </mxGeometry>
        </mxCell>
        <mxCell id="OmlpcQI9IJZ9FruPpQCv-171" value="master_granted" style="text;html=1;align=right;verticalAlign=bottom;whiteSpace=wrap;rounded=0;" vertex="1" parent="1">
          <mxGeometry x="-1080" y="580" width="160" height="20" as="geometry" />
        </mxCell>
        <mxCell id="OmlpcQI9IJZ9FruPpQCv-172" value="" style="endArrow=none;html=1;rounded=0;" edge="1" parent="1">
          <mxGeometry width="50" height="50" relative="1" as="geometry">
            <mxPoint x="-920" y="600" as="sourcePoint" />
            <mxPoint x="-800" y="600" as="targetPoint" />
          </mxGeometry>
        </mxCell>
        <mxCell id="OmlpcQI9IJZ9FruPpQCv-173" value="" style="endArrow=none;html=1;rounded=0;" edge="1" parent="1">
          <mxGeometry width="50" height="50" relative="1" as="geometry">
            <mxPoint x="-800" y="600" as="sourcePoint" />
            <mxPoint x="-800" y="580" as="targetPoint" />
          </mxGeometry>
        </mxCell>
        <mxCell id="OmlpcQI9IJZ9FruPpQCv-174" value="" style="endArrow=none;html=1;rounded=0;" edge="1" parent="1">
          <mxGeometry width="50" height="50" relative="1" as="geometry">
            <mxPoint x="-800" y="580" as="sourcePoint" />
            <mxPoint x="-720" y="580" as="targetPoint" />
          </mxGeometry>
        </mxCell>
        <mxCell id="OmlpcQI9IJZ9FruPpQCv-175" value="" style="endArrow=none;html=1;rounded=0;" edge="1" parent="1">
          <mxGeometry width="50" height="50" relative="1" as="geometry">
            <mxPoint x="-720" y="600" as="sourcePoint" />
            <mxPoint x="-720" y="580" as="targetPoint" />
          </mxGeometry>
        </mxCell>
        <mxCell id="OmlpcQI9IJZ9FruPpQCv-176" value="" style="endArrow=none;html=1;rounded=0;" edge="1" parent="1">
          <mxGeometry width="50" height="50" relative="1" as="geometry">
            <mxPoint x="-720" y="600" as="sourcePoint" />
            <mxPoint x="-600" y="600" as="targetPoint" />
          </mxGeometry>
        </mxCell>
        <mxCell id="OmlpcQI9IJZ9FruPpQCv-178" value="" style="endArrow=none;html=1;rounded=0;" edge="1" parent="1">
          <mxGeometry width="50" height="50" relative="1" as="geometry">
            <mxPoint x="-920" y="780" as="sourcePoint" />
            <mxPoint x="-880" y="780" as="targetPoint" />
          </mxGeometry>
        </mxCell>
        <mxCell id="OmlpcQI9IJZ9FruPpQCv-179" value="" style="endArrow=classic;html=1;rounded=0;" edge="1" parent="1">
          <mxGeometry width="50" height="50" relative="1" as="geometry">
            <mxPoint x="-880" y="780" as="sourcePoint" />
            <mxPoint x="-880" y="760" as="targetPoint" />
          </mxGeometry>
        </mxCell>
        <mxCell id="OmlpcQI9IJZ9FruPpQCv-180" value="" style="endArrow=none;html=1;rounded=0;" edge="1" parent="1">
          <mxGeometry width="50" height="50" relative="1" as="geometry">
            <mxPoint x="-840" y="760" as="sourcePoint" />
            <mxPoint x="-840" y="780" as="targetPoint" />
          </mxGeometry>
        </mxCell>
        <mxCell id="OmlpcQI9IJZ9FruPpQCv-181" value="" style="endArrow=none;html=1;rounded=0;" edge="1" parent="1">
          <mxGeometry width="50" height="50" relative="1" as="geometry">
            <mxPoint x="-880" y="760" as="sourcePoint" />
            <mxPoint x="-840" y="760" as="targetPoint" />
          </mxGeometry>
        </mxCell>
        <mxCell id="OmlpcQI9IJZ9FruPpQCv-182" value="" style="endArrow=none;html=1;rounded=0;" edge="1" parent="1">
          <mxGeometry width="50" height="50" relative="1" as="geometry">
            <mxPoint x="-840" y="780" as="sourcePoint" />
            <mxPoint x="-800" y="780" as="targetPoint" />
          </mxGeometry>
        </mxCell>
        <mxCell id="OmlpcQI9IJZ9FruPpQCv-183" value="" style="endArrow=classic;html=1;rounded=0;" edge="1" parent="1">
          <mxGeometry width="50" height="50" relative="1" as="geometry">
            <mxPoint x="-800" y="780" as="sourcePoint" />
            <mxPoint x="-800" y="760" as="targetPoint" />
          </mxGeometry>
        </mxCell>
        <mxCell id="OmlpcQI9IJZ9FruPpQCv-184" value="" style="endArrow=none;html=1;rounded=0;" edge="1" parent="1">
          <mxGeometry width="50" height="50" relative="1" as="geometry">
            <mxPoint x="-760" y="760" as="sourcePoint" />
            <mxPoint x="-760" y="780" as="targetPoint" />
          </mxGeometry>
        </mxCell>
        <mxCell id="OmlpcQI9IJZ9FruPpQCv-185" value="" style="endArrow=none;html=1;rounded=0;" edge="1" parent="1">
          <mxGeometry width="50" height="50" relative="1" as="geometry">
            <mxPoint x="-800" y="760" as="sourcePoint" />
            <mxPoint x="-760" y="760" as="targetPoint" />
          </mxGeometry>
        </mxCell>
        <mxCell id="OmlpcQI9IJZ9FruPpQCv-186" value="" style="endArrow=none;html=1;rounded=0;" edge="1" parent="1">
          <mxGeometry width="50" height="50" relative="1" as="geometry">
            <mxPoint x="-760" y="780" as="sourcePoint" />
            <mxPoint x="-720" y="780" as="targetPoint" />
          </mxGeometry>
        </mxCell>
        <mxCell id="OmlpcQI9IJZ9FruPpQCv-187" value="" style="endArrow=classic;html=1;rounded=0;" edge="1" parent="1">
          <mxGeometry width="50" height="50" relative="1" as="geometry">
            <mxPoint x="-720" y="780" as="sourcePoint" />
            <mxPoint x="-720" y="760" as="targetPoint" />
          </mxGeometry>
        </mxCell>
        <mxCell id="OmlpcQI9IJZ9FruPpQCv-188" value="" style="endArrow=none;html=1;rounded=0;" edge="1" parent="1">
          <mxGeometry width="50" height="50" relative="1" as="geometry">
            <mxPoint x="-680" y="760" as="sourcePoint" />
            <mxPoint x="-680" y="780" as="targetPoint" />
          </mxGeometry>
        </mxCell>
        <mxCell id="OmlpcQI9IJZ9FruPpQCv-189" value="" style="endArrow=none;html=1;rounded=0;" edge="1" parent="1">
          <mxGeometry width="50" height="50" relative="1" as="geometry">
            <mxPoint x="-720" y="760" as="sourcePoint" />
            <mxPoint x="-680" y="760" as="targetPoint" />
          </mxGeometry>
        </mxCell>
        <mxCell id="OmlpcQI9IJZ9FruPpQCv-190" value="" style="endArrow=none;html=1;rounded=0;" edge="1" parent="1">
          <mxGeometry width="50" height="50" relative="1" as="geometry">
            <mxPoint x="-680" y="780" as="sourcePoint" />
            <mxPoint x="-640" y="780" as="targetPoint" />
          </mxGeometry>
        </mxCell>
        <mxCell id="OmlpcQI9IJZ9FruPpQCv-191" value="" style="endArrow=classic;html=1;rounded=0;" edge="1" parent="1">
          <mxGeometry width="50" height="50" relative="1" as="geometry">
            <mxPoint x="-640" y="780" as="sourcePoint" />
            <mxPoint x="-640" y="760" as="targetPoint" />
          </mxGeometry>
        </mxCell>
        <mxCell id="OmlpcQI9IJZ9FruPpQCv-192" value="" style="endArrow=none;html=1;rounded=0;" edge="1" parent="1">
          <mxGeometry width="50" height="50" relative="1" as="geometry">
            <mxPoint x="-600" y="760" as="sourcePoint" />
            <mxPoint x="-600" y="780" as="targetPoint" />
          </mxGeometry>
        </mxCell>
        <mxCell id="OmlpcQI9IJZ9FruPpQCv-193" value="" style="endArrow=none;html=1;rounded=0;" edge="1" parent="1">
          <mxGeometry width="50" height="50" relative="1" as="geometry">
            <mxPoint x="-640" y="760" as="sourcePoint" />
            <mxPoint x="-600" y="760" as="targetPoint" />
          </mxGeometry>
        </mxCell>
        <mxCell id="OmlpcQI9IJZ9FruPpQCv-194" value="" style="endArrow=none;html=1;rounded=0;" edge="1" parent="1">
          <mxGeometry width="50" height="50" relative="1" as="geometry">
            <mxPoint x="-600" y="780" as="sourcePoint" />
            <mxPoint x="-560" y="780" as="targetPoint" />
          </mxGeometry>
        </mxCell>
        <mxCell id="OmlpcQI9IJZ9FruPpQCv-195" value="" style="endArrow=classic;html=1;rounded=0;" edge="1" parent="1">
          <mxGeometry width="50" height="50" relative="1" as="geometry">
            <mxPoint x="-560" y="780" as="sourcePoint" />
            <mxPoint x="-560" y="760" as="targetPoint" />
          </mxGeometry>
        </mxCell>
        <mxCell id="OmlpcQI9IJZ9FruPpQCv-196" value="" style="endArrow=none;html=1;rounded=0;" edge="1" parent="1">
          <mxGeometry width="50" height="50" relative="1" as="geometry">
            <mxPoint x="-520" y="760" as="sourcePoint" />
            <mxPoint x="-520" y="780" as="targetPoint" />
          </mxGeometry>
        </mxCell>
        <mxCell id="OmlpcQI9IJZ9FruPpQCv-197" value="" style="endArrow=none;html=1;rounded=0;" edge="1" parent="1">
          <mxGeometry width="50" height="50" relative="1" as="geometry">
            <mxPoint x="-560" y="760" as="sourcePoint" />
            <mxPoint x="-520" y="760" as="targetPoint" />
          </mxGeometry>
        </mxCell>
        <mxCell id="OmlpcQI9IJZ9FruPpQCv-198" value="" style="endArrow=none;html=1;rounded=0;" edge="1" parent="1">
          <mxGeometry width="50" height="50" relative="1" as="geometry">
            <mxPoint x="-520" y="780" as="sourcePoint" />
            <mxPoint x="-480" y="780" as="targetPoint" />
          </mxGeometry>
        </mxCell>
        <mxCell id="OmlpcQI9IJZ9FruPpQCv-199" value="" style="endArrow=classic;html=1;rounded=0;" edge="1" parent="1">
          <mxGeometry width="50" height="50" relative="1" as="geometry">
            <mxPoint x="-480" y="780" as="sourcePoint" />
            <mxPoint x="-480" y="760" as="targetPoint" />
          </mxGeometry>
        </mxCell>
        <mxCell id="OmlpcQI9IJZ9FruPpQCv-200" value="" style="endArrow=none;html=1;rounded=0;" edge="1" parent="1">
          <mxGeometry width="50" height="50" relative="1" as="geometry">
            <mxPoint x="-440" y="760" as="sourcePoint" />
            <mxPoint x="-440" y="780" as="targetPoint" />
          </mxGeometry>
        </mxCell>
        <mxCell id="OmlpcQI9IJZ9FruPpQCv-201" value="" style="endArrow=none;html=1;rounded=0;" edge="1" parent="1">
          <mxGeometry width="50" height="50" relative="1" as="geometry">
            <mxPoint x="-480" y="760" as="sourcePoint" />
            <mxPoint x="-440" y="760" as="targetPoint" />
          </mxGeometry>
        </mxCell>
        <mxCell id="OmlpcQI9IJZ9FruPpQCv-202" value="" style="endArrow=none;html=1;rounded=0;" edge="1" parent="1">
          <mxGeometry width="50" height="50" relative="1" as="geometry">
            <mxPoint x="-440" y="780" as="sourcePoint" />
            <mxPoint x="-400" y="780" as="targetPoint" />
          </mxGeometry>
        </mxCell>
        <mxCell id="OmlpcQI9IJZ9FruPpQCv-203" value="" style="endArrow=classic;html=1;rounded=0;" edge="1" parent="1">
          <mxGeometry width="50" height="50" relative="1" as="geometry">
            <mxPoint x="-400" y="780" as="sourcePoint" />
            <mxPoint x="-400" y="760" as="targetPoint" />
          </mxGeometry>
        </mxCell>
        <mxCell id="OmlpcQI9IJZ9FruPpQCv-204" value="" style="endArrow=none;html=1;rounded=0;" edge="1" parent="1">
          <mxGeometry width="50" height="50" relative="1" as="geometry">
            <mxPoint x="-360" y="760" as="sourcePoint" />
            <mxPoint x="-360" y="780" as="targetPoint" />
          </mxGeometry>
        </mxCell>
        <mxCell id="OmlpcQI9IJZ9FruPpQCv-205" value="" style="endArrow=none;html=1;rounded=0;" edge="1" parent="1">
          <mxGeometry width="50" height="50" relative="1" as="geometry">
            <mxPoint x="-400" y="760" as="sourcePoint" />
            <mxPoint x="-360" y="760" as="targetPoint" />
          </mxGeometry>
        </mxCell>
        <mxCell id="OmlpcQI9IJZ9FruPpQCv-210" value="HCLK" style="text;html=1;align=right;verticalAlign=bottom;whiteSpace=wrap;rounded=0;" vertex="1" parent="1">
          <mxGeometry x="-1080" y="760" width="160" height="20" as="geometry" />
        </mxCell>
        <mxCell id="OmlpcQI9IJZ9FruPpQCv-211" value="bus_cmd" style="text;html=1;align=right;verticalAlign=bottom;whiteSpace=wrap;rounded=0;" vertex="1" parent="1">
          <mxGeometry x="-1080" y="800" width="160" height="20" as="geometry" />
        </mxCell>
        <mxCell id="OmlpcQI9IJZ9FruPpQCv-212" value="" style="group" vertex="1" connectable="0" parent="1">
          <mxGeometry x="-920" y="800" width="120" height="20" as="geometry" />
        </mxCell>
        <mxCell id="OmlpcQI9IJZ9FruPpQCv-213" value="" style="rounded=0;whiteSpace=wrap;html=1;" vertex="1" parent="OmlpcQI9IJZ9FruPpQCv-212">
          <mxGeometry width="120" height="20" as="geometry" />
        </mxCell>
        <mxCell id="OmlpcQI9IJZ9FruPpQCv-214" value="" style="endArrow=none;html=1;rounded=0;entryX=0.168;entryY=1.015;entryDx=0;entryDy=0;entryPerimeter=0;exitX=0;exitY=0;exitDx=0;exitDy=0;" edge="1" parent="OmlpcQI9IJZ9FruPpQCv-212" source="OmlpcQI9IJZ9FruPpQCv-213" target="OmlpcQI9IJZ9FruPpQCv-213">
          <mxGeometry width="50" height="50" relative="1" as="geometry">
            <mxPoint y="20" as="sourcePoint" />
            <mxPoint x="50" y="-30" as="targetPoint" />
          </mxGeometry>
        </mxCell>
        <mxCell id="OmlpcQI9IJZ9FruPpQCv-215" value="" style="endArrow=none;html=1;rounded=0;entryX=0.168;entryY=1.015;entryDx=0;entryDy=0;entryPerimeter=0;exitX=0;exitY=0;exitDx=0;exitDy=0;" edge="1" parent="OmlpcQI9IJZ9FruPpQCv-212">
          <mxGeometry width="50" height="50" relative="1" as="geometry">
            <mxPoint x="20" as="sourcePoint" />
            <mxPoint x="40" y="20" as="targetPoint" />
          </mxGeometry>
        </mxCell>
        <mxCell id="OmlpcQI9IJZ9FruPpQCv-216" value="" style="endArrow=none;html=1;rounded=0;entryX=0.168;entryY=1.015;entryDx=0;entryDy=0;entryPerimeter=0;exitX=0;exitY=0;exitDx=0;exitDy=0;" edge="1" parent="OmlpcQI9IJZ9FruPpQCv-212">
          <mxGeometry width="50" height="50" relative="1" as="geometry">
            <mxPoint x="40" as="sourcePoint" />
            <mxPoint x="60" y="20" as="targetPoint" />
          </mxGeometry>
        </mxCell>
        <mxCell id="OmlpcQI9IJZ9FruPpQCv-217" value="" style="endArrow=none;html=1;rounded=0;entryX=0.168;entryY=1.015;entryDx=0;entryDy=0;entryPerimeter=0;exitX=0;exitY=0;exitDx=0;exitDy=0;" edge="1" parent="OmlpcQI9IJZ9FruPpQCv-212">
          <mxGeometry width="50" height="50" relative="1" as="geometry">
            <mxPoint x="60" as="sourcePoint" />
            <mxPoint x="80" y="20" as="targetPoint" />
          </mxGeometry>
        </mxCell>
        <mxCell id="OmlpcQI9IJZ9FruPpQCv-218" value="" style="endArrow=none;html=1;rounded=0;entryX=0.168;entryY=1.015;entryDx=0;entryDy=0;entryPerimeter=0;exitX=0;exitY=0;exitDx=0;exitDy=0;" edge="1" parent="OmlpcQI9IJZ9FruPpQCv-212">
          <mxGeometry width="50" height="50" relative="1" as="geometry">
            <mxPoint x="80" as="sourcePoint" />
            <mxPoint x="100" y="20" as="targetPoint" />
          </mxGeometry>
        </mxCell>
        <mxCell id="OmlpcQI9IJZ9FruPpQCv-219" value="" style="endArrow=none;html=1;rounded=0;entryX=0.168;entryY=1.015;entryDx=0;entryDy=0;entryPerimeter=0;exitX=0;exitY=0;exitDx=0;exitDy=0;" edge="1" parent="OmlpcQI9IJZ9FruPpQCv-212">
          <mxGeometry width="50" height="50" relative="1" as="geometry">
            <mxPoint x="100" as="sourcePoint" />
            <mxPoint x="120" y="20" as="targetPoint" />
          </mxGeometry>
        </mxCell>
        <mxCell id="OmlpcQI9IJZ9FruPpQCv-220" value="" style="endArrow=none;html=1;rounded=0;entryX=0.168;entryY=1.015;entryDx=0;entryDy=0;entryPerimeter=0;exitX=0;exitY=0;exitDx=0;exitDy=0;" edge="1" parent="OmlpcQI9IJZ9FruPpQCv-212">
          <mxGeometry width="50" height="50" relative="1" as="geometry">
            <mxPoint x="10" as="sourcePoint" />
            <mxPoint x="30" y="20" as="targetPoint" />
          </mxGeometry>
        </mxCell>
        <mxCell id="OmlpcQI9IJZ9FruPpQCv-221" value="" style="endArrow=none;html=1;rounded=0;entryX=0.168;entryY=1.015;entryDx=0;entryDy=0;entryPerimeter=0;exitX=0;exitY=0;exitDx=0;exitDy=0;" edge="1" parent="OmlpcQI9IJZ9FruPpQCv-212">
          <mxGeometry width="50" height="50" relative="1" as="geometry">
            <mxPoint x="30" as="sourcePoint" />
            <mxPoint x="50" y="20" as="targetPoint" />
          </mxGeometry>
        </mxCell>
        <mxCell id="OmlpcQI9IJZ9FruPpQCv-222" value="" style="endArrow=none;html=1;rounded=0;entryX=0.168;entryY=1.015;entryDx=0;entryDy=0;entryPerimeter=0;exitX=0;exitY=0;exitDx=0;exitDy=0;" edge="1" parent="OmlpcQI9IJZ9FruPpQCv-212">
          <mxGeometry width="50" height="50" relative="1" as="geometry">
            <mxPoint x="50" as="sourcePoint" />
            <mxPoint x="70" y="20" as="targetPoint" />
          </mxGeometry>
        </mxCell>
        <mxCell id="OmlpcQI9IJZ9FruPpQCv-223" value="" style="endArrow=none;html=1;rounded=0;entryX=0.168;entryY=1.015;entryDx=0;entryDy=0;entryPerimeter=0;exitX=0;exitY=0;exitDx=0;exitDy=0;" edge="1" parent="OmlpcQI9IJZ9FruPpQCv-212">
          <mxGeometry width="50" height="50" relative="1" as="geometry">
            <mxPoint x="70" as="sourcePoint" />
            <mxPoint x="90" y="20" as="targetPoint" />
          </mxGeometry>
        </mxCell>
        <mxCell id="OmlpcQI9IJZ9FruPpQCv-224" value="" style="endArrow=none;html=1;rounded=0;entryX=0.168;entryY=1.015;entryDx=0;entryDy=0;entryPerimeter=0;exitX=0;exitY=0;exitDx=0;exitDy=0;" edge="1" parent="OmlpcQI9IJZ9FruPpQCv-212">
          <mxGeometry width="50" height="50" relative="1" as="geometry">
            <mxPoint x="90" as="sourcePoint" />
            <mxPoint x="110" y="20" as="targetPoint" />
          </mxGeometry>
        </mxCell>
        <mxCell id="OmlpcQI9IJZ9FruPpQCv-225" value="" style="endArrow=none;html=1;rounded=0;entryX=0.168;entryY=1.015;entryDx=0;entryDy=0;entryPerimeter=0;" edge="1" parent="OmlpcQI9IJZ9FruPpQCv-212">
          <mxGeometry width="50" height="50" relative="1" as="geometry">
            <mxPoint y="10" as="sourcePoint" />
            <mxPoint x="10" y="20" as="targetPoint" />
          </mxGeometry>
        </mxCell>
        <mxCell id="OmlpcQI9IJZ9FruPpQCv-226" value="" style="endArrow=none;html=1;rounded=0;entryX=1;entryY=0.5;entryDx=0;entryDy=0;exitX=0;exitY=0;exitDx=0;exitDy=0;" edge="1" parent="OmlpcQI9IJZ9FruPpQCv-212" target="OmlpcQI9IJZ9FruPpQCv-213">
          <mxGeometry width="50" height="50" relative="1" as="geometry">
            <mxPoint x="110" as="sourcePoint" />
            <mxPoint x="130" y="20" as="targetPoint" />
          </mxGeometry>
        </mxCell>
        <mxCell id="OmlpcQI9IJZ9FruPpQCv-227" value="WORD-INCR4" style="rounded=0;whiteSpace=wrap;html=1;" vertex="1" parent="1">
          <mxGeometry x="-800" y="800" width="320" height="20" as="geometry" />
        </mxCell>
        <mxCell id="OmlpcQI9IJZ9FruPpQCv-228" value="cr_state" style="text;html=1;align=right;verticalAlign=bottom;whiteSpace=wrap;rounded=0;" vertex="1" parent="1">
          <mxGeometry x="-1080" y="960" width="160" height="20" as="geometry" />
        </mxCell>
        <mxCell id="OmlpcQI9IJZ9FruPpQCv-229" value="S0" style="rounded=0;whiteSpace=wrap;html=1;" vertex="1" parent="1">
          <mxGeometry x="-920" y="960" width="200" height="20" as="geometry" />
        </mxCell>
        <mxCell id="OmlpcQI9IJZ9FruPpQCv-230" value="S1" style="rounded=0;whiteSpace=wrap;html=1;" vertex="1" parent="1">
          <mxGeometry x="-720" y="960" width="320" height="20" as="geometry" />
        </mxCell>
        <mxCell id="OmlpcQI9IJZ9FruPpQCv-231" value="" style="endArrow=none;html=1;rounded=0;" edge="1" parent="1">
          <mxGeometry width="50" height="50" relative="1" as="geometry">
            <mxPoint x="-920" y="860" as="sourcePoint" />
            <mxPoint x="-800" y="860" as="targetPoint" />
          </mxGeometry>
        </mxCell>
        <mxCell id="OmlpcQI9IJZ9FruPpQCv-232" value="HSEL" style="text;html=1;align=right;verticalAlign=bottom;whiteSpace=wrap;rounded=0;" vertex="1" parent="1">
          <mxGeometry x="-1080" y="840" width="160" height="20" as="geometry" />
        </mxCell>
        <mxCell id="OmlpcQI9IJZ9FruPpQCv-233" value="" style="endArrow=none;html=1;rounded=0;" edge="1" parent="1">
          <mxGeometry width="50" height="50" relative="1" as="geometry">
            <mxPoint x="-800" y="860" as="sourcePoint" />
            <mxPoint x="-800" y="840" as="targetPoint" />
          </mxGeometry>
        </mxCell>
        <mxCell id="OmlpcQI9IJZ9FruPpQCv-234" value="" style="endArrow=none;html=1;rounded=0;" edge="1" parent="1">
          <mxGeometry width="50" height="50" relative="1" as="geometry">
            <mxPoint x="-800" y="840" as="sourcePoint" />
            <mxPoint x="-480" y="840" as="targetPoint" />
          </mxGeometry>
        </mxCell>
        <mxCell id="OmlpcQI9IJZ9FruPpQCv-252" value="HREADY" style="text;html=1;align=right;verticalAlign=bottom;whiteSpace=wrap;rounded=0;" vertex="1" parent="1">
          <mxGeometry x="-1080" y="880" width="160" height="20" as="geometry" />
        </mxCell>
        <mxCell id="OmlpcQI9IJZ9FruPpQCv-253" value="" style="group" vertex="1" connectable="0" parent="1">
          <mxGeometry x="-920" y="880" width="120" height="20" as="geometry" />
        </mxCell>
        <mxCell id="OmlpcQI9IJZ9FruPpQCv-254" value="" style="rounded=0;whiteSpace=wrap;html=1;" vertex="1" parent="OmlpcQI9IJZ9FruPpQCv-253">
          <mxGeometry width="120" height="20" as="geometry" />
        </mxCell>
        <mxCell id="OmlpcQI9IJZ9FruPpQCv-255" value="" style="endArrow=none;html=1;rounded=0;entryX=0.168;entryY=1.015;entryDx=0;entryDy=0;entryPerimeter=0;exitX=0;exitY=0;exitDx=0;exitDy=0;" edge="1" parent="OmlpcQI9IJZ9FruPpQCv-253" source="OmlpcQI9IJZ9FruPpQCv-254" target="OmlpcQI9IJZ9FruPpQCv-254">
          <mxGeometry width="50" height="50" relative="1" as="geometry">
            <mxPoint y="20" as="sourcePoint" />
            <mxPoint x="50" y="-30" as="targetPoint" />
          </mxGeometry>
        </mxCell>
        <mxCell id="OmlpcQI9IJZ9FruPpQCv-256" value="" style="endArrow=none;html=1;rounded=0;entryX=0.168;entryY=1.015;entryDx=0;entryDy=0;entryPerimeter=0;exitX=0;exitY=0;exitDx=0;exitDy=0;" edge="1" parent="OmlpcQI9IJZ9FruPpQCv-253">
          <mxGeometry width="50" height="50" relative="1" as="geometry">
            <mxPoint x="20" as="sourcePoint" />
            <mxPoint x="40" y="20" as="targetPoint" />
          </mxGeometry>
        </mxCell>
        <mxCell id="OmlpcQI9IJZ9FruPpQCv-257" value="" style="endArrow=none;html=1;rounded=0;entryX=0.168;entryY=1.015;entryDx=0;entryDy=0;entryPerimeter=0;exitX=0;exitY=0;exitDx=0;exitDy=0;" edge="1" parent="OmlpcQI9IJZ9FruPpQCv-253">
          <mxGeometry width="50" height="50" relative="1" as="geometry">
            <mxPoint x="40" as="sourcePoint" />
            <mxPoint x="60" y="20" as="targetPoint" />
          </mxGeometry>
        </mxCell>
        <mxCell id="OmlpcQI9IJZ9FruPpQCv-258" value="" style="endArrow=none;html=1;rounded=0;entryX=0.168;entryY=1.015;entryDx=0;entryDy=0;entryPerimeter=0;exitX=0;exitY=0;exitDx=0;exitDy=0;" edge="1" parent="OmlpcQI9IJZ9FruPpQCv-253">
          <mxGeometry width="50" height="50" relative="1" as="geometry">
            <mxPoint x="60" as="sourcePoint" />
            <mxPoint x="80" y="20" as="targetPoint" />
          </mxGeometry>
        </mxCell>
        <mxCell id="OmlpcQI9IJZ9FruPpQCv-259" value="" style="endArrow=none;html=1;rounded=0;entryX=0.168;entryY=1.015;entryDx=0;entryDy=0;entryPerimeter=0;exitX=0;exitY=0;exitDx=0;exitDy=0;" edge="1" parent="OmlpcQI9IJZ9FruPpQCv-253">
          <mxGeometry width="50" height="50" relative="1" as="geometry">
            <mxPoint x="80" as="sourcePoint" />
            <mxPoint x="100" y="20" as="targetPoint" />
          </mxGeometry>
        </mxCell>
        <mxCell id="OmlpcQI9IJZ9FruPpQCv-260" value="" style="endArrow=none;html=1;rounded=0;entryX=0.168;entryY=1.015;entryDx=0;entryDy=0;entryPerimeter=0;exitX=0;exitY=0;exitDx=0;exitDy=0;" edge="1" parent="OmlpcQI9IJZ9FruPpQCv-253">
          <mxGeometry width="50" height="50" relative="1" as="geometry">
            <mxPoint x="100" as="sourcePoint" />
            <mxPoint x="120" y="20" as="targetPoint" />
          </mxGeometry>
        </mxCell>
        <mxCell id="OmlpcQI9IJZ9FruPpQCv-261" value="" style="endArrow=none;html=1;rounded=0;entryX=0.168;entryY=1.015;entryDx=0;entryDy=0;entryPerimeter=0;exitX=0;exitY=0;exitDx=0;exitDy=0;" edge="1" parent="OmlpcQI9IJZ9FruPpQCv-253">
          <mxGeometry width="50" height="50" relative="1" as="geometry">
            <mxPoint x="10" as="sourcePoint" />
            <mxPoint x="30" y="20" as="targetPoint" />
          </mxGeometry>
        </mxCell>
        <mxCell id="OmlpcQI9IJZ9FruPpQCv-262" value="" style="endArrow=none;html=1;rounded=0;entryX=0.168;entryY=1.015;entryDx=0;entryDy=0;entryPerimeter=0;exitX=0;exitY=0;exitDx=0;exitDy=0;" edge="1" parent="OmlpcQI9IJZ9FruPpQCv-253">
          <mxGeometry width="50" height="50" relative="1" as="geometry">
            <mxPoint x="30" as="sourcePoint" />
            <mxPoint x="50" y="20" as="targetPoint" />
          </mxGeometry>
        </mxCell>
        <mxCell id="OmlpcQI9IJZ9FruPpQCv-263" value="" style="endArrow=none;html=1;rounded=0;entryX=0.168;entryY=1.015;entryDx=0;entryDy=0;entryPerimeter=0;exitX=0;exitY=0;exitDx=0;exitDy=0;" edge="1" parent="OmlpcQI9IJZ9FruPpQCv-253">
          <mxGeometry width="50" height="50" relative="1" as="geometry">
            <mxPoint x="50" as="sourcePoint" />
            <mxPoint x="70" y="20" as="targetPoint" />
          </mxGeometry>
        </mxCell>
        <mxCell id="OmlpcQI9IJZ9FruPpQCv-264" value="" style="endArrow=none;html=1;rounded=0;entryX=0.168;entryY=1.015;entryDx=0;entryDy=0;entryPerimeter=0;exitX=0;exitY=0;exitDx=0;exitDy=0;" edge="1" parent="OmlpcQI9IJZ9FruPpQCv-253">
          <mxGeometry width="50" height="50" relative="1" as="geometry">
            <mxPoint x="70" as="sourcePoint" />
            <mxPoint x="90" y="20" as="targetPoint" />
          </mxGeometry>
        </mxCell>
        <mxCell id="OmlpcQI9IJZ9FruPpQCv-265" value="" style="endArrow=none;html=1;rounded=0;entryX=0.168;entryY=1.015;entryDx=0;entryDy=0;entryPerimeter=0;exitX=0;exitY=0;exitDx=0;exitDy=0;" edge="1" parent="OmlpcQI9IJZ9FruPpQCv-253">
          <mxGeometry width="50" height="50" relative="1" as="geometry">
            <mxPoint x="90" as="sourcePoint" />
            <mxPoint x="110" y="20" as="targetPoint" />
          </mxGeometry>
        </mxCell>
        <mxCell id="OmlpcQI9IJZ9FruPpQCv-266" value="" style="endArrow=none;html=1;rounded=0;entryX=0.168;entryY=1.015;entryDx=0;entryDy=0;entryPerimeter=0;" edge="1" parent="OmlpcQI9IJZ9FruPpQCv-253">
          <mxGeometry width="50" height="50" relative="1" as="geometry">
            <mxPoint y="10" as="sourcePoint" />
            <mxPoint x="10" y="20" as="targetPoint" />
          </mxGeometry>
        </mxCell>
        <mxCell id="OmlpcQI9IJZ9FruPpQCv-267" value="" style="endArrow=none;html=1;rounded=0;entryX=1;entryY=0.5;entryDx=0;entryDy=0;exitX=0;exitY=0;exitDx=0;exitDy=0;" edge="1" parent="OmlpcQI9IJZ9FruPpQCv-253" target="OmlpcQI9IJZ9FruPpQCv-254">
          <mxGeometry width="50" height="50" relative="1" as="geometry">
            <mxPoint x="110" as="sourcePoint" />
            <mxPoint x="130" y="20" as="targetPoint" />
          </mxGeometry>
        </mxCell>
        <mxCell id="OmlpcQI9IJZ9FruPpQCv-268" value="" style="group" vertex="1" connectable="0" parent="1">
          <mxGeometry x="-920" y="720" width="120" height="20" as="geometry" />
        </mxCell>
        <mxCell id="OmlpcQI9IJZ9FruPpQCv-269" value="" style="rounded=0;whiteSpace=wrap;html=1;" vertex="1" parent="OmlpcQI9IJZ9FruPpQCv-268">
          <mxGeometry width="120" height="20" as="geometry" />
        </mxCell>
        <mxCell id="OmlpcQI9IJZ9FruPpQCv-270" value="" style="endArrow=none;html=1;rounded=0;entryX=0.168;entryY=1.015;entryDx=0;entryDy=0;entryPerimeter=0;exitX=0;exitY=0;exitDx=0;exitDy=0;" edge="1" parent="OmlpcQI9IJZ9FruPpQCv-268" source="OmlpcQI9IJZ9FruPpQCv-269" target="OmlpcQI9IJZ9FruPpQCv-269">
          <mxGeometry width="50" height="50" relative="1" as="geometry">
            <mxPoint y="20" as="sourcePoint" />
            <mxPoint x="50" y="-30" as="targetPoint" />
          </mxGeometry>
        </mxCell>
        <mxCell id="OmlpcQI9IJZ9FruPpQCv-271" value="" style="endArrow=none;html=1;rounded=0;entryX=0.168;entryY=1.015;entryDx=0;entryDy=0;entryPerimeter=0;exitX=0;exitY=0;exitDx=0;exitDy=0;" edge="1" parent="OmlpcQI9IJZ9FruPpQCv-268">
          <mxGeometry width="50" height="50" relative="1" as="geometry">
            <mxPoint x="20" as="sourcePoint" />
            <mxPoint x="40" y="20" as="targetPoint" />
          </mxGeometry>
        </mxCell>
        <mxCell id="OmlpcQI9IJZ9FruPpQCv-272" value="" style="endArrow=none;html=1;rounded=0;entryX=0.168;entryY=1.015;entryDx=0;entryDy=0;entryPerimeter=0;exitX=0;exitY=0;exitDx=0;exitDy=0;" edge="1" parent="OmlpcQI9IJZ9FruPpQCv-268">
          <mxGeometry width="50" height="50" relative="1" as="geometry">
            <mxPoint x="40" as="sourcePoint" />
            <mxPoint x="60" y="20" as="targetPoint" />
          </mxGeometry>
        </mxCell>
        <mxCell id="OmlpcQI9IJZ9FruPpQCv-273" value="" style="endArrow=none;html=1;rounded=0;entryX=0.168;entryY=1.015;entryDx=0;entryDy=0;entryPerimeter=0;exitX=0;exitY=0;exitDx=0;exitDy=0;" edge="1" parent="OmlpcQI9IJZ9FruPpQCv-268">
          <mxGeometry width="50" height="50" relative="1" as="geometry">
            <mxPoint x="60" as="sourcePoint" />
            <mxPoint x="80" y="20" as="targetPoint" />
          </mxGeometry>
        </mxCell>
        <mxCell id="OmlpcQI9IJZ9FruPpQCv-274" value="" style="endArrow=none;html=1;rounded=0;entryX=0.168;entryY=1.015;entryDx=0;entryDy=0;entryPerimeter=0;exitX=0;exitY=0;exitDx=0;exitDy=0;" edge="1" parent="OmlpcQI9IJZ9FruPpQCv-268">
          <mxGeometry width="50" height="50" relative="1" as="geometry">
            <mxPoint x="80" as="sourcePoint" />
            <mxPoint x="100" y="20" as="targetPoint" />
          </mxGeometry>
        </mxCell>
        <mxCell id="OmlpcQI9IJZ9FruPpQCv-275" value="" style="endArrow=none;html=1;rounded=0;entryX=0.168;entryY=1.015;entryDx=0;entryDy=0;entryPerimeter=0;exitX=0;exitY=0;exitDx=0;exitDy=0;" edge="1" parent="OmlpcQI9IJZ9FruPpQCv-268">
          <mxGeometry width="50" height="50" relative="1" as="geometry">
            <mxPoint x="100" as="sourcePoint" />
            <mxPoint x="120" y="20" as="targetPoint" />
          </mxGeometry>
        </mxCell>
        <mxCell id="OmlpcQI9IJZ9FruPpQCv-276" value="" style="endArrow=none;html=1;rounded=0;entryX=0.168;entryY=1.015;entryDx=0;entryDy=0;entryPerimeter=0;exitX=0;exitY=0;exitDx=0;exitDy=0;" edge="1" parent="OmlpcQI9IJZ9FruPpQCv-268">
          <mxGeometry width="50" height="50" relative="1" as="geometry">
            <mxPoint x="10" as="sourcePoint" />
            <mxPoint x="30" y="20" as="targetPoint" />
          </mxGeometry>
        </mxCell>
        <mxCell id="OmlpcQI9IJZ9FruPpQCv-277" value="" style="endArrow=none;html=1;rounded=0;entryX=0.168;entryY=1.015;entryDx=0;entryDy=0;entryPerimeter=0;exitX=0;exitY=0;exitDx=0;exitDy=0;" edge="1" parent="OmlpcQI9IJZ9FruPpQCv-268">
          <mxGeometry width="50" height="50" relative="1" as="geometry">
            <mxPoint x="30" as="sourcePoint" />
            <mxPoint x="50" y="20" as="targetPoint" />
          </mxGeometry>
        </mxCell>
        <mxCell id="OmlpcQI9IJZ9FruPpQCv-278" value="" style="endArrow=none;html=1;rounded=0;entryX=0.168;entryY=1.015;entryDx=0;entryDy=0;entryPerimeter=0;exitX=0;exitY=0;exitDx=0;exitDy=0;" edge="1" parent="OmlpcQI9IJZ9FruPpQCv-268">
          <mxGeometry width="50" height="50" relative="1" as="geometry">
            <mxPoint x="50" as="sourcePoint" />
            <mxPoint x="70" y="20" as="targetPoint" />
          </mxGeometry>
        </mxCell>
        <mxCell id="OmlpcQI9IJZ9FruPpQCv-279" value="" style="endArrow=none;html=1;rounded=0;entryX=0.168;entryY=1.015;entryDx=0;entryDy=0;entryPerimeter=0;exitX=0;exitY=0;exitDx=0;exitDy=0;" edge="1" parent="OmlpcQI9IJZ9FruPpQCv-268">
          <mxGeometry width="50" height="50" relative="1" as="geometry">
            <mxPoint x="70" as="sourcePoint" />
            <mxPoint x="90" y="20" as="targetPoint" />
          </mxGeometry>
        </mxCell>
        <mxCell id="OmlpcQI9IJZ9FruPpQCv-280" value="" style="endArrow=none;html=1;rounded=0;entryX=0.168;entryY=1.015;entryDx=0;entryDy=0;entryPerimeter=0;exitX=0;exitY=0;exitDx=0;exitDy=0;" edge="1" parent="OmlpcQI9IJZ9FruPpQCv-268">
          <mxGeometry width="50" height="50" relative="1" as="geometry">
            <mxPoint x="90" as="sourcePoint" />
            <mxPoint x="110" y="20" as="targetPoint" />
          </mxGeometry>
        </mxCell>
        <mxCell id="OmlpcQI9IJZ9FruPpQCv-281" value="" style="endArrow=none;html=1;rounded=0;entryX=0.168;entryY=1.015;entryDx=0;entryDy=0;entryPerimeter=0;" edge="1" parent="OmlpcQI9IJZ9FruPpQCv-268">
          <mxGeometry width="50" height="50" relative="1" as="geometry">
            <mxPoint y="10" as="sourcePoint" />
            <mxPoint x="10" y="20" as="targetPoint" />
          </mxGeometry>
        </mxCell>
        <mxCell id="OmlpcQI9IJZ9FruPpQCv-282" value="" style="endArrow=none;html=1;rounded=0;entryX=1;entryY=0.5;entryDx=0;entryDy=0;exitX=0;exitY=0;exitDx=0;exitDy=0;" edge="1" parent="OmlpcQI9IJZ9FruPpQCv-268" target="OmlpcQI9IJZ9FruPpQCv-269">
          <mxGeometry width="50" height="50" relative="1" as="geometry">
            <mxPoint x="110" as="sourcePoint" />
            <mxPoint x="130" y="20" as="targetPoint" />
          </mxGeometry>
        </mxCell>
        <mxCell id="OmlpcQI9IJZ9FruPpQCv-283" value="ADDR" style="rounded=0;whiteSpace=wrap;html=1;fillColor=#dae8fc;strokeColor=#6c8ebf;" vertex="1" parent="1">
          <mxGeometry x="-800" y="720" width="80" height="20" as="geometry" />
        </mxCell>
        <mxCell id="OmlpcQI9IJZ9FruPpQCv-284" value="DT-ADDR" style="rounded=0;whiteSpace=wrap;html=1;fillColor=#e1d5e7;strokeColor=#9673a6;" vertex="1" parent="1">
          <mxGeometry x="-720" y="720" width="80" height="20" as="geometry" />
        </mxCell>
        <mxCell id="OmlpcQI9IJZ9FruPpQCv-292" value="" style="endArrow=none;html=1;rounded=0;" edge="1" parent="1">
          <mxGeometry width="50" height="50" relative="1" as="geometry">
            <mxPoint x="-800" y="880" as="sourcePoint" />
            <mxPoint x="-360" y="880" as="targetPoint" />
          </mxGeometry>
        </mxCell>
        <mxCell id="OmlpcQI9IJZ9FruPpQCv-293" value="master_granted" style="text;html=1;align=right;verticalAlign=bottom;whiteSpace=wrap;rounded=0;" vertex="1" parent="1">
          <mxGeometry x="-1080" y="920" width="160" height="20" as="geometry" />
        </mxCell>
        <mxCell id="OmlpcQI9IJZ9FruPpQCv-294" value="" style="endArrow=none;html=1;rounded=0;" edge="1" parent="1">
          <mxGeometry width="50" height="50" relative="1" as="geometry">
            <mxPoint x="-920" y="940" as="sourcePoint" />
            <mxPoint x="-800" y="940" as="targetPoint" />
          </mxGeometry>
        </mxCell>
        <mxCell id="OmlpcQI9IJZ9FruPpQCv-295" value="" style="endArrow=none;html=1;rounded=0;" edge="1" parent="1">
          <mxGeometry width="50" height="50" relative="1" as="geometry">
            <mxPoint x="-800" y="940" as="sourcePoint" />
            <mxPoint x="-800" y="920" as="targetPoint" />
          </mxGeometry>
        </mxCell>
        <mxCell id="OmlpcQI9IJZ9FruPpQCv-296" value="" style="endArrow=none;html=1;rounded=0;" edge="1" parent="1">
          <mxGeometry width="50" height="50" relative="1" as="geometry">
            <mxPoint x="-800" y="920" as="sourcePoint" />
            <mxPoint x="-480" y="920" as="targetPoint" />
          </mxGeometry>
        </mxCell>
        <mxCell id="OmlpcQI9IJZ9FruPpQCv-297" value="" style="endArrow=none;html=1;rounded=0;" edge="1" parent="1">
          <mxGeometry width="50" height="50" relative="1" as="geometry">
            <mxPoint x="-480" y="940" as="sourcePoint" />
            <mxPoint x="-480" y="920" as="targetPoint" />
          </mxGeometry>
        </mxCell>
        <mxCell id="OmlpcQI9IJZ9FruPpQCv-298" value="" style="endArrow=none;html=1;rounded=0;" edge="1" parent="1">
          <mxGeometry width="50" height="50" relative="1" as="geometry">
            <mxPoint x="-480" y="940" as="sourcePoint" />
            <mxPoint x="-360" y="940" as="targetPoint" />
          </mxGeometry>
        </mxCell>
        <mxCell id="OmlpcQI9IJZ9FruPpQCv-302" value="DT-ADDR" style="rounded=0;whiteSpace=wrap;html=1;fillColor=#e1d5e7;strokeColor=#9673a6;" vertex="1" parent="1">
          <mxGeometry x="-640" y="720" width="80" height="20" as="geometry" />
        </mxCell>
        <mxCell id="OmlpcQI9IJZ9FruPpQCv-303" value="DT-ADDR" style="rounded=0;whiteSpace=wrap;html=1;fillColor=#e1d5e7;strokeColor=#9673a6;" vertex="1" parent="1">
          <mxGeometry x="-560" y="720" width="80" height="20" as="geometry" />
        </mxCell>
        <mxCell id="OmlpcQI9IJZ9FruPpQCv-304" value="DATA" style="rounded=0;whiteSpace=wrap;html=1;fillColor=#d5e8d4;strokeColor=#82b366;" vertex="1" parent="1">
          <mxGeometry x="-480" y="720" width="80" height="20" as="geometry" />
        </mxCell>
        <mxCell id="OmlpcQI9IJZ9FruPpQCv-305" value="" style="endArrow=none;html=1;rounded=0;" edge="1" parent="1">
          <mxGeometry width="50" height="50" relative="1" as="geometry">
            <mxPoint x="-480" y="860" as="sourcePoint" />
            <mxPoint x="-480" y="840" as="targetPoint" />
          </mxGeometry>
        </mxCell>
        <mxCell id="OmlpcQI9IJZ9FruPpQCv-306" value="" style="endArrow=none;html=1;rounded=0;" edge="1" parent="1">
          <mxGeometry width="50" height="50" relative="1" as="geometry">
            <mxPoint x="-480" y="860" as="sourcePoint" />
            <mxPoint x="-360" y="860" as="targetPoint" />
          </mxGeometry>
        </mxCell>
        <mxCell id="OmlpcQI9IJZ9FruPpQCv-307" value="" style="group" vertex="1" connectable="0" parent="1">
          <mxGeometry x="-480" y="800" width="120" height="20" as="geometry" />
        </mxCell>
        <mxCell id="OmlpcQI9IJZ9FruPpQCv-308" value="" style="rounded=0;whiteSpace=wrap;html=1;" vertex="1" parent="OmlpcQI9IJZ9FruPpQCv-307">
          <mxGeometry width="120" height="20" as="geometry" />
        </mxCell>
        <mxCell id="OmlpcQI9IJZ9FruPpQCv-309" value="" style="endArrow=none;html=1;rounded=0;entryX=0.168;entryY=1.015;entryDx=0;entryDy=0;entryPerimeter=0;exitX=0;exitY=0;exitDx=0;exitDy=0;" edge="1" parent="OmlpcQI9IJZ9FruPpQCv-307" source="OmlpcQI9IJZ9FruPpQCv-308" target="OmlpcQI9IJZ9FruPpQCv-308">
          <mxGeometry width="50" height="50" relative="1" as="geometry">
            <mxPoint y="20" as="sourcePoint" />
            <mxPoint x="50" y="-30" as="targetPoint" />
          </mxGeometry>
        </mxCell>
        <mxCell id="OmlpcQI9IJZ9FruPpQCv-310" value="" style="endArrow=none;html=1;rounded=0;entryX=0.168;entryY=1.015;entryDx=0;entryDy=0;entryPerimeter=0;exitX=0;exitY=0;exitDx=0;exitDy=0;" edge="1" parent="OmlpcQI9IJZ9FruPpQCv-307">
          <mxGeometry width="50" height="50" relative="1" as="geometry">
            <mxPoint x="20" as="sourcePoint" />
            <mxPoint x="40" y="20" as="targetPoint" />
          </mxGeometry>
        </mxCell>
        <mxCell id="OmlpcQI9IJZ9FruPpQCv-311" value="" style="endArrow=none;html=1;rounded=0;entryX=0.168;entryY=1.015;entryDx=0;entryDy=0;entryPerimeter=0;exitX=0;exitY=0;exitDx=0;exitDy=0;" edge="1" parent="OmlpcQI9IJZ9FruPpQCv-307">
          <mxGeometry width="50" height="50" relative="1" as="geometry">
            <mxPoint x="40" as="sourcePoint" />
            <mxPoint x="60" y="20" as="targetPoint" />
          </mxGeometry>
        </mxCell>
        <mxCell id="OmlpcQI9IJZ9FruPpQCv-312" value="" style="endArrow=none;html=1;rounded=0;entryX=0.168;entryY=1.015;entryDx=0;entryDy=0;entryPerimeter=0;exitX=0;exitY=0;exitDx=0;exitDy=0;" edge="1" parent="OmlpcQI9IJZ9FruPpQCv-307">
          <mxGeometry width="50" height="50" relative="1" as="geometry">
            <mxPoint x="60" as="sourcePoint" />
            <mxPoint x="80" y="20" as="targetPoint" />
          </mxGeometry>
        </mxCell>
        <mxCell id="OmlpcQI9IJZ9FruPpQCv-313" value="" style="endArrow=none;html=1;rounded=0;entryX=0.168;entryY=1.015;entryDx=0;entryDy=0;entryPerimeter=0;exitX=0;exitY=0;exitDx=0;exitDy=0;" edge="1" parent="OmlpcQI9IJZ9FruPpQCv-307">
          <mxGeometry width="50" height="50" relative="1" as="geometry">
            <mxPoint x="80" as="sourcePoint" />
            <mxPoint x="100" y="20" as="targetPoint" />
          </mxGeometry>
        </mxCell>
        <mxCell id="OmlpcQI9IJZ9FruPpQCv-314" value="" style="endArrow=none;html=1;rounded=0;entryX=0.168;entryY=1.015;entryDx=0;entryDy=0;entryPerimeter=0;exitX=0;exitY=0;exitDx=0;exitDy=0;" edge="1" parent="OmlpcQI9IJZ9FruPpQCv-307">
          <mxGeometry width="50" height="50" relative="1" as="geometry">
            <mxPoint x="100" as="sourcePoint" />
            <mxPoint x="120" y="20" as="targetPoint" />
          </mxGeometry>
        </mxCell>
        <mxCell id="OmlpcQI9IJZ9FruPpQCv-315" value="" style="endArrow=none;html=1;rounded=0;entryX=0.168;entryY=1.015;entryDx=0;entryDy=0;entryPerimeter=0;exitX=0;exitY=0;exitDx=0;exitDy=0;" edge="1" parent="OmlpcQI9IJZ9FruPpQCv-307">
          <mxGeometry width="50" height="50" relative="1" as="geometry">
            <mxPoint x="10" as="sourcePoint" />
            <mxPoint x="30" y="20" as="targetPoint" />
          </mxGeometry>
        </mxCell>
        <mxCell id="OmlpcQI9IJZ9FruPpQCv-316" value="" style="endArrow=none;html=1;rounded=0;entryX=0.168;entryY=1.015;entryDx=0;entryDy=0;entryPerimeter=0;exitX=0;exitY=0;exitDx=0;exitDy=0;" edge="1" parent="OmlpcQI9IJZ9FruPpQCv-307">
          <mxGeometry width="50" height="50" relative="1" as="geometry">
            <mxPoint x="30" as="sourcePoint" />
            <mxPoint x="50" y="20" as="targetPoint" />
          </mxGeometry>
        </mxCell>
        <mxCell id="OmlpcQI9IJZ9FruPpQCv-317" value="" style="endArrow=none;html=1;rounded=0;entryX=0.168;entryY=1.015;entryDx=0;entryDy=0;entryPerimeter=0;exitX=0;exitY=0;exitDx=0;exitDy=0;" edge="1" parent="OmlpcQI9IJZ9FruPpQCv-307">
          <mxGeometry width="50" height="50" relative="1" as="geometry">
            <mxPoint x="50" as="sourcePoint" />
            <mxPoint x="70" y="20" as="targetPoint" />
          </mxGeometry>
        </mxCell>
        <mxCell id="OmlpcQI9IJZ9FruPpQCv-318" value="" style="endArrow=none;html=1;rounded=0;entryX=0.168;entryY=1.015;entryDx=0;entryDy=0;entryPerimeter=0;exitX=0;exitY=0;exitDx=0;exitDy=0;" edge="1" parent="OmlpcQI9IJZ9FruPpQCv-307">
          <mxGeometry width="50" height="50" relative="1" as="geometry">
            <mxPoint x="70" as="sourcePoint" />
            <mxPoint x="90" y="20" as="targetPoint" />
          </mxGeometry>
        </mxCell>
        <mxCell id="OmlpcQI9IJZ9FruPpQCv-319" value="" style="endArrow=none;html=1;rounded=0;entryX=0.168;entryY=1.015;entryDx=0;entryDy=0;entryPerimeter=0;exitX=0;exitY=0;exitDx=0;exitDy=0;" edge="1" parent="OmlpcQI9IJZ9FruPpQCv-307">
          <mxGeometry width="50" height="50" relative="1" as="geometry">
            <mxPoint x="90" as="sourcePoint" />
            <mxPoint x="110" y="20" as="targetPoint" />
          </mxGeometry>
        </mxCell>
        <mxCell id="OmlpcQI9IJZ9FruPpQCv-320" value="" style="endArrow=none;html=1;rounded=0;entryX=0.168;entryY=1.015;entryDx=0;entryDy=0;entryPerimeter=0;" edge="1" parent="OmlpcQI9IJZ9FruPpQCv-307">
          <mxGeometry width="50" height="50" relative="1" as="geometry">
            <mxPoint y="10" as="sourcePoint" />
            <mxPoint x="10" y="20" as="targetPoint" />
          </mxGeometry>
        </mxCell>
        <mxCell id="OmlpcQI9IJZ9FruPpQCv-321" value="" style="endArrow=none;html=1;rounded=0;entryX=1;entryY=0.5;entryDx=0;entryDy=0;exitX=0;exitY=0;exitDx=0;exitDy=0;" edge="1" parent="OmlpcQI9IJZ9FruPpQCv-307" target="OmlpcQI9IJZ9FruPpQCv-308">
          <mxGeometry width="50" height="50" relative="1" as="geometry">
            <mxPoint x="110" as="sourcePoint" />
            <mxPoint x="130" y="20" as="targetPoint" />
          </mxGeometry>
        </mxCell>
        <mxCell id="OmlpcQI9IJZ9FruPpQCv-331" value="" style="group" vertex="1" connectable="0" parent="1">
          <mxGeometry x="-400" y="720" width="40" height="20" as="geometry" />
        </mxCell>
        <mxCell id="OmlpcQI9IJZ9FruPpQCv-332" value="" style="rounded=0;whiteSpace=wrap;html=1;" vertex="1" parent="OmlpcQI9IJZ9FruPpQCv-331">
          <mxGeometry width="40" height="20" as="geometry" />
        </mxCell>
        <mxCell id="OmlpcQI9IJZ9FruPpQCv-333" value="" style="endArrow=none;html=1;rounded=0;entryX=0.5;entryY=1;entryDx=0;entryDy=0;" edge="1" parent="OmlpcQI9IJZ9FruPpQCv-331" target="OmlpcQI9IJZ9FruPpQCv-332">
          <mxGeometry width="50" height="50" relative="1" as="geometry">
            <mxPoint as="sourcePoint" />
            <mxPoint x="50" y="-50" as="targetPoint" />
          </mxGeometry>
        </mxCell>
        <mxCell id="OmlpcQI9IJZ9FruPpQCv-334" value="" style="endArrow=none;html=1;rounded=0;entryX=0.5;entryY=1;entryDx=0;entryDy=0;" edge="1" parent="OmlpcQI9IJZ9FruPpQCv-331">
          <mxGeometry width="50" height="50" relative="1" as="geometry">
            <mxPoint x="10" as="sourcePoint" />
            <mxPoint x="30" y="20" as="targetPoint" />
          </mxGeometry>
        </mxCell>
        <mxCell id="OmlpcQI9IJZ9FruPpQCv-335" value="" style="endArrow=none;html=1;rounded=0;entryX=0.5;entryY=1;entryDx=0;entryDy=0;" edge="1" parent="OmlpcQI9IJZ9FruPpQCv-331">
          <mxGeometry width="50" height="50" relative="1" as="geometry">
            <mxPoint x="20" as="sourcePoint" />
            <mxPoint x="40" y="20" as="targetPoint" />
          </mxGeometry>
        </mxCell>
        <mxCell id="OmlpcQI9IJZ9FruPpQCv-336" value="" style="endArrow=none;html=1;rounded=0;" edge="1" parent="OmlpcQI9IJZ9FruPpQCv-331">
          <mxGeometry width="50" height="50" relative="1" as="geometry">
            <mxPoint x="30" as="sourcePoint" />
            <mxPoint x="40" y="10" as="targetPoint" />
          </mxGeometry>
        </mxCell>
        <mxCell id="OmlpcQI9IJZ9FruPpQCv-337" value="" style="endArrow=none;html=1;rounded=0;" edge="1" parent="OmlpcQI9IJZ9FruPpQCv-331">
          <mxGeometry width="50" height="50" relative="1" as="geometry">
            <mxPoint y="10" as="sourcePoint" />
            <mxPoint x="10" y="20" as="targetPoint" />
          </mxGeometry>
        </mxCell>
        <mxCell id="OmlpcQI9IJZ9FruPpQCv-339" value="S0" style="rounded=0;whiteSpace=wrap;html=1;" vertex="1" parent="1">
          <mxGeometry x="-400" y="960" width="40" height="20" as="geometry" />
        </mxCell>
        <mxCell id="OmlpcQI9IJZ9FruPpQCv-340" value="" style="endArrow=none;html=1;rounded=0;" edge="1" parent="1">
          <mxGeometry width="50" height="50" relative="1" as="geometry">
            <mxPoint x="-920" y="1180" as="sourcePoint" />
            <mxPoint x="-880" y="1180" as="targetPoint" />
          </mxGeometry>
        </mxCell>
        <mxCell id="OmlpcQI9IJZ9FruPpQCv-341" value="" style="endArrow=classic;html=1;rounded=0;" edge="1" parent="1">
          <mxGeometry width="50" height="50" relative="1" as="geometry">
            <mxPoint x="-880" y="1180" as="sourcePoint" />
            <mxPoint x="-880" y="1160" as="targetPoint" />
          </mxGeometry>
        </mxCell>
        <mxCell id="OmlpcQI9IJZ9FruPpQCv-342" value="" style="endArrow=none;html=1;rounded=0;" edge="1" parent="1">
          <mxGeometry width="50" height="50" relative="1" as="geometry">
            <mxPoint x="-840" y="1160" as="sourcePoint" />
            <mxPoint x="-840" y="1180" as="targetPoint" />
          </mxGeometry>
        </mxCell>
        <mxCell id="OmlpcQI9IJZ9FruPpQCv-343" value="" style="endArrow=none;html=1;rounded=0;" edge="1" parent="1">
          <mxGeometry width="50" height="50" relative="1" as="geometry">
            <mxPoint x="-880" y="1160" as="sourcePoint" />
            <mxPoint x="-840" y="1160" as="targetPoint" />
          </mxGeometry>
        </mxCell>
        <mxCell id="OmlpcQI9IJZ9FruPpQCv-344" value="" style="endArrow=none;html=1;rounded=0;" edge="1" parent="1">
          <mxGeometry width="50" height="50" relative="1" as="geometry">
            <mxPoint x="-840" y="1180" as="sourcePoint" />
            <mxPoint x="-800" y="1180" as="targetPoint" />
          </mxGeometry>
        </mxCell>
        <mxCell id="OmlpcQI9IJZ9FruPpQCv-345" value="" style="endArrow=classic;html=1;rounded=0;" edge="1" parent="1">
          <mxGeometry width="50" height="50" relative="1" as="geometry">
            <mxPoint x="-800" y="1180" as="sourcePoint" />
            <mxPoint x="-800" y="1160" as="targetPoint" />
          </mxGeometry>
        </mxCell>
        <mxCell id="OmlpcQI9IJZ9FruPpQCv-346" value="" style="endArrow=none;html=1;rounded=0;" edge="1" parent="1">
          <mxGeometry width="50" height="50" relative="1" as="geometry">
            <mxPoint x="-760" y="1160" as="sourcePoint" />
            <mxPoint x="-760" y="1180" as="targetPoint" />
          </mxGeometry>
        </mxCell>
        <mxCell id="OmlpcQI9IJZ9FruPpQCv-347" value="" style="endArrow=none;html=1;rounded=0;" edge="1" parent="1">
          <mxGeometry width="50" height="50" relative="1" as="geometry">
            <mxPoint x="-800" y="1160" as="sourcePoint" />
            <mxPoint x="-760" y="1160" as="targetPoint" />
          </mxGeometry>
        </mxCell>
        <mxCell id="OmlpcQI9IJZ9FruPpQCv-348" value="" style="endArrow=none;html=1;rounded=0;" edge="1" parent="1">
          <mxGeometry width="50" height="50" relative="1" as="geometry">
            <mxPoint x="-760" y="1180" as="sourcePoint" />
            <mxPoint x="-720" y="1180" as="targetPoint" />
          </mxGeometry>
        </mxCell>
        <mxCell id="OmlpcQI9IJZ9FruPpQCv-349" value="" style="endArrow=classic;html=1;rounded=0;" edge="1" parent="1">
          <mxGeometry width="50" height="50" relative="1" as="geometry">
            <mxPoint x="-720" y="1180" as="sourcePoint" />
            <mxPoint x="-720" y="1160" as="targetPoint" />
          </mxGeometry>
        </mxCell>
        <mxCell id="OmlpcQI9IJZ9FruPpQCv-350" value="" style="endArrow=none;html=1;rounded=0;" edge="1" parent="1">
          <mxGeometry width="50" height="50" relative="1" as="geometry">
            <mxPoint x="-680" y="1160" as="sourcePoint" />
            <mxPoint x="-680" y="1180" as="targetPoint" />
          </mxGeometry>
        </mxCell>
        <mxCell id="OmlpcQI9IJZ9FruPpQCv-351" value="" style="endArrow=none;html=1;rounded=0;" edge="1" parent="1">
          <mxGeometry width="50" height="50" relative="1" as="geometry">
            <mxPoint x="-720" y="1160" as="sourcePoint" />
            <mxPoint x="-680" y="1160" as="targetPoint" />
          </mxGeometry>
        </mxCell>
        <mxCell id="OmlpcQI9IJZ9FruPpQCv-352" value="" style="endArrow=none;html=1;rounded=0;" edge="1" parent="1">
          <mxGeometry width="50" height="50" relative="1" as="geometry">
            <mxPoint x="-680" y="1180" as="sourcePoint" />
            <mxPoint x="-640" y="1180" as="targetPoint" />
          </mxGeometry>
        </mxCell>
        <mxCell id="OmlpcQI9IJZ9FruPpQCv-353" value="" style="endArrow=classic;html=1;rounded=0;" edge="1" parent="1">
          <mxGeometry width="50" height="50" relative="1" as="geometry">
            <mxPoint x="-640" y="1180" as="sourcePoint" />
            <mxPoint x="-640" y="1160" as="targetPoint" />
          </mxGeometry>
        </mxCell>
        <mxCell id="OmlpcQI9IJZ9FruPpQCv-354" value="" style="endArrow=none;html=1;rounded=0;" edge="1" parent="1">
          <mxGeometry width="50" height="50" relative="1" as="geometry">
            <mxPoint x="-600" y="1160" as="sourcePoint" />
            <mxPoint x="-600" y="1180" as="targetPoint" />
          </mxGeometry>
        </mxCell>
        <mxCell id="OmlpcQI9IJZ9FruPpQCv-355" value="" style="endArrow=none;html=1;rounded=0;" edge="1" parent="1">
          <mxGeometry width="50" height="50" relative="1" as="geometry">
            <mxPoint x="-640" y="1160" as="sourcePoint" />
            <mxPoint x="-600" y="1160" as="targetPoint" />
          </mxGeometry>
        </mxCell>
        <mxCell id="OmlpcQI9IJZ9FruPpQCv-356" value="" style="endArrow=none;html=1;rounded=0;" edge="1" parent="1">
          <mxGeometry width="50" height="50" relative="1" as="geometry">
            <mxPoint x="-600" y="1180" as="sourcePoint" />
            <mxPoint x="-560" y="1180" as="targetPoint" />
          </mxGeometry>
        </mxCell>
        <mxCell id="OmlpcQI9IJZ9FruPpQCv-357" value="" style="endArrow=classic;html=1;rounded=0;" edge="1" parent="1">
          <mxGeometry width="50" height="50" relative="1" as="geometry">
            <mxPoint x="-560" y="1180" as="sourcePoint" />
            <mxPoint x="-560" y="1160" as="targetPoint" />
          </mxGeometry>
        </mxCell>
        <mxCell id="OmlpcQI9IJZ9FruPpQCv-358" value="" style="endArrow=none;html=1;rounded=0;" edge="1" parent="1">
          <mxGeometry width="50" height="50" relative="1" as="geometry">
            <mxPoint x="-520" y="1160" as="sourcePoint" />
            <mxPoint x="-520" y="1180" as="targetPoint" />
          </mxGeometry>
        </mxCell>
        <mxCell id="OmlpcQI9IJZ9FruPpQCv-359" value="" style="endArrow=none;html=1;rounded=0;" edge="1" parent="1">
          <mxGeometry width="50" height="50" relative="1" as="geometry">
            <mxPoint x="-560" y="1160" as="sourcePoint" />
            <mxPoint x="-520" y="1160" as="targetPoint" />
          </mxGeometry>
        </mxCell>
        <mxCell id="OmlpcQI9IJZ9FruPpQCv-360" value="" style="endArrow=none;html=1;rounded=0;" edge="1" parent="1">
          <mxGeometry width="50" height="50" relative="1" as="geometry">
            <mxPoint x="-520" y="1180" as="sourcePoint" />
            <mxPoint x="-480" y="1180" as="targetPoint" />
          </mxGeometry>
        </mxCell>
        <mxCell id="OmlpcQI9IJZ9FruPpQCv-361" value="" style="endArrow=classic;html=1;rounded=0;" edge="1" parent="1">
          <mxGeometry width="50" height="50" relative="1" as="geometry">
            <mxPoint x="-480" y="1180" as="sourcePoint" />
            <mxPoint x="-480" y="1160" as="targetPoint" />
          </mxGeometry>
        </mxCell>
        <mxCell id="OmlpcQI9IJZ9FruPpQCv-362" value="" style="endArrow=none;html=1;rounded=0;" edge="1" parent="1">
          <mxGeometry width="50" height="50" relative="1" as="geometry">
            <mxPoint x="-440" y="1160" as="sourcePoint" />
            <mxPoint x="-440" y="1180" as="targetPoint" />
          </mxGeometry>
        </mxCell>
        <mxCell id="OmlpcQI9IJZ9FruPpQCv-363" value="" style="endArrow=none;html=1;rounded=0;" edge="1" parent="1">
          <mxGeometry width="50" height="50" relative="1" as="geometry">
            <mxPoint x="-480" y="1160" as="sourcePoint" />
            <mxPoint x="-440" y="1160" as="targetPoint" />
          </mxGeometry>
        </mxCell>
        <mxCell id="OmlpcQI9IJZ9FruPpQCv-364" value="" style="endArrow=none;html=1;rounded=0;" edge="1" parent="1">
          <mxGeometry width="50" height="50" relative="1" as="geometry">
            <mxPoint x="-440" y="1180" as="sourcePoint" />
            <mxPoint x="-400" y="1180" as="targetPoint" />
          </mxGeometry>
        </mxCell>
        <mxCell id="OmlpcQI9IJZ9FruPpQCv-365" value="" style="endArrow=classic;html=1;rounded=0;" edge="1" parent="1">
          <mxGeometry width="50" height="50" relative="1" as="geometry">
            <mxPoint x="-400" y="1180" as="sourcePoint" />
            <mxPoint x="-400" y="1160" as="targetPoint" />
          </mxGeometry>
        </mxCell>
        <mxCell id="OmlpcQI9IJZ9FruPpQCv-366" value="" style="endArrow=none;html=1;rounded=0;" edge="1" parent="1">
          <mxGeometry width="50" height="50" relative="1" as="geometry">
            <mxPoint x="-360" y="1160" as="sourcePoint" />
            <mxPoint x="-360" y="1180" as="targetPoint" />
          </mxGeometry>
        </mxCell>
        <mxCell id="OmlpcQI9IJZ9FruPpQCv-367" value="" style="endArrow=none;html=1;rounded=0;" edge="1" parent="1">
          <mxGeometry width="50" height="50" relative="1" as="geometry">
            <mxPoint x="-400" y="1160" as="sourcePoint" />
            <mxPoint x="-360" y="1160" as="targetPoint" />
          </mxGeometry>
        </mxCell>
        <mxCell id="OmlpcQI9IJZ9FruPpQCv-368" value="HCLK" style="text;html=1;align=right;verticalAlign=bottom;whiteSpace=wrap;rounded=0;" vertex="1" parent="1">
          <mxGeometry x="-1080" y="1160" width="160" height="20" as="geometry" />
        </mxCell>
        <mxCell id="OmlpcQI9IJZ9FruPpQCv-369" value="bus_cmd" style="text;html=1;align=right;verticalAlign=bottom;whiteSpace=wrap;rounded=0;" vertex="1" parent="1">
          <mxGeometry x="-1080" y="1200" width="160" height="20" as="geometry" />
        </mxCell>
        <mxCell id="OmlpcQI9IJZ9FruPpQCv-370" value="" style="group" vertex="1" connectable="0" parent="1">
          <mxGeometry x="-920" y="1200" width="120" height="20" as="geometry" />
        </mxCell>
        <mxCell id="OmlpcQI9IJZ9FruPpQCv-371" value="" style="rounded=0;whiteSpace=wrap;html=1;" vertex="1" parent="OmlpcQI9IJZ9FruPpQCv-370">
          <mxGeometry width="120" height="20" as="geometry" />
        </mxCell>
        <mxCell id="OmlpcQI9IJZ9FruPpQCv-372" value="" style="endArrow=none;html=1;rounded=0;entryX=0.168;entryY=1.015;entryDx=0;entryDy=0;entryPerimeter=0;exitX=0;exitY=0;exitDx=0;exitDy=0;" edge="1" parent="OmlpcQI9IJZ9FruPpQCv-370" source="OmlpcQI9IJZ9FruPpQCv-371" target="OmlpcQI9IJZ9FruPpQCv-371">
          <mxGeometry width="50" height="50" relative="1" as="geometry">
            <mxPoint y="20" as="sourcePoint" />
            <mxPoint x="50" y="-30" as="targetPoint" />
          </mxGeometry>
        </mxCell>
        <mxCell id="OmlpcQI9IJZ9FruPpQCv-373" value="" style="endArrow=none;html=1;rounded=0;entryX=0.168;entryY=1.015;entryDx=0;entryDy=0;entryPerimeter=0;exitX=0;exitY=0;exitDx=0;exitDy=0;" edge="1" parent="OmlpcQI9IJZ9FruPpQCv-370">
          <mxGeometry width="50" height="50" relative="1" as="geometry">
            <mxPoint x="20" as="sourcePoint" />
            <mxPoint x="40" y="20" as="targetPoint" />
          </mxGeometry>
        </mxCell>
        <mxCell id="OmlpcQI9IJZ9FruPpQCv-374" value="" style="endArrow=none;html=1;rounded=0;entryX=0.168;entryY=1.015;entryDx=0;entryDy=0;entryPerimeter=0;exitX=0;exitY=0;exitDx=0;exitDy=0;" edge="1" parent="OmlpcQI9IJZ9FruPpQCv-370">
          <mxGeometry width="50" height="50" relative="1" as="geometry">
            <mxPoint x="40" as="sourcePoint" />
            <mxPoint x="60" y="20" as="targetPoint" />
          </mxGeometry>
        </mxCell>
        <mxCell id="OmlpcQI9IJZ9FruPpQCv-375" value="" style="endArrow=none;html=1;rounded=0;entryX=0.168;entryY=1.015;entryDx=0;entryDy=0;entryPerimeter=0;exitX=0;exitY=0;exitDx=0;exitDy=0;" edge="1" parent="OmlpcQI9IJZ9FruPpQCv-370">
          <mxGeometry width="50" height="50" relative="1" as="geometry">
            <mxPoint x="60" as="sourcePoint" />
            <mxPoint x="80" y="20" as="targetPoint" />
          </mxGeometry>
        </mxCell>
        <mxCell id="OmlpcQI9IJZ9FruPpQCv-376" value="" style="endArrow=none;html=1;rounded=0;entryX=0.168;entryY=1.015;entryDx=0;entryDy=0;entryPerimeter=0;exitX=0;exitY=0;exitDx=0;exitDy=0;" edge="1" parent="OmlpcQI9IJZ9FruPpQCv-370">
          <mxGeometry width="50" height="50" relative="1" as="geometry">
            <mxPoint x="80" as="sourcePoint" />
            <mxPoint x="100" y="20" as="targetPoint" />
          </mxGeometry>
        </mxCell>
        <mxCell id="OmlpcQI9IJZ9FruPpQCv-377" value="" style="endArrow=none;html=1;rounded=0;entryX=0.168;entryY=1.015;entryDx=0;entryDy=0;entryPerimeter=0;exitX=0;exitY=0;exitDx=0;exitDy=0;" edge="1" parent="OmlpcQI9IJZ9FruPpQCv-370">
          <mxGeometry width="50" height="50" relative="1" as="geometry">
            <mxPoint x="100" as="sourcePoint" />
            <mxPoint x="120" y="20" as="targetPoint" />
          </mxGeometry>
        </mxCell>
        <mxCell id="OmlpcQI9IJZ9FruPpQCv-378" value="" style="endArrow=none;html=1;rounded=0;entryX=0.168;entryY=1.015;entryDx=0;entryDy=0;entryPerimeter=0;exitX=0;exitY=0;exitDx=0;exitDy=0;" edge="1" parent="OmlpcQI9IJZ9FruPpQCv-370">
          <mxGeometry width="50" height="50" relative="1" as="geometry">
            <mxPoint x="10" as="sourcePoint" />
            <mxPoint x="30" y="20" as="targetPoint" />
          </mxGeometry>
        </mxCell>
        <mxCell id="OmlpcQI9IJZ9FruPpQCv-379" value="" style="endArrow=none;html=1;rounded=0;entryX=0.168;entryY=1.015;entryDx=0;entryDy=0;entryPerimeter=0;exitX=0;exitY=0;exitDx=0;exitDy=0;" edge="1" parent="OmlpcQI9IJZ9FruPpQCv-370">
          <mxGeometry width="50" height="50" relative="1" as="geometry">
            <mxPoint x="30" as="sourcePoint" />
            <mxPoint x="50" y="20" as="targetPoint" />
          </mxGeometry>
        </mxCell>
        <mxCell id="OmlpcQI9IJZ9FruPpQCv-380" value="" style="endArrow=none;html=1;rounded=0;entryX=0.168;entryY=1.015;entryDx=0;entryDy=0;entryPerimeter=0;exitX=0;exitY=0;exitDx=0;exitDy=0;" edge="1" parent="OmlpcQI9IJZ9FruPpQCv-370">
          <mxGeometry width="50" height="50" relative="1" as="geometry">
            <mxPoint x="50" as="sourcePoint" />
            <mxPoint x="70" y="20" as="targetPoint" />
          </mxGeometry>
        </mxCell>
        <mxCell id="OmlpcQI9IJZ9FruPpQCv-381" value="" style="endArrow=none;html=1;rounded=0;entryX=0.168;entryY=1.015;entryDx=0;entryDy=0;entryPerimeter=0;exitX=0;exitY=0;exitDx=0;exitDy=0;" edge="1" parent="OmlpcQI9IJZ9FruPpQCv-370">
          <mxGeometry width="50" height="50" relative="1" as="geometry">
            <mxPoint x="70" as="sourcePoint" />
            <mxPoint x="90" y="20" as="targetPoint" />
          </mxGeometry>
        </mxCell>
        <mxCell id="OmlpcQI9IJZ9FruPpQCv-382" value="" style="endArrow=none;html=1;rounded=0;entryX=0.168;entryY=1.015;entryDx=0;entryDy=0;entryPerimeter=0;exitX=0;exitY=0;exitDx=0;exitDy=0;" edge="1" parent="OmlpcQI9IJZ9FruPpQCv-370">
          <mxGeometry width="50" height="50" relative="1" as="geometry">
            <mxPoint x="90" as="sourcePoint" />
            <mxPoint x="110" y="20" as="targetPoint" />
          </mxGeometry>
        </mxCell>
        <mxCell id="OmlpcQI9IJZ9FruPpQCv-383" value="" style="endArrow=none;html=1;rounded=0;entryX=0.168;entryY=1.015;entryDx=0;entryDy=0;entryPerimeter=0;" edge="1" parent="OmlpcQI9IJZ9FruPpQCv-370">
          <mxGeometry width="50" height="50" relative="1" as="geometry">
            <mxPoint y="10" as="sourcePoint" />
            <mxPoint x="10" y="20" as="targetPoint" />
          </mxGeometry>
        </mxCell>
        <mxCell id="OmlpcQI9IJZ9FruPpQCv-384" value="" style="endArrow=none;html=1;rounded=0;entryX=1;entryY=0.5;entryDx=0;entryDy=0;exitX=0;exitY=0;exitDx=0;exitDy=0;" edge="1" parent="OmlpcQI9IJZ9FruPpQCv-370" target="OmlpcQI9IJZ9FruPpQCv-371">
          <mxGeometry width="50" height="50" relative="1" as="geometry">
            <mxPoint x="110" as="sourcePoint" />
            <mxPoint x="130" y="20" as="targetPoint" />
          </mxGeometry>
        </mxCell>
        <mxCell id="OmlpcQI9IJZ9FruPpQCv-385" value="WORD-INCR4" style="rounded=0;whiteSpace=wrap;html=1;" vertex="1" parent="1">
          <mxGeometry x="-800" y="1200" width="640" height="20" as="geometry" />
        </mxCell>
        <mxCell id="OmlpcQI9IJZ9FruPpQCv-386" value="cr_state" style="text;html=1;align=right;verticalAlign=bottom;whiteSpace=wrap;rounded=0;" vertex="1" parent="1">
          <mxGeometry x="-1080" y="1360" width="160" height="20" as="geometry" />
        </mxCell>
        <mxCell id="OmlpcQI9IJZ9FruPpQCv-387" value="S0" style="rounded=0;whiteSpace=wrap;html=1;" vertex="1" parent="1">
          <mxGeometry x="-920" y="1360" width="200" height="20" as="geometry" />
        </mxCell>
        <mxCell id="OmlpcQI9IJZ9FruPpQCv-388" value="S1" style="rounded=0;whiteSpace=wrap;html=1;" vertex="1" parent="1">
          <mxGeometry x="-720" y="1360" width="640" height="20" as="geometry" />
        </mxCell>
        <mxCell id="OmlpcQI9IJZ9FruPpQCv-389" value="" style="endArrow=none;html=1;rounded=0;" edge="1" parent="1">
          <mxGeometry width="50" height="50" relative="1" as="geometry">
            <mxPoint x="-920" y="1260" as="sourcePoint" />
            <mxPoint x="-800" y="1260" as="targetPoint" />
          </mxGeometry>
        </mxCell>
        <mxCell id="OmlpcQI9IJZ9FruPpQCv-390" value="HSEL" style="text;html=1;align=right;verticalAlign=bottom;whiteSpace=wrap;rounded=0;" vertex="1" parent="1">
          <mxGeometry x="-1080" y="1240" width="160" height="20" as="geometry" />
        </mxCell>
        <mxCell id="OmlpcQI9IJZ9FruPpQCv-391" value="" style="endArrow=none;html=1;rounded=0;" edge="1" parent="1">
          <mxGeometry width="50" height="50" relative="1" as="geometry">
            <mxPoint x="-800" y="1260" as="sourcePoint" />
            <mxPoint x="-800" y="1240" as="targetPoint" />
          </mxGeometry>
        </mxCell>
        <mxCell id="OmlpcQI9IJZ9FruPpQCv-392" value="" style="endArrow=none;html=1;rounded=0;" edge="1" parent="1">
          <mxGeometry width="50" height="50" relative="1" as="geometry">
            <mxPoint x="-800" y="1240" as="sourcePoint" />
            <mxPoint x="-160" y="1240" as="targetPoint" />
          </mxGeometry>
        </mxCell>
        <mxCell id="OmlpcQI9IJZ9FruPpQCv-393" value="HREADY" style="text;html=1;align=right;verticalAlign=bottom;whiteSpace=wrap;rounded=0;" vertex="1" parent="1">
          <mxGeometry x="-1080" y="1280" width="160" height="20" as="geometry" />
        </mxCell>
        <mxCell id="OmlpcQI9IJZ9FruPpQCv-409" value="" style="group" vertex="1" connectable="0" parent="1">
          <mxGeometry x="-920" y="1120" width="120" height="20" as="geometry" />
        </mxCell>
        <mxCell id="OmlpcQI9IJZ9FruPpQCv-410" value="" style="rounded=0;whiteSpace=wrap;html=1;" vertex="1" parent="OmlpcQI9IJZ9FruPpQCv-409">
          <mxGeometry width="120" height="20" as="geometry" />
        </mxCell>
        <mxCell id="OmlpcQI9IJZ9FruPpQCv-411" value="" style="endArrow=none;html=1;rounded=0;entryX=0.168;entryY=1.015;entryDx=0;entryDy=0;entryPerimeter=0;exitX=0;exitY=0;exitDx=0;exitDy=0;" edge="1" parent="OmlpcQI9IJZ9FruPpQCv-409" source="OmlpcQI9IJZ9FruPpQCv-410" target="OmlpcQI9IJZ9FruPpQCv-410">
          <mxGeometry width="50" height="50" relative="1" as="geometry">
            <mxPoint y="20" as="sourcePoint" />
            <mxPoint x="50" y="-30" as="targetPoint" />
          </mxGeometry>
        </mxCell>
        <mxCell id="OmlpcQI9IJZ9FruPpQCv-412" value="" style="endArrow=none;html=1;rounded=0;entryX=0.168;entryY=1.015;entryDx=0;entryDy=0;entryPerimeter=0;exitX=0;exitY=0;exitDx=0;exitDy=0;" edge="1" parent="OmlpcQI9IJZ9FruPpQCv-409">
          <mxGeometry width="50" height="50" relative="1" as="geometry">
            <mxPoint x="20" as="sourcePoint" />
            <mxPoint x="40" y="20" as="targetPoint" />
          </mxGeometry>
        </mxCell>
        <mxCell id="OmlpcQI9IJZ9FruPpQCv-413" value="" style="endArrow=none;html=1;rounded=0;entryX=0.168;entryY=1.015;entryDx=0;entryDy=0;entryPerimeter=0;exitX=0;exitY=0;exitDx=0;exitDy=0;" edge="1" parent="OmlpcQI9IJZ9FruPpQCv-409">
          <mxGeometry width="50" height="50" relative="1" as="geometry">
            <mxPoint x="40" as="sourcePoint" />
            <mxPoint x="60" y="20" as="targetPoint" />
          </mxGeometry>
        </mxCell>
        <mxCell id="OmlpcQI9IJZ9FruPpQCv-414" value="" style="endArrow=none;html=1;rounded=0;entryX=0.168;entryY=1.015;entryDx=0;entryDy=0;entryPerimeter=0;exitX=0;exitY=0;exitDx=0;exitDy=0;" edge="1" parent="OmlpcQI9IJZ9FruPpQCv-409">
          <mxGeometry width="50" height="50" relative="1" as="geometry">
            <mxPoint x="60" as="sourcePoint" />
            <mxPoint x="80" y="20" as="targetPoint" />
          </mxGeometry>
        </mxCell>
        <mxCell id="OmlpcQI9IJZ9FruPpQCv-415" value="" style="endArrow=none;html=1;rounded=0;entryX=0.168;entryY=1.015;entryDx=0;entryDy=0;entryPerimeter=0;exitX=0;exitY=0;exitDx=0;exitDy=0;" edge="1" parent="OmlpcQI9IJZ9FruPpQCv-409">
          <mxGeometry width="50" height="50" relative="1" as="geometry">
            <mxPoint x="80" as="sourcePoint" />
            <mxPoint x="100" y="20" as="targetPoint" />
          </mxGeometry>
        </mxCell>
        <mxCell id="OmlpcQI9IJZ9FruPpQCv-416" value="" style="endArrow=none;html=1;rounded=0;entryX=0.168;entryY=1.015;entryDx=0;entryDy=0;entryPerimeter=0;exitX=0;exitY=0;exitDx=0;exitDy=0;" edge="1" parent="OmlpcQI9IJZ9FruPpQCv-409">
          <mxGeometry width="50" height="50" relative="1" as="geometry">
            <mxPoint x="100" as="sourcePoint" />
            <mxPoint x="120" y="20" as="targetPoint" />
          </mxGeometry>
        </mxCell>
        <mxCell id="OmlpcQI9IJZ9FruPpQCv-417" value="" style="endArrow=none;html=1;rounded=0;entryX=0.168;entryY=1.015;entryDx=0;entryDy=0;entryPerimeter=0;exitX=0;exitY=0;exitDx=0;exitDy=0;" edge="1" parent="OmlpcQI9IJZ9FruPpQCv-409">
          <mxGeometry width="50" height="50" relative="1" as="geometry">
            <mxPoint x="10" as="sourcePoint" />
            <mxPoint x="30" y="20" as="targetPoint" />
          </mxGeometry>
        </mxCell>
        <mxCell id="OmlpcQI9IJZ9FruPpQCv-418" value="" style="endArrow=none;html=1;rounded=0;entryX=0.168;entryY=1.015;entryDx=0;entryDy=0;entryPerimeter=0;exitX=0;exitY=0;exitDx=0;exitDy=0;" edge="1" parent="OmlpcQI9IJZ9FruPpQCv-409">
          <mxGeometry width="50" height="50" relative="1" as="geometry">
            <mxPoint x="30" as="sourcePoint" />
            <mxPoint x="50" y="20" as="targetPoint" />
          </mxGeometry>
        </mxCell>
        <mxCell id="OmlpcQI9IJZ9FruPpQCv-419" value="" style="endArrow=none;html=1;rounded=0;entryX=0.168;entryY=1.015;entryDx=0;entryDy=0;entryPerimeter=0;exitX=0;exitY=0;exitDx=0;exitDy=0;" edge="1" parent="OmlpcQI9IJZ9FruPpQCv-409">
          <mxGeometry width="50" height="50" relative="1" as="geometry">
            <mxPoint x="50" as="sourcePoint" />
            <mxPoint x="70" y="20" as="targetPoint" />
          </mxGeometry>
        </mxCell>
        <mxCell id="OmlpcQI9IJZ9FruPpQCv-420" value="" style="endArrow=none;html=1;rounded=0;entryX=0.168;entryY=1.015;entryDx=0;entryDy=0;entryPerimeter=0;exitX=0;exitY=0;exitDx=0;exitDy=0;" edge="1" parent="OmlpcQI9IJZ9FruPpQCv-409">
          <mxGeometry width="50" height="50" relative="1" as="geometry">
            <mxPoint x="70" as="sourcePoint" />
            <mxPoint x="90" y="20" as="targetPoint" />
          </mxGeometry>
        </mxCell>
        <mxCell id="OmlpcQI9IJZ9FruPpQCv-421" value="" style="endArrow=none;html=1;rounded=0;entryX=0.168;entryY=1.015;entryDx=0;entryDy=0;entryPerimeter=0;exitX=0;exitY=0;exitDx=0;exitDy=0;" edge="1" parent="OmlpcQI9IJZ9FruPpQCv-409">
          <mxGeometry width="50" height="50" relative="1" as="geometry">
            <mxPoint x="90" as="sourcePoint" />
            <mxPoint x="110" y="20" as="targetPoint" />
          </mxGeometry>
        </mxCell>
        <mxCell id="OmlpcQI9IJZ9FruPpQCv-422" value="" style="endArrow=none;html=1;rounded=0;entryX=0.168;entryY=1.015;entryDx=0;entryDy=0;entryPerimeter=0;" edge="1" parent="OmlpcQI9IJZ9FruPpQCv-409">
          <mxGeometry width="50" height="50" relative="1" as="geometry">
            <mxPoint y="10" as="sourcePoint" />
            <mxPoint x="10" y="20" as="targetPoint" />
          </mxGeometry>
        </mxCell>
        <mxCell id="OmlpcQI9IJZ9FruPpQCv-423" value="" style="endArrow=none;html=1;rounded=0;entryX=1;entryY=0.5;entryDx=0;entryDy=0;exitX=0;exitY=0;exitDx=0;exitDy=0;" edge="1" parent="OmlpcQI9IJZ9FruPpQCv-409" target="OmlpcQI9IJZ9FruPpQCv-410">
          <mxGeometry width="50" height="50" relative="1" as="geometry">
            <mxPoint x="110" as="sourcePoint" />
            <mxPoint x="130" y="20" as="targetPoint" />
          </mxGeometry>
        </mxCell>
        <mxCell id="OmlpcQI9IJZ9FruPpQCv-424" value="ADDR" style="rounded=0;whiteSpace=wrap;html=1;fillColor=#dae8fc;strokeColor=#6c8ebf;" vertex="1" parent="1">
          <mxGeometry x="-800" y="1120" width="80" height="20" as="geometry" />
        </mxCell>
        <mxCell id="OmlpcQI9IJZ9FruPpQCv-425" value="DT-ADDR" style="rounded=0;whiteSpace=wrap;html=1;fillColor=#e1d5e7;strokeColor=#9673a6;" vertex="1" parent="1">
          <mxGeometry x="-560" y="1120" width="80" height="20" as="geometry" />
        </mxCell>
        <mxCell id="OmlpcQI9IJZ9FruPpQCv-426" value="" style="endArrow=none;html=1;rounded=0;" edge="1" parent="1">
          <mxGeometry width="50" height="50" relative="1" as="geometry">
            <mxPoint x="-640" y="1280" as="sourcePoint" />
            <mxPoint x="-240" y="1280" as="targetPoint" />
          </mxGeometry>
        </mxCell>
        <mxCell id="OmlpcQI9IJZ9FruPpQCv-427" value="master_granted" style="text;html=1;align=right;verticalAlign=bottom;whiteSpace=wrap;rounded=0;" vertex="1" parent="1">
          <mxGeometry x="-1080" y="1320" width="160" height="20" as="geometry" />
        </mxCell>
        <mxCell id="OmlpcQI9IJZ9FruPpQCv-428" value="" style="endArrow=none;html=1;rounded=0;" edge="1" parent="1">
          <mxGeometry width="50" height="50" relative="1" as="geometry">
            <mxPoint x="-920" y="1340" as="sourcePoint" />
            <mxPoint x="-800" y="1340" as="targetPoint" />
          </mxGeometry>
        </mxCell>
        <mxCell id="OmlpcQI9IJZ9FruPpQCv-429" value="" style="endArrow=none;html=1;rounded=0;" edge="1" parent="1">
          <mxGeometry width="50" height="50" relative="1" as="geometry">
            <mxPoint x="-800" y="1340" as="sourcePoint" />
            <mxPoint x="-800" y="1320" as="targetPoint" />
          </mxGeometry>
        </mxCell>
        <mxCell id="OmlpcQI9IJZ9FruPpQCv-430" value="" style="endArrow=none;html=1;rounded=0;" edge="1" parent="1">
          <mxGeometry width="50" height="50" relative="1" as="geometry">
            <mxPoint x="-800" y="1320" as="sourcePoint" />
            <mxPoint x="-160" y="1320" as="targetPoint" />
          </mxGeometry>
        </mxCell>
        <mxCell id="OmlpcQI9IJZ9FruPpQCv-431" value="" style="endArrow=none;html=1;rounded=0;" edge="1" parent="1">
          <mxGeometry width="50" height="50" relative="1" as="geometry">
            <mxPoint x="-160" y="1340" as="sourcePoint" />
            <mxPoint x="-160" y="1320" as="targetPoint" />
          </mxGeometry>
        </mxCell>
        <mxCell id="OmlpcQI9IJZ9FruPpQCv-432" value="" style="endArrow=none;html=1;rounded=0;" edge="1" parent="1">
          <mxGeometry width="50" height="50" relative="1" as="geometry">
            <mxPoint x="-160" y="1340" as="sourcePoint" />
            <mxPoint x="-40" y="1340" as="targetPoint" />
          </mxGeometry>
        </mxCell>
        <mxCell id="OmlpcQI9IJZ9FruPpQCv-433" value="DT-ADDR" style="rounded=0;whiteSpace=wrap;html=1;fillColor=#e1d5e7;strokeColor=#9673a6;" vertex="1" parent="1">
          <mxGeometry x="-400" y="1120" width="80" height="20" as="geometry" />
        </mxCell>
        <mxCell id="OmlpcQI9IJZ9FruPpQCv-434" value="DT-ADDR" style="rounded=0;whiteSpace=wrap;html=1;fillColor=#e1d5e7;strokeColor=#9673a6;" vertex="1" parent="1">
          <mxGeometry x="-320" y="1120" width="80" height="20" as="geometry" />
        </mxCell>
        <mxCell id="OmlpcQI9IJZ9FruPpQCv-435" value="DATA" style="rounded=0;whiteSpace=wrap;html=1;fillColor=#d5e8d4;strokeColor=#82b366;" vertex="1" parent="1">
          <mxGeometry x="-160" y="1120" width="80" height="20" as="geometry" />
        </mxCell>
        <mxCell id="OmlpcQI9IJZ9FruPpQCv-436" value="" style="endArrow=none;html=1;rounded=0;" edge="1" parent="1">
          <mxGeometry width="50" height="50" relative="1" as="geometry">
            <mxPoint x="-160" y="1260" as="sourcePoint" />
            <mxPoint x="-160" y="1240" as="targetPoint" />
          </mxGeometry>
        </mxCell>
        <mxCell id="OmlpcQI9IJZ9FruPpQCv-437" value="" style="endArrow=none;html=1;rounded=0;" edge="1" parent="1">
          <mxGeometry width="50" height="50" relative="1" as="geometry">
            <mxPoint x="-160" y="1260" as="sourcePoint" />
            <mxPoint x="-40" y="1260" as="targetPoint" />
          </mxGeometry>
        </mxCell>
        <mxCell id="OmlpcQI9IJZ9FruPpQCv-438" value="" style="group" vertex="1" connectable="0" parent="1">
          <mxGeometry x="-160" y="1200" width="120" height="20" as="geometry" />
        </mxCell>
        <mxCell id="OmlpcQI9IJZ9FruPpQCv-439" value="" style="rounded=0;whiteSpace=wrap;html=1;" vertex="1" parent="OmlpcQI9IJZ9FruPpQCv-438">
          <mxGeometry width="120" height="20" as="geometry" />
        </mxCell>
        <mxCell id="OmlpcQI9IJZ9FruPpQCv-440" value="" style="endArrow=none;html=1;rounded=0;entryX=0.168;entryY=1.015;entryDx=0;entryDy=0;entryPerimeter=0;exitX=0;exitY=0;exitDx=0;exitDy=0;" edge="1" parent="OmlpcQI9IJZ9FruPpQCv-438" source="OmlpcQI9IJZ9FruPpQCv-439" target="OmlpcQI9IJZ9FruPpQCv-439">
          <mxGeometry width="50" height="50" relative="1" as="geometry">
            <mxPoint y="20" as="sourcePoint" />
            <mxPoint x="50" y="-30" as="targetPoint" />
          </mxGeometry>
        </mxCell>
        <mxCell id="OmlpcQI9IJZ9FruPpQCv-441" value="" style="endArrow=none;html=1;rounded=0;entryX=0.168;entryY=1.015;entryDx=0;entryDy=0;entryPerimeter=0;exitX=0;exitY=0;exitDx=0;exitDy=0;" edge="1" parent="OmlpcQI9IJZ9FruPpQCv-438">
          <mxGeometry width="50" height="50" relative="1" as="geometry">
            <mxPoint x="20" as="sourcePoint" />
            <mxPoint x="40" y="20" as="targetPoint" />
          </mxGeometry>
        </mxCell>
        <mxCell id="OmlpcQI9IJZ9FruPpQCv-442" value="" style="endArrow=none;html=1;rounded=0;entryX=0.168;entryY=1.015;entryDx=0;entryDy=0;entryPerimeter=0;exitX=0;exitY=0;exitDx=0;exitDy=0;" edge="1" parent="OmlpcQI9IJZ9FruPpQCv-438">
          <mxGeometry width="50" height="50" relative="1" as="geometry">
            <mxPoint x="40" as="sourcePoint" />
            <mxPoint x="60" y="20" as="targetPoint" />
          </mxGeometry>
        </mxCell>
        <mxCell id="OmlpcQI9IJZ9FruPpQCv-443" value="" style="endArrow=none;html=1;rounded=0;entryX=0.168;entryY=1.015;entryDx=0;entryDy=0;entryPerimeter=0;exitX=0;exitY=0;exitDx=0;exitDy=0;" edge="1" parent="OmlpcQI9IJZ9FruPpQCv-438">
          <mxGeometry width="50" height="50" relative="1" as="geometry">
            <mxPoint x="60" as="sourcePoint" />
            <mxPoint x="80" y="20" as="targetPoint" />
          </mxGeometry>
        </mxCell>
        <mxCell id="OmlpcQI9IJZ9FruPpQCv-444" value="" style="endArrow=none;html=1;rounded=0;entryX=0.168;entryY=1.015;entryDx=0;entryDy=0;entryPerimeter=0;exitX=0;exitY=0;exitDx=0;exitDy=0;" edge="1" parent="OmlpcQI9IJZ9FruPpQCv-438">
          <mxGeometry width="50" height="50" relative="1" as="geometry">
            <mxPoint x="80" as="sourcePoint" />
            <mxPoint x="100" y="20" as="targetPoint" />
          </mxGeometry>
        </mxCell>
        <mxCell id="OmlpcQI9IJZ9FruPpQCv-445" value="" style="endArrow=none;html=1;rounded=0;entryX=0.168;entryY=1.015;entryDx=0;entryDy=0;entryPerimeter=0;exitX=0;exitY=0;exitDx=0;exitDy=0;" edge="1" parent="OmlpcQI9IJZ9FruPpQCv-438">
          <mxGeometry width="50" height="50" relative="1" as="geometry">
            <mxPoint x="100" as="sourcePoint" />
            <mxPoint x="120" y="20" as="targetPoint" />
          </mxGeometry>
        </mxCell>
        <mxCell id="OmlpcQI9IJZ9FruPpQCv-446" value="" style="endArrow=none;html=1;rounded=0;entryX=0.168;entryY=1.015;entryDx=0;entryDy=0;entryPerimeter=0;exitX=0;exitY=0;exitDx=0;exitDy=0;" edge="1" parent="OmlpcQI9IJZ9FruPpQCv-438">
          <mxGeometry width="50" height="50" relative="1" as="geometry">
            <mxPoint x="10" as="sourcePoint" />
            <mxPoint x="30" y="20" as="targetPoint" />
          </mxGeometry>
        </mxCell>
        <mxCell id="OmlpcQI9IJZ9FruPpQCv-447" value="" style="endArrow=none;html=1;rounded=0;entryX=0.168;entryY=1.015;entryDx=0;entryDy=0;entryPerimeter=0;exitX=0;exitY=0;exitDx=0;exitDy=0;" edge="1" parent="OmlpcQI9IJZ9FruPpQCv-438">
          <mxGeometry width="50" height="50" relative="1" as="geometry">
            <mxPoint x="30" as="sourcePoint" />
            <mxPoint x="50" y="20" as="targetPoint" />
          </mxGeometry>
        </mxCell>
        <mxCell id="OmlpcQI9IJZ9FruPpQCv-448" value="" style="endArrow=none;html=1;rounded=0;entryX=0.168;entryY=1.015;entryDx=0;entryDy=0;entryPerimeter=0;exitX=0;exitY=0;exitDx=0;exitDy=0;" edge="1" parent="OmlpcQI9IJZ9FruPpQCv-438">
          <mxGeometry width="50" height="50" relative="1" as="geometry">
            <mxPoint x="50" as="sourcePoint" />
            <mxPoint x="70" y="20" as="targetPoint" />
          </mxGeometry>
        </mxCell>
        <mxCell id="OmlpcQI9IJZ9FruPpQCv-449" value="" style="endArrow=none;html=1;rounded=0;entryX=0.168;entryY=1.015;entryDx=0;entryDy=0;entryPerimeter=0;exitX=0;exitY=0;exitDx=0;exitDy=0;" edge="1" parent="OmlpcQI9IJZ9FruPpQCv-438">
          <mxGeometry width="50" height="50" relative="1" as="geometry">
            <mxPoint x="70" as="sourcePoint" />
            <mxPoint x="90" y="20" as="targetPoint" />
          </mxGeometry>
        </mxCell>
        <mxCell id="OmlpcQI9IJZ9FruPpQCv-450" value="" style="endArrow=none;html=1;rounded=0;entryX=0.168;entryY=1.015;entryDx=0;entryDy=0;entryPerimeter=0;exitX=0;exitY=0;exitDx=0;exitDy=0;" edge="1" parent="OmlpcQI9IJZ9FruPpQCv-438">
          <mxGeometry width="50" height="50" relative="1" as="geometry">
            <mxPoint x="90" as="sourcePoint" />
            <mxPoint x="110" y="20" as="targetPoint" />
          </mxGeometry>
        </mxCell>
        <mxCell id="OmlpcQI9IJZ9FruPpQCv-451" value="" style="endArrow=none;html=1;rounded=0;entryX=0.168;entryY=1.015;entryDx=0;entryDy=0;entryPerimeter=0;" edge="1" parent="OmlpcQI9IJZ9FruPpQCv-438">
          <mxGeometry width="50" height="50" relative="1" as="geometry">
            <mxPoint y="10" as="sourcePoint" />
            <mxPoint x="10" y="20" as="targetPoint" />
          </mxGeometry>
        </mxCell>
        <mxCell id="OmlpcQI9IJZ9FruPpQCv-452" value="" style="endArrow=none;html=1;rounded=0;entryX=1;entryY=0.5;entryDx=0;entryDy=0;exitX=0;exitY=0;exitDx=0;exitDy=0;" edge="1" parent="OmlpcQI9IJZ9FruPpQCv-438" target="OmlpcQI9IJZ9FruPpQCv-439">
          <mxGeometry width="50" height="50" relative="1" as="geometry">
            <mxPoint x="110" as="sourcePoint" />
            <mxPoint x="130" y="20" as="targetPoint" />
          </mxGeometry>
        </mxCell>
        <mxCell id="OmlpcQI9IJZ9FruPpQCv-453" value="" style="group" vertex="1" connectable="0" parent="1">
          <mxGeometry x="-80" y="1120" width="40" height="20" as="geometry" />
        </mxCell>
        <mxCell id="OmlpcQI9IJZ9FruPpQCv-454" value="" style="rounded=0;whiteSpace=wrap;html=1;" vertex="1" parent="OmlpcQI9IJZ9FruPpQCv-453">
          <mxGeometry width="40" height="20" as="geometry" />
        </mxCell>
        <mxCell id="OmlpcQI9IJZ9FruPpQCv-455" value="" style="endArrow=none;html=1;rounded=0;entryX=0.5;entryY=1;entryDx=0;entryDy=0;" edge="1" parent="OmlpcQI9IJZ9FruPpQCv-453" target="OmlpcQI9IJZ9FruPpQCv-454">
          <mxGeometry width="50" height="50" relative="1" as="geometry">
            <mxPoint as="sourcePoint" />
            <mxPoint x="50" y="-50" as="targetPoint" />
          </mxGeometry>
        </mxCell>
        <mxCell id="OmlpcQI9IJZ9FruPpQCv-456" value="" style="endArrow=none;html=1;rounded=0;entryX=0.5;entryY=1;entryDx=0;entryDy=0;" edge="1" parent="OmlpcQI9IJZ9FruPpQCv-453">
          <mxGeometry width="50" height="50" relative="1" as="geometry">
            <mxPoint x="10" as="sourcePoint" />
            <mxPoint x="30" y="20" as="targetPoint" />
          </mxGeometry>
        </mxCell>
        <mxCell id="OmlpcQI9IJZ9FruPpQCv-457" value="" style="endArrow=none;html=1;rounded=0;entryX=0.5;entryY=1;entryDx=0;entryDy=0;" edge="1" parent="OmlpcQI9IJZ9FruPpQCv-453">
          <mxGeometry width="50" height="50" relative="1" as="geometry">
            <mxPoint x="20" as="sourcePoint" />
            <mxPoint x="40" y="20" as="targetPoint" />
          </mxGeometry>
        </mxCell>
        <mxCell id="OmlpcQI9IJZ9FruPpQCv-458" value="" style="endArrow=none;html=1;rounded=0;" edge="1" parent="OmlpcQI9IJZ9FruPpQCv-453">
          <mxGeometry width="50" height="50" relative="1" as="geometry">
            <mxPoint x="30" as="sourcePoint" />
            <mxPoint x="40" y="10" as="targetPoint" />
          </mxGeometry>
        </mxCell>
        <mxCell id="OmlpcQI9IJZ9FruPpQCv-459" value="" style="endArrow=none;html=1;rounded=0;" edge="1" parent="OmlpcQI9IJZ9FruPpQCv-453">
          <mxGeometry width="50" height="50" relative="1" as="geometry">
            <mxPoint y="10" as="sourcePoint" />
            <mxPoint x="10" y="20" as="targetPoint" />
          </mxGeometry>
        </mxCell>
        <mxCell id="OmlpcQI9IJZ9FruPpQCv-460" value="S0" style="rounded=0;whiteSpace=wrap;html=1;" vertex="1" parent="1">
          <mxGeometry x="-80" y="1360" width="40" height="20" as="geometry" />
        </mxCell>
        <mxCell id="OmlpcQI9IJZ9FruPpQCv-461" value="" style="endArrow=none;html=1;rounded=0;" edge="1" parent="1">
          <mxGeometry width="50" height="50" relative="1" as="geometry">
            <mxPoint x="-920" y="1300" as="sourcePoint" />
            <mxPoint x="-640" y="1300" as="targetPoint" />
          </mxGeometry>
        </mxCell>
        <mxCell id="OmlpcQI9IJZ9FruPpQCv-462" value="" style="endArrow=none;html=1;rounded=0;" edge="1" parent="1">
          <mxGeometry width="50" height="50" relative="1" as="geometry">
            <mxPoint x="-640" y="1300" as="sourcePoint" />
            <mxPoint x="-640" y="1280" as="targetPoint" />
          </mxGeometry>
        </mxCell>
        <mxCell id="OmlpcQI9IJZ9FruPpQCv-464" value="S0" style="rounded=0;whiteSpace=wrap;html=1;" vertex="1" parent="1">
          <mxGeometry x="-640" y="620" width="40" height="20" as="geometry" />
        </mxCell>
        <mxCell id="OmlpcQI9IJZ9FruPpQCv-465" value="WAIT" style="rounded=0;whiteSpace=wrap;html=1;fillColor=#fff2cc;strokeColor=#d6b656;" vertex="1" parent="1">
          <mxGeometry x="-720" y="1120" width="80" height="20" as="geometry" />
        </mxCell>
        <mxCell id="OmlpcQI9IJZ9FruPpQCv-466" value="WAIT" style="rounded=0;whiteSpace=wrap;html=1;fillColor=#fff2cc;strokeColor=#d6b656;" vertex="1" parent="1">
          <mxGeometry x="-640" y="1120" width="80" height="20" as="geometry" />
        </mxCell>
        <mxCell id="OmlpcQI9IJZ9FruPpQCv-467" value="" style="endArrow=none;html=1;rounded=0;" edge="1" parent="1">
          <mxGeometry width="50" height="50" relative="1" as="geometry">
            <mxPoint x="-360" y="1180" as="sourcePoint" />
            <mxPoint x="-320" y="1180" as="targetPoint" />
          </mxGeometry>
        </mxCell>
        <mxCell id="OmlpcQI9IJZ9FruPpQCv-468" value="" style="endArrow=classic;html=1;rounded=0;" edge="1" parent="1">
          <mxGeometry width="50" height="50" relative="1" as="geometry">
            <mxPoint x="-320" y="1180" as="sourcePoint" />
            <mxPoint x="-320" y="1160" as="targetPoint" />
          </mxGeometry>
        </mxCell>
        <mxCell id="OmlpcQI9IJZ9FruPpQCv-469" value="" style="endArrow=none;html=1;rounded=0;" edge="1" parent="1">
          <mxGeometry width="50" height="50" relative="1" as="geometry">
            <mxPoint x="-280" y="1160" as="sourcePoint" />
            <mxPoint x="-280" y="1180" as="targetPoint" />
          </mxGeometry>
        </mxCell>
        <mxCell id="OmlpcQI9IJZ9FruPpQCv-470" value="" style="endArrow=none;html=1;rounded=0;" edge="1" parent="1">
          <mxGeometry width="50" height="50" relative="1" as="geometry">
            <mxPoint x="-320" y="1160" as="sourcePoint" />
            <mxPoint x="-280" y="1160" as="targetPoint" />
          </mxGeometry>
        </mxCell>
        <mxCell id="OmlpcQI9IJZ9FruPpQCv-471" value="" style="endArrow=none;html=1;rounded=0;" edge="1" parent="1">
          <mxGeometry width="50" height="50" relative="1" as="geometry">
            <mxPoint x="-280" y="1180" as="sourcePoint" />
            <mxPoint x="-240" y="1180" as="targetPoint" />
          </mxGeometry>
        </mxCell>
        <mxCell id="OmlpcQI9IJZ9FruPpQCv-610" value="BUSY" style="rounded=0;whiteSpace=wrap;html=1;fillColor=#fff2cc;strokeColor=#d6b656;" vertex="1" parent="1">
          <mxGeometry x="-480" y="1120" width="80" height="20" as="geometry" />
        </mxCell>
        <mxCell id="OmlpcQI9IJZ9FruPpQCv-611" value="WAIT" style="rounded=0;whiteSpace=wrap;html=1;fillColor=#fff2cc;strokeColor=#d6b656;" vertex="1" parent="1">
          <mxGeometry x="-240" y="1120" width="80" height="20" as="geometry" />
        </mxCell>
        <mxCell id="OmlpcQI9IJZ9FruPpQCv-613" value="" style="endArrow=none;html=1;rounded=0;" edge="1" parent="1">
          <mxGeometry width="50" height="50" relative="1" as="geometry">
            <mxPoint x="-240" y="1300" as="sourcePoint" />
            <mxPoint x="-240" y="1280" as="targetPoint" />
          </mxGeometry>
        </mxCell>
        <mxCell id="OmlpcQI9IJZ9FruPpQCv-614" value="" style="endArrow=none;html=1;rounded=0;" edge="1" parent="1">
          <mxGeometry width="50" height="50" relative="1" as="geometry">
            <mxPoint x="-240" y="1300" as="sourcePoint" />
            <mxPoint x="-160" y="1300" as="targetPoint" />
          </mxGeometry>
        </mxCell>
        <mxCell id="OmlpcQI9IJZ9FruPpQCv-615" value="" style="endArrow=none;html=1;rounded=0;" edge="1" parent="1">
          <mxGeometry width="50" height="50" relative="1" as="geometry">
            <mxPoint x="-160" y="1300" as="sourcePoint" />
            <mxPoint x="-160" y="1280" as="targetPoint" />
          </mxGeometry>
        </mxCell>
        <mxCell id="OmlpcQI9IJZ9FruPpQCv-616" value="" style="endArrow=none;html=1;rounded=0;" edge="1" parent="1">
          <mxGeometry width="50" height="50" relative="1" as="geometry">
            <mxPoint x="-160" y="1280" as="sourcePoint" />
            <mxPoint x="-40" y="1280" as="targetPoint" />
          </mxGeometry>
        </mxCell>
        <mxCell id="OmlpcQI9IJZ9FruPpQCv-617" value="" style="endArrow=classic;html=1;rounded=0;" edge="1" parent="1">
          <mxGeometry width="50" height="50" relative="1" as="geometry">
            <mxPoint x="-240" y="1180" as="sourcePoint" />
            <mxPoint x="-240" y="1160" as="targetPoint" />
          </mxGeometry>
        </mxCell>
        <mxCell id="OmlpcQI9IJZ9FruPpQCv-618" value="" style="endArrow=none;html=1;rounded=0;" edge="1" parent="1">
          <mxGeometry width="50" height="50" relative="1" as="geometry">
            <mxPoint x="-200" y="1160" as="sourcePoint" />
            <mxPoint x="-200" y="1180" as="targetPoint" />
          </mxGeometry>
        </mxCell>
        <mxCell id="OmlpcQI9IJZ9FruPpQCv-619" value="" style="endArrow=none;html=1;rounded=0;" edge="1" parent="1">
          <mxGeometry width="50" height="50" relative="1" as="geometry">
            <mxPoint x="-240" y="1160" as="sourcePoint" />
            <mxPoint x="-200" y="1160" as="targetPoint" />
          </mxGeometry>
        </mxCell>
        <mxCell id="OmlpcQI9IJZ9FruPpQCv-620" value="" style="endArrow=none;html=1;rounded=0;" edge="1" parent="1">
          <mxGeometry width="50" height="50" relative="1" as="geometry">
            <mxPoint x="-200" y="1180" as="sourcePoint" />
            <mxPoint x="-160" y="1180" as="targetPoint" />
          </mxGeometry>
        </mxCell>
        <mxCell id="OmlpcQI9IJZ9FruPpQCv-621" value="" style="endArrow=classic;html=1;rounded=0;" edge="1" parent="1">
          <mxGeometry width="50" height="50" relative="1" as="geometry">
            <mxPoint x="-160" y="1180" as="sourcePoint" />
            <mxPoint x="-160" y="1160" as="targetPoint" />
          </mxGeometry>
        </mxCell>
        <mxCell id="OmlpcQI9IJZ9FruPpQCv-623" value="" style="endArrow=none;html=1;rounded=0;" edge="1" parent="1">
          <mxGeometry width="50" height="50" relative="1" as="geometry">
            <mxPoint x="-160" y="1160" as="sourcePoint" />
            <mxPoint x="-120" y="1160" as="targetPoint" />
          </mxGeometry>
        </mxCell>
        <mxCell id="OmlpcQI9IJZ9FruPpQCv-624" value="" style="endArrow=none;html=1;rounded=0;" edge="1" parent="1">
          <mxGeometry width="50" height="50" relative="1" as="geometry">
            <mxPoint x="-120" y="1160" as="sourcePoint" />
            <mxPoint x="-120" y="1180" as="targetPoint" />
          </mxGeometry>
        </mxCell>
        <mxCell id="OmlpcQI9IJZ9FruPpQCv-625" value="" style="endArrow=none;html=1;rounded=0;" edge="1" parent="1">
          <mxGeometry width="50" height="50" relative="1" as="geometry">
            <mxPoint x="-120" y="1180" as="sourcePoint" />
            <mxPoint x="-80" y="1180" as="targetPoint" />
          </mxGeometry>
        </mxCell>
        <mxCell id="OmlpcQI9IJZ9FruPpQCv-626" value="" style="endArrow=classic;html=1;rounded=0;" edge="1" parent="1">
          <mxGeometry width="50" height="50" relative="1" as="geometry">
            <mxPoint x="-80" y="1180" as="sourcePoint" />
            <mxPoint x="-80" y="1160" as="targetPoint" />
          </mxGeometry>
        </mxCell>
        <mxCell id="OmlpcQI9IJZ9FruPpQCv-627" value="" style="endArrow=none;html=1;rounded=0;" edge="1" parent="1">
          <mxGeometry width="50" height="50" relative="1" as="geometry">
            <mxPoint x="-80" y="1160" as="sourcePoint" />
            <mxPoint x="-40" y="1160" as="targetPoint" />
          </mxGeometry>
        </mxCell>
        <mxCell id="OmlpcQI9IJZ9FruPpQCv-759" value="" style="endArrow=none;html=1;rounded=0;" edge="1" parent="1">
          <mxGeometry width="50" height="50" relative="1" as="geometry">
            <mxPoint x="-920" y="1800" as="sourcePoint" />
            <mxPoint x="-880" y="1800" as="targetPoint" />
          </mxGeometry>
        </mxCell>
        <mxCell id="OmlpcQI9IJZ9FruPpQCv-760" value="" style="endArrow=classic;html=1;rounded=0;" edge="1" parent="1">
          <mxGeometry width="50" height="50" relative="1" as="geometry">
            <mxPoint x="-880" y="1800" as="sourcePoint" />
            <mxPoint x="-880" y="1780" as="targetPoint" />
          </mxGeometry>
        </mxCell>
        <mxCell id="OmlpcQI9IJZ9FruPpQCv-761" value="" style="endArrow=none;html=1;rounded=0;" edge="1" parent="1">
          <mxGeometry width="50" height="50" relative="1" as="geometry">
            <mxPoint x="-840" y="1780" as="sourcePoint" />
            <mxPoint x="-840" y="1800" as="targetPoint" />
          </mxGeometry>
        </mxCell>
        <mxCell id="OmlpcQI9IJZ9FruPpQCv-762" value="" style="endArrow=none;html=1;rounded=0;" edge="1" parent="1">
          <mxGeometry width="50" height="50" relative="1" as="geometry">
            <mxPoint x="-880" y="1780" as="sourcePoint" />
            <mxPoint x="-840" y="1780" as="targetPoint" />
          </mxGeometry>
        </mxCell>
        <mxCell id="OmlpcQI9IJZ9FruPpQCv-763" value="" style="endArrow=none;html=1;rounded=0;" edge="1" parent="1">
          <mxGeometry width="50" height="50" relative="1" as="geometry">
            <mxPoint x="-840" y="1800" as="sourcePoint" />
            <mxPoint x="-800" y="1800" as="targetPoint" />
          </mxGeometry>
        </mxCell>
        <mxCell id="OmlpcQI9IJZ9FruPpQCv-764" value="" style="endArrow=classic;html=1;rounded=0;" edge="1" parent="1">
          <mxGeometry width="50" height="50" relative="1" as="geometry">
            <mxPoint x="-800" y="1800" as="sourcePoint" />
            <mxPoint x="-800" y="1780" as="targetPoint" />
          </mxGeometry>
        </mxCell>
        <mxCell id="OmlpcQI9IJZ9FruPpQCv-765" value="" style="endArrow=none;html=1;rounded=0;" edge="1" parent="1">
          <mxGeometry width="50" height="50" relative="1" as="geometry">
            <mxPoint x="-760" y="1780" as="sourcePoint" />
            <mxPoint x="-760" y="1800" as="targetPoint" />
          </mxGeometry>
        </mxCell>
        <mxCell id="OmlpcQI9IJZ9FruPpQCv-766" value="" style="endArrow=none;html=1;rounded=0;" edge="1" parent="1">
          <mxGeometry width="50" height="50" relative="1" as="geometry">
            <mxPoint x="-800" y="1780" as="sourcePoint" />
            <mxPoint x="-760" y="1780" as="targetPoint" />
          </mxGeometry>
        </mxCell>
        <mxCell id="OmlpcQI9IJZ9FruPpQCv-767" value="" style="endArrow=none;html=1;rounded=0;" edge="1" parent="1">
          <mxGeometry width="50" height="50" relative="1" as="geometry">
            <mxPoint x="-760" y="1800" as="sourcePoint" />
            <mxPoint x="-720" y="1800" as="targetPoint" />
          </mxGeometry>
        </mxCell>
        <mxCell id="OmlpcQI9IJZ9FruPpQCv-768" value="" style="endArrow=classic;html=1;rounded=0;" edge="1" parent="1">
          <mxGeometry width="50" height="50" relative="1" as="geometry">
            <mxPoint x="-720" y="1800" as="sourcePoint" />
            <mxPoint x="-720" y="1780" as="targetPoint" />
          </mxGeometry>
        </mxCell>
        <mxCell id="OmlpcQI9IJZ9FruPpQCv-769" value="" style="endArrow=none;html=1;rounded=0;" edge="1" parent="1">
          <mxGeometry width="50" height="50" relative="1" as="geometry">
            <mxPoint x="-680" y="1780" as="sourcePoint" />
            <mxPoint x="-680" y="1800" as="targetPoint" />
          </mxGeometry>
        </mxCell>
        <mxCell id="OmlpcQI9IJZ9FruPpQCv-770" value="" style="endArrow=none;html=1;rounded=0;" edge="1" parent="1">
          <mxGeometry width="50" height="50" relative="1" as="geometry">
            <mxPoint x="-720" y="1780" as="sourcePoint" />
            <mxPoint x="-680" y="1780" as="targetPoint" />
          </mxGeometry>
        </mxCell>
        <mxCell id="OmlpcQI9IJZ9FruPpQCv-771" value="" style="endArrow=none;html=1;rounded=0;" edge="1" parent="1">
          <mxGeometry width="50" height="50" relative="1" as="geometry">
            <mxPoint x="-680" y="1800" as="sourcePoint" />
            <mxPoint x="-640" y="1800" as="targetPoint" />
          </mxGeometry>
        </mxCell>
        <mxCell id="OmlpcQI9IJZ9FruPpQCv-772" value="" style="endArrow=classic;html=1;rounded=0;" edge="1" parent="1">
          <mxGeometry width="50" height="50" relative="1" as="geometry">
            <mxPoint x="-640" y="1800" as="sourcePoint" />
            <mxPoint x="-640" y="1780" as="targetPoint" />
          </mxGeometry>
        </mxCell>
        <mxCell id="OmlpcQI9IJZ9FruPpQCv-773" value="" style="endArrow=none;html=1;rounded=0;" edge="1" parent="1">
          <mxGeometry width="50" height="50" relative="1" as="geometry">
            <mxPoint x="-600" y="1780" as="sourcePoint" />
            <mxPoint x="-600" y="1800" as="targetPoint" />
          </mxGeometry>
        </mxCell>
        <mxCell id="OmlpcQI9IJZ9FruPpQCv-774" value="" style="endArrow=none;html=1;rounded=0;" edge="1" parent="1">
          <mxGeometry width="50" height="50" relative="1" as="geometry">
            <mxPoint x="-640" y="1780" as="sourcePoint" />
            <mxPoint x="-600" y="1780" as="targetPoint" />
          </mxGeometry>
        </mxCell>
        <mxCell id="OmlpcQI9IJZ9FruPpQCv-775" value="" style="endArrow=none;html=1;rounded=0;" edge="1" parent="1">
          <mxGeometry width="50" height="50" relative="1" as="geometry">
            <mxPoint x="-600" y="1800" as="sourcePoint" />
            <mxPoint x="-560" y="1800" as="targetPoint" />
          </mxGeometry>
        </mxCell>
        <mxCell id="OmlpcQI9IJZ9FruPpQCv-776" value="" style="endArrow=classic;html=1;rounded=0;" edge="1" parent="1">
          <mxGeometry width="50" height="50" relative="1" as="geometry">
            <mxPoint x="-560" y="1800" as="sourcePoint" />
            <mxPoint x="-560" y="1780" as="targetPoint" />
          </mxGeometry>
        </mxCell>
        <mxCell id="OmlpcQI9IJZ9FruPpQCv-777" value="" style="endArrow=none;html=1;rounded=0;" edge="1" parent="1">
          <mxGeometry width="50" height="50" relative="1" as="geometry">
            <mxPoint x="-520" y="1780" as="sourcePoint" />
            <mxPoint x="-520" y="1800" as="targetPoint" />
          </mxGeometry>
        </mxCell>
        <mxCell id="OmlpcQI9IJZ9FruPpQCv-778" value="" style="endArrow=none;html=1;rounded=0;" edge="1" parent="1">
          <mxGeometry width="50" height="50" relative="1" as="geometry">
            <mxPoint x="-560" y="1780" as="sourcePoint" />
            <mxPoint x="-520" y="1780" as="targetPoint" />
          </mxGeometry>
        </mxCell>
        <mxCell id="OmlpcQI9IJZ9FruPpQCv-779" value="" style="endArrow=none;html=1;rounded=0;" edge="1" parent="1">
          <mxGeometry width="50" height="50" relative="1" as="geometry">
            <mxPoint x="-520" y="1800" as="sourcePoint" />
            <mxPoint x="-480" y="1800" as="targetPoint" />
          </mxGeometry>
        </mxCell>
        <mxCell id="OmlpcQI9IJZ9FruPpQCv-780" value="" style="endArrow=classic;html=1;rounded=0;" edge="1" parent="1">
          <mxGeometry width="50" height="50" relative="1" as="geometry">
            <mxPoint x="-480" y="1800" as="sourcePoint" />
            <mxPoint x="-480" y="1780" as="targetPoint" />
          </mxGeometry>
        </mxCell>
        <mxCell id="OmlpcQI9IJZ9FruPpQCv-781" value="" style="endArrow=none;html=1;rounded=0;" edge="1" parent="1">
          <mxGeometry width="50" height="50" relative="1" as="geometry">
            <mxPoint x="-440" y="1780" as="sourcePoint" />
            <mxPoint x="-440" y="1800" as="targetPoint" />
          </mxGeometry>
        </mxCell>
        <mxCell id="OmlpcQI9IJZ9FruPpQCv-782" value="" style="endArrow=none;html=1;rounded=0;" edge="1" parent="1">
          <mxGeometry width="50" height="50" relative="1" as="geometry">
            <mxPoint x="-480" y="1780" as="sourcePoint" />
            <mxPoint x="-440" y="1780" as="targetPoint" />
          </mxGeometry>
        </mxCell>
        <mxCell id="OmlpcQI9IJZ9FruPpQCv-783" value="" style="endArrow=none;html=1;rounded=0;" edge="1" parent="1">
          <mxGeometry width="50" height="50" relative="1" as="geometry">
            <mxPoint x="-440" y="1800" as="sourcePoint" />
            <mxPoint x="-400" y="1800" as="targetPoint" />
          </mxGeometry>
        </mxCell>
        <mxCell id="OmlpcQI9IJZ9FruPpQCv-784" value="" style="endArrow=classic;html=1;rounded=0;" edge="1" parent="1">
          <mxGeometry width="50" height="50" relative="1" as="geometry">
            <mxPoint x="-400" y="1800" as="sourcePoint" />
            <mxPoint x="-400" y="1780" as="targetPoint" />
          </mxGeometry>
        </mxCell>
        <mxCell id="OmlpcQI9IJZ9FruPpQCv-785" value="" style="endArrow=none;html=1;rounded=0;" edge="1" parent="1">
          <mxGeometry width="50" height="50" relative="1" as="geometry">
            <mxPoint x="-360" y="1780" as="sourcePoint" />
            <mxPoint x="-360" y="1800" as="targetPoint" />
          </mxGeometry>
        </mxCell>
        <mxCell id="OmlpcQI9IJZ9FruPpQCv-786" value="" style="endArrow=none;html=1;rounded=0;" edge="1" parent="1">
          <mxGeometry width="50" height="50" relative="1" as="geometry">
            <mxPoint x="-400" y="1780" as="sourcePoint" />
            <mxPoint x="-360" y="1780" as="targetPoint" />
          </mxGeometry>
        </mxCell>
        <mxCell id="OmlpcQI9IJZ9FruPpQCv-787" value="HCLK" style="text;html=1;align=right;verticalAlign=bottom;whiteSpace=wrap;rounded=0;" vertex="1" parent="1">
          <mxGeometry x="-1080" y="1780" width="160" height="20" as="geometry" />
        </mxCell>
        <mxCell id="OmlpcQI9IJZ9FruPpQCv-788" value="HTRANS" style="text;html=1;align=right;verticalAlign=bottom;whiteSpace=wrap;rounded=0;" vertex="1" parent="1">
          <mxGeometry x="-1080" y="1820" width="160" height="20" as="geometry" />
        </mxCell>
        <mxCell id="OmlpcQI9IJZ9FruPpQCv-804" value="IDLE" style="rounded=0;whiteSpace=wrap;html=1;" vertex="1" parent="1">
          <mxGeometry x="-920" y="1820" width="120" height="20" as="geometry" />
        </mxCell>
        <mxCell id="OmlpcQI9IJZ9FruPpQCv-805" value="cr_state" style="text;html=1;align=right;verticalAlign=bottom;whiteSpace=wrap;rounded=0;" vertex="1" parent="1">
          <mxGeometry x="-1080" y="2020" width="160" height="20" as="geometry" />
        </mxCell>
        <mxCell id="OmlpcQI9IJZ9FruPpQCv-806" value="S0" style="rounded=0;whiteSpace=wrap;html=1;" vertex="1" parent="1">
          <mxGeometry x="-920" y="2020" width="200" height="20" as="geometry" />
        </mxCell>
        <mxCell id="OmlpcQI9IJZ9FruPpQCv-807" value="S1" style="rounded=0;whiteSpace=wrap;html=1;" vertex="1" parent="1">
          <mxGeometry x="-720" y="2020" width="240" height="20" as="geometry" />
        </mxCell>
        <mxCell id="OmlpcQI9IJZ9FruPpQCv-808" value="" style="endArrow=none;html=1;rounded=0;" edge="1" parent="1">
          <mxGeometry width="50" height="50" relative="1" as="geometry">
            <mxPoint x="-920" y="1880" as="sourcePoint" />
            <mxPoint x="-800" y="1880" as="targetPoint" />
          </mxGeometry>
        </mxCell>
        <mxCell id="OmlpcQI9IJZ9FruPpQCv-809" value="HSEL" style="text;html=1;align=right;verticalAlign=bottom;whiteSpace=wrap;rounded=0;" vertex="1" parent="1">
          <mxGeometry x="-1080" y="1860" width="160" height="20" as="geometry" />
        </mxCell>
        <mxCell id="OmlpcQI9IJZ9FruPpQCv-810" value="" style="endArrow=none;html=1;rounded=0;" edge="1" parent="1">
          <mxGeometry width="50" height="50" relative="1" as="geometry">
            <mxPoint x="-800" y="1880" as="sourcePoint" />
            <mxPoint x="-800" y="1860" as="targetPoint" />
          </mxGeometry>
        </mxCell>
        <mxCell id="OmlpcQI9IJZ9FruPpQCv-811" value="" style="endArrow=none;html=1;rounded=0;" edge="1" parent="1">
          <mxGeometry width="50" height="50" relative="1" as="geometry">
            <mxPoint x="-800" y="1860" as="sourcePoint" />
            <mxPoint x="-480" y="1860" as="targetPoint" />
          </mxGeometry>
        </mxCell>
        <mxCell id="OmlpcQI9IJZ9FruPpQCv-812" value="HREADY" style="text;html=1;align=right;verticalAlign=bottom;whiteSpace=wrap;rounded=0;" vertex="1" parent="1">
          <mxGeometry x="-1080" y="1900" width="160" height="20" as="geometry" />
        </mxCell>
        <mxCell id="OmlpcQI9IJZ9FruPpQCv-813" value="" style="endArrow=none;html=1;rounded=0;" edge="1" parent="1">
          <mxGeometry width="50" height="50" relative="1" as="geometry">
            <mxPoint x="-920" y="1900" as="sourcePoint" />
            <mxPoint x="-560" y="1900" as="targetPoint" />
          </mxGeometry>
        </mxCell>
        <mxCell id="OmlpcQI9IJZ9FruPpQCv-814" value="master_granted" style="text;html=1;align=right;verticalAlign=bottom;whiteSpace=wrap;rounded=0;" vertex="1" parent="1">
          <mxGeometry x="-1080" y="1980" width="160" height="20" as="geometry" />
        </mxCell>
        <mxCell id="OmlpcQI9IJZ9FruPpQCv-815" value="" style="endArrow=none;html=1;rounded=0;" edge="1" parent="1">
          <mxGeometry width="50" height="50" relative="1" as="geometry">
            <mxPoint x="-920" y="2000" as="sourcePoint" />
            <mxPoint x="-800" y="2000" as="targetPoint" />
          </mxGeometry>
        </mxCell>
        <mxCell id="OmlpcQI9IJZ9FruPpQCv-816" value="" style="endArrow=none;html=1;rounded=0;" edge="1" parent="1">
          <mxGeometry width="50" height="50" relative="1" as="geometry">
            <mxPoint x="-800" y="2000" as="sourcePoint" />
            <mxPoint x="-800" y="1980" as="targetPoint" />
          </mxGeometry>
        </mxCell>
        <mxCell id="OmlpcQI9IJZ9FruPpQCv-817" value="" style="endArrow=none;html=1;rounded=0;" edge="1" parent="1">
          <mxGeometry width="50" height="50" relative="1" as="geometry">
            <mxPoint x="-800" y="1980" as="sourcePoint" />
            <mxPoint x="-480" y="1980" as="targetPoint" />
          </mxGeometry>
        </mxCell>
        <mxCell id="OmlpcQI9IJZ9FruPpQCv-818" value="" style="endArrow=none;html=1;rounded=0;" edge="1" parent="1">
          <mxGeometry width="50" height="50" relative="1" as="geometry">
            <mxPoint x="-480" y="2000" as="sourcePoint" />
            <mxPoint x="-480" y="1980" as="targetPoint" />
          </mxGeometry>
        </mxCell>
        <mxCell id="OmlpcQI9IJZ9FruPpQCv-819" value="" style="endArrow=none;html=1;rounded=0;" edge="1" parent="1">
          <mxGeometry width="50" height="50" relative="1" as="geometry">
            <mxPoint x="-480" y="2000" as="sourcePoint" />
            <mxPoint x="-320" y="2000" as="targetPoint" />
          </mxGeometry>
        </mxCell>
        <mxCell id="OmlpcQI9IJZ9FruPpQCv-837" value="S3" style="rounded=0;whiteSpace=wrap;html=1;" vertex="1" parent="1">
          <mxGeometry x="-480" y="2020" width="80" height="20" as="geometry" />
        </mxCell>
        <mxCell id="OmlpcQI9IJZ9FruPpQCv-840" value="" style="endArrow=none;html=1;rounded=0;" edge="1" parent="1">
          <mxGeometry width="50" height="50" relative="1" as="geometry">
            <mxPoint x="-360" y="1800" as="sourcePoint" />
            <mxPoint x="-320" y="1800" as="targetPoint" />
          </mxGeometry>
        </mxCell>
        <mxCell id="OmlpcQI9IJZ9FruPpQCv-845" value="" style="endArrow=none;html=1;rounded=0;" edge="1" parent="1">
          <mxGeometry width="50" height="50" relative="1" as="geometry">
            <mxPoint x="-560" y="1920" as="sourcePoint" />
            <mxPoint x="-560" y="1900" as="targetPoint" />
          </mxGeometry>
        </mxCell>
        <mxCell id="OmlpcQI9IJZ9FruPpQCv-846" value="" style="endArrow=none;html=1;rounded=0;" edge="1" parent="1">
          <mxGeometry width="50" height="50" relative="1" as="geometry">
            <mxPoint x="-560" y="1920" as="sourcePoint" />
            <mxPoint x="-480" y="1920" as="targetPoint" />
          </mxGeometry>
        </mxCell>
        <mxCell id="OmlpcQI9IJZ9FruPpQCv-847" value="" style="endArrow=none;html=1;rounded=0;" edge="1" parent="1">
          <mxGeometry width="50" height="50" relative="1" as="geometry">
            <mxPoint x="-480" y="1920" as="sourcePoint" />
            <mxPoint x="-480" y="1900" as="targetPoint" />
          </mxGeometry>
        </mxCell>
        <mxCell id="OmlpcQI9IJZ9FruPpQCv-848" value="" style="endArrow=none;html=1;rounded=0;" edge="1" parent="1">
          <mxGeometry width="50" height="50" relative="1" as="geometry">
            <mxPoint x="-480" y="1900" as="sourcePoint" />
            <mxPoint x="-320" y="1900" as="targetPoint" />
          </mxGeometry>
        </mxCell>
        <mxCell id="OmlpcQI9IJZ9FruPpQCv-859" value="NONSEQ" style="rounded=0;whiteSpace=wrap;html=1;" vertex="1" parent="1">
          <mxGeometry x="-800" y="1820" width="80" height="20" as="geometry" />
        </mxCell>
        <mxCell id="OmlpcQI9IJZ9FruPpQCv-860" value="SEQ" style="rounded=0;whiteSpace=wrap;html=1;" vertex="1" parent="1">
          <mxGeometry x="-720" y="1820" width="80" height="20" as="geometry" />
        </mxCell>
        <mxCell id="OmlpcQI9IJZ9FruPpQCv-861" value="SEQ" style="rounded=0;whiteSpace=wrap;html=1;" vertex="1" parent="1">
          <mxGeometry x="-640" y="1820" width="80" height="20" as="geometry" />
        </mxCell>
        <mxCell id="OmlpcQI9IJZ9FruPpQCv-863" value="SEQ" style="rounded=0;whiteSpace=wrap;html=1;" vertex="1" parent="1">
          <mxGeometry x="-560" y="1820" width="80" height="20" as="geometry" />
        </mxCell>
        <mxCell id="OmlpcQI9IJZ9FruPpQCv-864" value="HREPS" style="text;html=1;align=right;verticalAlign=bottom;whiteSpace=wrap;rounded=0;" vertex="1" parent="1">
          <mxGeometry x="-1080" y="1940" width="160" height="20" as="geometry" />
        </mxCell>
        <mxCell id="OmlpcQI9IJZ9FruPpQCv-865" value="" style="endArrow=none;html=1;rounded=0;" edge="1" parent="1">
          <mxGeometry width="50" height="50" relative="1" as="geometry">
            <mxPoint x="-920" y="1960" as="sourcePoint" />
            <mxPoint x="-560" y="1960" as="targetPoint" />
          </mxGeometry>
        </mxCell>
        <mxCell id="OmlpcQI9IJZ9FruPpQCv-866" value="" style="endArrow=none;html=1;rounded=0;" edge="1" parent="1">
          <mxGeometry width="50" height="50" relative="1" as="geometry">
            <mxPoint x="-560" y="1960" as="sourcePoint" />
            <mxPoint x="-560" y="1940" as="targetPoint" />
          </mxGeometry>
        </mxCell>
        <mxCell id="OmlpcQI9IJZ9FruPpQCv-867" value="" style="endArrow=none;html=1;rounded=0;" edge="1" parent="1">
          <mxGeometry width="50" height="50" relative="1" as="geometry">
            <mxPoint x="-560" y="1940" as="sourcePoint" />
            <mxPoint x="-400" y="1940" as="targetPoint" />
          </mxGeometry>
        </mxCell>
        <mxCell id="OmlpcQI9IJZ9FruPpQCv-868" value="" style="endArrow=none;html=1;rounded=0;" edge="1" parent="1">
          <mxGeometry width="50" height="50" relative="1" as="geometry">
            <mxPoint x="-400" y="1960" as="sourcePoint" />
            <mxPoint x="-400" y="1940" as="targetPoint" />
          </mxGeometry>
        </mxCell>
        <mxCell id="OmlpcQI9IJZ9FruPpQCv-870" value="IDLE" style="rounded=0;whiteSpace=wrap;html=1;" vertex="1" parent="1">
          <mxGeometry x="-480" y="1820" width="80" height="20" as="geometry" />
        </mxCell>
        <mxCell id="OmlpcQI9IJZ9FruPpQCv-886" value="" style="rounded=0;whiteSpace=wrap;html=1;" vertex="1" parent="1">
          <mxGeometry x="-400" y="1820" width="80" height="20" as="geometry" />
        </mxCell>
        <mxCell id="OmlpcQI9IJZ9FruPpQCv-887" value="" style="endArrow=none;html=1;rounded=0;" edge="1" parent="1">
          <mxGeometry width="50" height="50" relative="1" as="geometry">
            <mxPoint x="-480" y="1880" as="sourcePoint" />
            <mxPoint x="-480" y="1860" as="targetPoint" />
          </mxGeometry>
        </mxCell>
        <mxCell id="OmlpcQI9IJZ9FruPpQCv-888" value="" style="endArrow=none;html=1;rounded=0;" edge="1" parent="1">
          <mxGeometry width="50" height="50" relative="1" as="geometry">
            <mxPoint x="-480" y="1880" as="sourcePoint" />
            <mxPoint x="-320" y="1880" as="targetPoint" />
          </mxGeometry>
        </mxCell>
        <mxCell id="OmlpcQI9IJZ9FruPpQCv-889" value="" style="endArrow=none;html=1;rounded=0;" edge="1" parent="1">
          <mxGeometry width="50" height="50" relative="1" as="geometry">
            <mxPoint x="-400" y="1960" as="sourcePoint" />
            <mxPoint x="-320" y="1960" as="targetPoint" />
          </mxGeometry>
        </mxCell>
        <mxCell id="OmlpcQI9IJZ9FruPpQCv-890" value="" style="endArrow=none;html=1;rounded=0;" edge="1" parent="1">
          <mxGeometry width="50" height="50" relative="1" as="geometry">
            <mxPoint x="-920" y="2320" as="sourcePoint" />
            <mxPoint x="-880" y="2320" as="targetPoint" />
          </mxGeometry>
        </mxCell>
        <mxCell id="OmlpcQI9IJZ9FruPpQCv-891" value="" style="endArrow=classic;html=1;rounded=0;" edge="1" parent="1">
          <mxGeometry width="50" height="50" relative="1" as="geometry">
            <mxPoint x="-880" y="2320" as="sourcePoint" />
            <mxPoint x="-880" y="2300" as="targetPoint" />
          </mxGeometry>
        </mxCell>
        <mxCell id="OmlpcQI9IJZ9FruPpQCv-892" value="" style="endArrow=none;html=1;rounded=0;" edge="1" parent="1">
          <mxGeometry width="50" height="50" relative="1" as="geometry">
            <mxPoint x="-840" y="2300" as="sourcePoint" />
            <mxPoint x="-840" y="2320" as="targetPoint" />
          </mxGeometry>
        </mxCell>
        <mxCell id="OmlpcQI9IJZ9FruPpQCv-893" value="" style="endArrow=none;html=1;rounded=0;" edge="1" parent="1">
          <mxGeometry width="50" height="50" relative="1" as="geometry">
            <mxPoint x="-880" y="2300" as="sourcePoint" />
            <mxPoint x="-840" y="2300" as="targetPoint" />
          </mxGeometry>
        </mxCell>
        <mxCell id="OmlpcQI9IJZ9FruPpQCv-894" value="" style="endArrow=none;html=1;rounded=0;" edge="1" parent="1">
          <mxGeometry width="50" height="50" relative="1" as="geometry">
            <mxPoint x="-840" y="2320" as="sourcePoint" />
            <mxPoint x="-800" y="2320" as="targetPoint" />
          </mxGeometry>
        </mxCell>
        <mxCell id="OmlpcQI9IJZ9FruPpQCv-895" value="" style="endArrow=classic;html=1;rounded=0;" edge="1" parent="1">
          <mxGeometry width="50" height="50" relative="1" as="geometry">
            <mxPoint x="-800" y="2320" as="sourcePoint" />
            <mxPoint x="-800" y="2300" as="targetPoint" />
          </mxGeometry>
        </mxCell>
        <mxCell id="OmlpcQI9IJZ9FruPpQCv-896" value="" style="endArrow=none;html=1;rounded=0;" edge="1" parent="1">
          <mxGeometry width="50" height="50" relative="1" as="geometry">
            <mxPoint x="-760" y="2300" as="sourcePoint" />
            <mxPoint x="-760" y="2320" as="targetPoint" />
          </mxGeometry>
        </mxCell>
        <mxCell id="OmlpcQI9IJZ9FruPpQCv-897" value="" style="endArrow=none;html=1;rounded=0;" edge="1" parent="1">
          <mxGeometry width="50" height="50" relative="1" as="geometry">
            <mxPoint x="-800" y="2300" as="sourcePoint" />
            <mxPoint x="-760" y="2300" as="targetPoint" />
          </mxGeometry>
        </mxCell>
        <mxCell id="OmlpcQI9IJZ9FruPpQCv-898" value="" style="endArrow=none;html=1;rounded=0;" edge="1" parent="1">
          <mxGeometry width="50" height="50" relative="1" as="geometry">
            <mxPoint x="-760" y="2320" as="sourcePoint" />
            <mxPoint x="-720" y="2320" as="targetPoint" />
          </mxGeometry>
        </mxCell>
        <mxCell id="OmlpcQI9IJZ9FruPpQCv-899" value="" style="endArrow=classic;html=1;rounded=0;" edge="1" parent="1">
          <mxGeometry width="50" height="50" relative="1" as="geometry">
            <mxPoint x="-720" y="2320" as="sourcePoint" />
            <mxPoint x="-720" y="2300" as="targetPoint" />
          </mxGeometry>
        </mxCell>
        <mxCell id="OmlpcQI9IJZ9FruPpQCv-900" value="" style="endArrow=none;html=1;rounded=0;" edge="1" parent="1">
          <mxGeometry width="50" height="50" relative="1" as="geometry">
            <mxPoint x="-680" y="2300" as="sourcePoint" />
            <mxPoint x="-680" y="2320" as="targetPoint" />
          </mxGeometry>
        </mxCell>
        <mxCell id="OmlpcQI9IJZ9FruPpQCv-901" value="" style="endArrow=none;html=1;rounded=0;" edge="1" parent="1">
          <mxGeometry width="50" height="50" relative="1" as="geometry">
            <mxPoint x="-720" y="2300" as="sourcePoint" />
            <mxPoint x="-680" y="2300" as="targetPoint" />
          </mxGeometry>
        </mxCell>
        <mxCell id="OmlpcQI9IJZ9FruPpQCv-902" value="" style="endArrow=none;html=1;rounded=0;" edge="1" parent="1">
          <mxGeometry width="50" height="50" relative="1" as="geometry">
            <mxPoint x="-680" y="2320" as="sourcePoint" />
            <mxPoint x="-640" y="2320" as="targetPoint" />
          </mxGeometry>
        </mxCell>
        <mxCell id="OmlpcQI9IJZ9FruPpQCv-903" value="" style="endArrow=classic;html=1;rounded=0;" edge="1" parent="1">
          <mxGeometry width="50" height="50" relative="1" as="geometry">
            <mxPoint x="-640" y="2320" as="sourcePoint" />
            <mxPoint x="-640" y="2300" as="targetPoint" />
          </mxGeometry>
        </mxCell>
        <mxCell id="OmlpcQI9IJZ9FruPpQCv-904" value="" style="endArrow=none;html=1;rounded=0;" edge="1" parent="1">
          <mxGeometry width="50" height="50" relative="1" as="geometry">
            <mxPoint x="-600" y="2300" as="sourcePoint" />
            <mxPoint x="-600" y="2320" as="targetPoint" />
          </mxGeometry>
        </mxCell>
        <mxCell id="OmlpcQI9IJZ9FruPpQCv-905" value="" style="endArrow=none;html=1;rounded=0;" edge="1" parent="1">
          <mxGeometry width="50" height="50" relative="1" as="geometry">
            <mxPoint x="-640" y="2300" as="sourcePoint" />
            <mxPoint x="-600" y="2300" as="targetPoint" />
          </mxGeometry>
        </mxCell>
        <mxCell id="OmlpcQI9IJZ9FruPpQCv-906" value="" style="endArrow=none;html=1;rounded=0;" edge="1" parent="1">
          <mxGeometry width="50" height="50" relative="1" as="geometry">
            <mxPoint x="-600" y="2320" as="sourcePoint" />
            <mxPoint x="-560" y="2320" as="targetPoint" />
          </mxGeometry>
        </mxCell>
        <mxCell id="OmlpcQI9IJZ9FruPpQCv-907" value="" style="endArrow=classic;html=1;rounded=0;" edge="1" parent="1">
          <mxGeometry width="50" height="50" relative="1" as="geometry">
            <mxPoint x="-560" y="2320" as="sourcePoint" />
            <mxPoint x="-560" y="2300" as="targetPoint" />
          </mxGeometry>
        </mxCell>
        <mxCell id="OmlpcQI9IJZ9FruPpQCv-908" value="" style="endArrow=none;html=1;rounded=0;" edge="1" parent="1">
          <mxGeometry width="50" height="50" relative="1" as="geometry">
            <mxPoint x="-520" y="2300" as="sourcePoint" />
            <mxPoint x="-520" y="2320" as="targetPoint" />
          </mxGeometry>
        </mxCell>
        <mxCell id="OmlpcQI9IJZ9FruPpQCv-909" value="" style="endArrow=none;html=1;rounded=0;" edge="1" parent="1">
          <mxGeometry width="50" height="50" relative="1" as="geometry">
            <mxPoint x="-560" y="2300" as="sourcePoint" />
            <mxPoint x="-520" y="2300" as="targetPoint" />
          </mxGeometry>
        </mxCell>
        <mxCell id="OmlpcQI9IJZ9FruPpQCv-910" value="" style="endArrow=none;html=1;rounded=0;" edge="1" parent="1">
          <mxGeometry width="50" height="50" relative="1" as="geometry">
            <mxPoint x="-520" y="2320" as="sourcePoint" />
            <mxPoint x="-480" y="2320" as="targetPoint" />
          </mxGeometry>
        </mxCell>
        <mxCell id="OmlpcQI9IJZ9FruPpQCv-911" value="" style="endArrow=classic;html=1;rounded=0;" edge="1" parent="1">
          <mxGeometry width="50" height="50" relative="1" as="geometry">
            <mxPoint x="-480" y="2320" as="sourcePoint" />
            <mxPoint x="-480" y="2300" as="targetPoint" />
          </mxGeometry>
        </mxCell>
        <mxCell id="OmlpcQI9IJZ9FruPpQCv-912" value="" style="endArrow=none;html=1;rounded=0;" edge="1" parent="1">
          <mxGeometry width="50" height="50" relative="1" as="geometry">
            <mxPoint x="-440" y="2300" as="sourcePoint" />
            <mxPoint x="-440" y="2320" as="targetPoint" />
          </mxGeometry>
        </mxCell>
        <mxCell id="OmlpcQI9IJZ9FruPpQCv-913" value="" style="endArrow=none;html=1;rounded=0;" edge="1" parent="1">
          <mxGeometry width="50" height="50" relative="1" as="geometry">
            <mxPoint x="-480" y="2300" as="sourcePoint" />
            <mxPoint x="-440" y="2300" as="targetPoint" />
          </mxGeometry>
        </mxCell>
        <mxCell id="OmlpcQI9IJZ9FruPpQCv-914" value="" style="endArrow=none;html=1;rounded=0;" edge="1" parent="1">
          <mxGeometry width="50" height="50" relative="1" as="geometry">
            <mxPoint x="-440" y="2320" as="sourcePoint" />
            <mxPoint x="-400" y="2320" as="targetPoint" />
          </mxGeometry>
        </mxCell>
        <mxCell id="OmlpcQI9IJZ9FruPpQCv-915" value="" style="endArrow=classic;html=1;rounded=0;" edge="1" parent="1">
          <mxGeometry width="50" height="50" relative="1" as="geometry">
            <mxPoint x="-400" y="2320" as="sourcePoint" />
            <mxPoint x="-400" y="2300" as="targetPoint" />
          </mxGeometry>
        </mxCell>
        <mxCell id="OmlpcQI9IJZ9FruPpQCv-916" value="" style="endArrow=none;html=1;rounded=0;" edge="1" parent="1">
          <mxGeometry width="50" height="50" relative="1" as="geometry">
            <mxPoint x="-360" y="2300" as="sourcePoint" />
            <mxPoint x="-360" y="2320" as="targetPoint" />
          </mxGeometry>
        </mxCell>
        <mxCell id="OmlpcQI9IJZ9FruPpQCv-917" value="" style="endArrow=none;html=1;rounded=0;" edge="1" parent="1">
          <mxGeometry width="50" height="50" relative="1" as="geometry">
            <mxPoint x="-400" y="2300" as="sourcePoint" />
            <mxPoint x="-360" y="2300" as="targetPoint" />
          </mxGeometry>
        </mxCell>
        <mxCell id="OmlpcQI9IJZ9FruPpQCv-918" value="HCLK" style="text;html=1;align=right;verticalAlign=bottom;whiteSpace=wrap;rounded=0;" vertex="1" parent="1">
          <mxGeometry x="-1080" y="2300" width="160" height="20" as="geometry" />
        </mxCell>
        <mxCell id="OmlpcQI9IJZ9FruPpQCv-919" value="HTRANS" style="text;html=1;align=right;verticalAlign=bottom;rounded=0;labelBorderColor=none;labelBackgroundColor=none;fontColor=#0000FF;" vertex="1" parent="1">
          <mxGeometry x="-1080" y="2340" width="160" height="20" as="geometry" />
        </mxCell>
        <mxCell id="OmlpcQI9IJZ9FruPpQCv-920" value="IDLE" style="rounded=0;whiteSpace=wrap;html=1;strokeColor=#0000FF;" vertex="1" parent="1">
          <mxGeometry x="-920" y="2340" width="120" height="20" as="geometry" />
        </mxCell>
        <mxCell id="OmlpcQI9IJZ9FruPpQCv-921" value="cr_state" style="text;html=1;align=right;verticalAlign=bottom;rounded=0;labelBorderColor=none;labelBackgroundColor=none;fontColor=#0000FF;" vertex="1" parent="1">
          <mxGeometry x="-1080" y="2500" width="160" height="20" as="geometry" />
        </mxCell>
        <mxCell id="OmlpcQI9IJZ9FruPpQCv-922" value="S0" style="rounded=0;whiteSpace=wrap;html=1;strokeColor=#0000FF;" vertex="1" parent="1">
          <mxGeometry x="-920" y="2500" width="200" height="20" as="geometry" />
        </mxCell>
        <mxCell id="OmlpcQI9IJZ9FruPpQCv-923" value="S1" style="rounded=0;whiteSpace=wrap;html=1;strokeColor=#0000FF;" vertex="1" parent="1">
          <mxGeometry x="-720" y="2500" width="320" height="20" as="geometry" />
        </mxCell>
        <mxCell id="OmlpcQI9IJZ9FruPpQCv-924" value="" style="endArrow=none;html=1;rounded=0;strokeColor=#0000FF;" edge="1" parent="1">
          <mxGeometry width="50" height="50" relative="1" as="geometry">
            <mxPoint x="-920" y="2400" as="sourcePoint" />
            <mxPoint x="-800" y="2400" as="targetPoint" />
          </mxGeometry>
        </mxCell>
        <mxCell id="OmlpcQI9IJZ9FruPpQCv-925" value="HSEL" style="text;html=1;align=right;verticalAlign=bottom;rounded=0;labelBorderColor=none;labelBackgroundColor=none;fontColor=#0000FF;" vertex="1" parent="1">
          <mxGeometry x="-1080" y="2380" width="160" height="20" as="geometry" />
        </mxCell>
        <mxCell id="OmlpcQI9IJZ9FruPpQCv-926" value="" style="endArrow=none;html=1;rounded=0;strokeColor=#0000FF;" edge="1" parent="1">
          <mxGeometry width="50" height="50" relative="1" as="geometry">
            <mxPoint x="-800" y="2400" as="sourcePoint" />
            <mxPoint x="-800" y="2380" as="targetPoint" />
          </mxGeometry>
        </mxCell>
        <mxCell id="OmlpcQI9IJZ9FruPpQCv-927" value="" style="endArrow=none;html=1;rounded=0;strokeColor=#0000FF;" edge="1" parent="1">
          <mxGeometry width="50" height="50" relative="1" as="geometry">
            <mxPoint x="-800" y="2380" as="sourcePoint" />
            <mxPoint x="-480" y="2380" as="targetPoint" />
          </mxGeometry>
        </mxCell>
        <mxCell id="OmlpcQI9IJZ9FruPpQCv-928" value="HREADY" style="text;html=1;align=right;verticalAlign=bottom;rounded=0;labelBorderColor=none;labelBackgroundColor=none;fontColor=#0000FF;" vertex="1" parent="1">
          <mxGeometry x="-1080" y="2420" width="160" height="20" as="geometry" />
        </mxCell>
        <mxCell id="OmlpcQI9IJZ9FruPpQCv-929" value="" style="endArrow=none;html=1;rounded=0;strokeColor=#0000FF;" edge="1" parent="1">
          <mxGeometry width="50" height="50" relative="1" as="geometry">
            <mxPoint x="-920" y="2420" as="sourcePoint" />
            <mxPoint x="-400" y="2420" as="targetPoint" />
          </mxGeometry>
        </mxCell>
        <mxCell id="OmlpcQI9IJZ9FruPpQCv-930" value="master_granted" style="text;html=1;align=right;verticalAlign=bottom;rounded=0;labelBorderColor=none;labelBackgroundColor=none;fontColor=#0000FF;" vertex="1" parent="1">
          <mxGeometry x="-1080" y="2460" width="160" height="20" as="geometry" />
        </mxCell>
        <mxCell id="OmlpcQI9IJZ9FruPpQCv-931" value="" style="endArrow=none;html=1;rounded=0;strokeColor=#0000FF;" edge="1" parent="1">
          <mxGeometry width="50" height="50" relative="1" as="geometry">
            <mxPoint x="-920" y="2480" as="sourcePoint" />
            <mxPoint x="-800" y="2480" as="targetPoint" />
          </mxGeometry>
        </mxCell>
        <mxCell id="OmlpcQI9IJZ9FruPpQCv-932" value="" style="endArrow=none;html=1;rounded=0;strokeColor=#0000FF;" edge="1" parent="1">
          <mxGeometry width="50" height="50" relative="1" as="geometry">
            <mxPoint x="-800" y="2480" as="sourcePoint" />
            <mxPoint x="-800" y="2460" as="targetPoint" />
          </mxGeometry>
        </mxCell>
        <mxCell id="OmlpcQI9IJZ9FruPpQCv-933" value="" style="endArrow=none;html=1;rounded=0;strokeColor=#0000FF;" edge="1" parent="1">
          <mxGeometry width="50" height="50" relative="1" as="geometry">
            <mxPoint x="-800" y="2460" as="sourcePoint" />
            <mxPoint x="-480" y="2460" as="targetPoint" />
          </mxGeometry>
        </mxCell>
        <mxCell id="OmlpcQI9IJZ9FruPpQCv-934" value="" style="endArrow=none;html=1;rounded=0;strokeColor=#0000FF;" edge="1" parent="1">
          <mxGeometry width="50" height="50" relative="1" as="geometry">
            <mxPoint x="-480" y="2480" as="sourcePoint" />
            <mxPoint x="-480" y="2460" as="targetPoint" />
          </mxGeometry>
        </mxCell>
        <mxCell id="OmlpcQI9IJZ9FruPpQCv-935" value="" style="endArrow=none;html=1;rounded=0;strokeColor=#0000FF;" edge="1" parent="1">
          <mxGeometry width="50" height="50" relative="1" as="geometry">
            <mxPoint x="-480" y="2480" as="sourcePoint" />
            <mxPoint x="-320" y="2480" as="targetPoint" />
          </mxGeometry>
        </mxCell>
        <mxCell id="OmlpcQI9IJZ9FruPpQCv-936" value="S0" style="rounded=0;whiteSpace=wrap;html=1;strokeColor=#0000FF;" vertex="1" parent="1">
          <mxGeometry x="-400" y="2500" width="80" height="20" as="geometry" />
        </mxCell>
        <mxCell id="OmlpcQI9IJZ9FruPpQCv-937" value="" style="endArrow=none;html=1;rounded=0;" edge="1" parent="1">
          <mxGeometry width="50" height="50" relative="1" as="geometry">
            <mxPoint x="-360" y="2320" as="sourcePoint" />
            <mxPoint x="-320" y="2320" as="targetPoint" />
          </mxGeometry>
        </mxCell>
        <mxCell id="OmlpcQI9IJZ9FruPpQCv-942" value="NONSEQ" style="rounded=0;whiteSpace=wrap;html=1;strokeColor=#0000FF;" vertex="1" parent="1">
          <mxGeometry x="-800" y="2340" width="80" height="20" as="geometry" />
        </mxCell>
        <mxCell id="OmlpcQI9IJZ9FruPpQCv-943" value="SEQ" style="rounded=0;whiteSpace=wrap;html=1;strokeColor=#0000FF;" vertex="1" parent="1">
          <mxGeometry x="-720" y="2340" width="80" height="20" as="geometry" />
        </mxCell>
        <mxCell id="OmlpcQI9IJZ9FruPpQCv-944" value="SEQ" style="rounded=0;whiteSpace=wrap;html=1;strokeColor=#0000FF;" vertex="1" parent="1">
          <mxGeometry x="-640" y="2340" width="80" height="20" as="geometry" />
        </mxCell>
        <mxCell id="OmlpcQI9IJZ9FruPpQCv-945" value="SEQ" style="rounded=0;whiteSpace=wrap;html=1;strokeColor=#0000FF;" vertex="1" parent="1">
          <mxGeometry x="-560" y="2340" width="80" height="20" as="geometry" />
        </mxCell>
        <mxCell id="OmlpcQI9IJZ9FruPpQCv-951" value="IDLE" style="rounded=0;whiteSpace=wrap;html=1;strokeColor=#0000FF;" vertex="1" parent="1">
          <mxGeometry x="-480" y="2340" width="80" height="20" as="geometry" />
        </mxCell>
        <mxCell id="OmlpcQI9IJZ9FruPpQCv-952" value="" style="rounded=0;whiteSpace=wrap;html=1;strokeColor=#0000FF;" vertex="1" parent="1">
          <mxGeometry x="-400" y="2340" width="80" height="20" as="geometry" />
        </mxCell>
        <mxCell id="OmlpcQI9IJZ9FruPpQCv-953" value="" style="endArrow=none;html=1;rounded=0;strokeColor=#0000FF;" edge="1" parent="1">
          <mxGeometry width="50" height="50" relative="1" as="geometry">
            <mxPoint x="-480" y="2400" as="sourcePoint" />
            <mxPoint x="-480" y="2380" as="targetPoint" />
          </mxGeometry>
        </mxCell>
        <mxCell id="OmlpcQI9IJZ9FruPpQCv-954" value="" style="endArrow=none;html=1;rounded=0;strokeColor=#0000FF;" edge="1" parent="1">
          <mxGeometry width="50" height="50" relative="1" as="geometry">
            <mxPoint x="-480" y="2400" as="sourcePoint" />
            <mxPoint x="-320" y="2400" as="targetPoint" />
          </mxGeometry>
        </mxCell>
        <mxCell id="OmlpcQI9IJZ9FruPpQCv-956" value="HTRANS" style="text;html=1;align=right;verticalAlign=bottom;rounded=0;labelBorderColor=none;labelBackgroundColor=none;fontColor=#4D9900;" vertex="1" parent="1">
          <mxGeometry x="-1080" y="2540" width="160" height="20" as="geometry" />
        </mxCell>
        <mxCell id="OmlpcQI9IJZ9FruPpQCv-957" value="IDLE" style="rounded=0;whiteSpace=wrap;html=1;strokeColor=#4D9900;" vertex="1" parent="1">
          <mxGeometry x="-920" y="2540" width="120" height="20" as="geometry" />
        </mxCell>
        <mxCell id="OmlpcQI9IJZ9FruPpQCv-958" value="cr_state" style="text;html=1;align=right;verticalAlign=bottom;rounded=0;labelBorderColor=none;labelBackgroundColor=none;fontColor=#4D9900;" vertex="1" parent="1">
          <mxGeometry x="-1080" y="2700" width="160" height="20" as="geometry" />
        </mxCell>
        <mxCell id="OmlpcQI9IJZ9FruPpQCv-959" value="S0" style="rounded=0;whiteSpace=wrap;html=1;strokeColor=#4D9900;" vertex="1" parent="1">
          <mxGeometry x="-920" y="2700" width="200" height="20" as="geometry" />
        </mxCell>
        <mxCell id="OmlpcQI9IJZ9FruPpQCv-960" value="S1" style="rounded=0;whiteSpace=wrap;html=1;strokeColor=#4D9900;" vertex="1" parent="1">
          <mxGeometry x="-400" y="2700" width="80" height="20" as="geometry" />
        </mxCell>
        <mxCell id="OmlpcQI9IJZ9FruPpQCv-961" value="" style="endArrow=none;html=1;rounded=0;strokeColor=#4D9900;" edge="1" parent="1">
          <mxGeometry width="50" height="50" relative="1" as="geometry">
            <mxPoint x="-920" y="2600" as="sourcePoint" />
            <mxPoint x="-800" y="2600" as="targetPoint" />
          </mxGeometry>
        </mxCell>
        <mxCell id="OmlpcQI9IJZ9FruPpQCv-962" value="HSEL" style="text;html=1;align=right;verticalAlign=bottom;rounded=0;labelBorderColor=none;labelBackgroundColor=none;fontColor=#4D9900;" vertex="1" parent="1">
          <mxGeometry x="-1080" y="2580" width="160" height="20" as="geometry" />
        </mxCell>
        <mxCell id="OmlpcQI9IJZ9FruPpQCv-963" value="" style="endArrow=none;html=1;rounded=0;strokeColor=#4D9900;" edge="1" parent="1">
          <mxGeometry width="50" height="50" relative="1" as="geometry">
            <mxPoint x="-800" y="2600" as="sourcePoint" />
            <mxPoint x="-800" y="2580" as="targetPoint" />
          </mxGeometry>
        </mxCell>
        <mxCell id="OmlpcQI9IJZ9FruPpQCv-964" value="" style="endArrow=none;html=1;rounded=0;strokeColor=#4D9900;" edge="1" parent="1">
          <mxGeometry width="50" height="50" relative="1" as="geometry">
            <mxPoint x="-800" y="2580" as="sourcePoint" />
            <mxPoint x="-320" y="2580" as="targetPoint" />
          </mxGeometry>
        </mxCell>
        <mxCell id="OmlpcQI9IJZ9FruPpQCv-965" value="HREADY" style="text;html=1;align=right;verticalAlign=bottom;rounded=0;labelBorderColor=none;labelBackgroundColor=none;fontColor=#4D9900;" vertex="1" parent="1">
          <mxGeometry x="-1080" y="2620" width="160" height="20" as="geometry" />
        </mxCell>
        <mxCell id="OmlpcQI9IJZ9FruPpQCv-966" value="" style="endArrow=none;html=1;rounded=0;strokeColor=#4D9900;" edge="1" parent="1">
          <mxGeometry width="50" height="50" relative="1" as="geometry">
            <mxPoint x="-920" y="2620" as="sourcePoint" />
            <mxPoint x="-800" y="2620" as="targetPoint" />
          </mxGeometry>
        </mxCell>
        <mxCell id="OmlpcQI9IJZ9FruPpQCv-967" value="master_granted" style="text;html=1;align=right;verticalAlign=bottom;rounded=0;labelBorderColor=none;labelBackgroundColor=none;fontColor=#4D9900;" vertex="1" parent="1">
          <mxGeometry x="-1080" y="2660" width="160" height="20" as="geometry" />
        </mxCell>
        <mxCell id="OmlpcQI9IJZ9FruPpQCv-968" value="" style="endArrow=none;html=1;rounded=0;strokeColor=#4D9900;" edge="1" parent="1">
          <mxGeometry width="50" height="50" relative="1" as="geometry">
            <mxPoint x="-920" y="2680" as="sourcePoint" />
            <mxPoint x="-480" y="2680" as="targetPoint" />
          </mxGeometry>
        </mxCell>
        <mxCell id="OmlpcQI9IJZ9FruPpQCv-971" value="" style="endArrow=none;html=1;rounded=0;strokeColor=#4D9900;" edge="1" parent="1">
          <mxGeometry width="50" height="50" relative="1" as="geometry">
            <mxPoint x="-800" y="2640" as="sourcePoint" />
            <mxPoint x="-800" y="2620" as="targetPoint" />
          </mxGeometry>
        </mxCell>
        <mxCell id="OmlpcQI9IJZ9FruPpQCv-972" value="" style="endArrow=none;html=1;rounded=0;strokeColor=#4D9900;" edge="1" parent="1">
          <mxGeometry width="50" height="50" relative="1" as="geometry">
            <mxPoint x="-800" y="2640" as="sourcePoint" />
            <mxPoint x="-480" y="2640" as="targetPoint" />
          </mxGeometry>
        </mxCell>
        <mxCell id="OmlpcQI9IJZ9FruPpQCv-973" value="S2" style="rounded=0;whiteSpace=wrap;html=1;strokeColor=#4D9900;" vertex="1" parent="1">
          <mxGeometry x="-730" y="2700" width="330" height="20" as="geometry" />
        </mxCell>
        <mxCell id="OmlpcQI9IJZ9FruPpQCv-978" value="NONSEQ" style="rounded=0;whiteSpace=wrap;html=1;strokeColor=#4D9900;" vertex="1" parent="1">
          <mxGeometry x="-800" y="2540" width="400" height="20" as="geometry" />
        </mxCell>
        <mxCell id="OmlpcQI9IJZ9FruPpQCv-995" value="SEQ" style="rounded=0;whiteSpace=wrap;html=1;strokeColor=#4D9900;" vertex="1" parent="1">
          <mxGeometry x="-400" y="2540" width="80" height="20" as="geometry" />
        </mxCell>
        <mxCell id="OmlpcQI9IJZ9FruPpQCv-998" value="" style="endArrow=none;html=1;rounded=0;strokeColor=#4D9900;" edge="1" parent="1">
          <mxGeometry width="50" height="50" relative="1" as="geometry">
            <mxPoint x="-480" y="2640" as="sourcePoint" />
            <mxPoint x="-480" y="2620" as="targetPoint" />
          </mxGeometry>
        </mxCell>
        <mxCell id="OmlpcQI9IJZ9FruPpQCv-999" value="" style="endArrow=none;html=1;rounded=0;strokeColor=#4D9900;" edge="1" parent="1">
          <mxGeometry width="50" height="50" relative="1" as="geometry">
            <mxPoint x="-480" y="2620" as="sourcePoint" />
            <mxPoint x="-320" y="2620" as="targetPoint" />
          </mxGeometry>
        </mxCell>
        <mxCell id="OmlpcQI9IJZ9FruPpQCv-1000" value="" style="endArrow=none;html=1;rounded=0;strokeColor=#4D9900;" edge="1" parent="1">
          <mxGeometry width="50" height="50" relative="1" as="geometry">
            <mxPoint x="-480" y="2680" as="sourcePoint" />
            <mxPoint x="-480" y="2660" as="targetPoint" />
          </mxGeometry>
        </mxCell>
        <mxCell id="OmlpcQI9IJZ9FruPpQCv-1001" value="" style="endArrow=none;html=1;rounded=0;strokeColor=#4D9900;" edge="1" parent="1">
          <mxGeometry width="50" height="50" relative="1" as="geometry">
            <mxPoint x="-480" y="2660" as="sourcePoint" />
            <mxPoint x="-320" y="2660" as="targetPoint" />
          </mxGeometry>
        </mxCell>
        <mxCell id="OmlpcQI9IJZ9FruPpQCv-1002" value="" style="endArrow=none;html=1;rounded=0;strokeColor=#0000FF;" edge="1" parent="1">
          <mxGeometry width="50" height="50" relative="1" as="geometry">
            <mxPoint x="-400" y="2440" as="sourcePoint" />
            <mxPoint x="-400" y="2420" as="targetPoint" />
          </mxGeometry>
        </mxCell>
        <mxCell id="OmlpcQI9IJZ9FruPpQCv-1003" value="" style="endArrow=none;html=1;rounded=0;strokeColor=#0000FF;" edge="1" parent="1">
          <mxGeometry width="50" height="50" relative="1" as="geometry">
            <mxPoint x="-400" y="2440" as="sourcePoint" />
            <mxPoint x="-320" y="2440" as="targetPoint" />
          </mxGeometry>
        </mxCell>
      </root>
    </mxGraphModel>
  </diagram>
</mxfile>
